<?xml version="1.0" standalone="no"?>
<!DOCTYPE svg PUBLIC "-//W3C//DTD SVG 1.1//EN" "http://www.w3.org/Graphics/SVG/1.1/DTD/svg11.dtd" >
<svg xmlns="http://www.w3.org/2000/svg">
<metadata>
<json>
{
	"fontFamily": "align",
	"designerURL": "http://www.radolo.com",
	"license": "you do not have permission to reuse this file.",
	"designer": "Jeremy Miller",
	"fontURL": "http://www.radolo.com",
	"licenseURL": "",
	"version": "Version 0.0",
	"fontId": "align",
	"psName": "align",
	"subFamily": "Regular",
	"fullName": "align",
	"description": "Generated by IcoMoon"
}
</json>
</metadata>
<defs>
<font id="align" horiz-adv-x="1024">
<font-face units-per-em="1024" ascent="960" descent="-64" />
<missing-glyph horiz-adv-x="1024" />
<glyph unicode="&#x20;" d="" horiz-adv-x="512" />
<glyph unicode="&#xe001;" d="M768 384v384h224c17.728 0 32 14.272 32 31.936v128c0 17.664-14.272 32.064-32 32.064h-320c-17.6 0-32-14.4-32-32.064v-287.936c-64 0-180.608 0-180.608 0h-0.384l-9.856-7.36 3.456-11.776c44.992-35.776 59.392-116.608 59.392-204.928v-448c0-17.664 14.4-31.936 32-31.936h448c17.728 0 32 14.272 32 31.936v448c0 112.256-64 204.992-192 220.736v-316.672h-192v64h128zM224 639.936c-123.2 0-224-100.8-224-224v-448c0-17.664 14.4-31.936 32-31.936h384c17.728 0 32 14.272 32 31.936v448c0 123.2-100.8 224-224 224z" />
<glyph unicode="&#xe002;" d="M896 960h-832c-35.136 0-64-28.8-64-64v-832c0-35.2 28.864-64 64-64h64c0-35.2 28.864-64 64-64 35.264 0 64 28.8 64 64h448c0-35.2 28.864-64 64-64 35.264 0 64 28.8 64 64h64c35.264 0 64 28.8 64 64v832c0 35.2-28.736 64-64 64zM832 128h-704v320h704v-320zM832 512h-704v320h704v-320zM768 384h-576v-192h576v192zM576 256h-192v64h192v-64zM768 768h-576v-192h576v192zM576 640h-192v64h192v-64z" horiz-adv-x="960" />
<glyph unicode="&#xe005;" d="M1024 64v384h-256c0 141.12 114.752 256 256 256v128c-211.744 0-384-172.256-384-384v-384h384zM384 64v384h-256c0 141.12 114.752 256 256 256v128c-211.744 0-384-172.256-384-384v-384h384z" />
<glyph unicode="&#xe006;" d="M0 832v-384h256c0-141.12-114.752-256-256-256v-128c211.744 0 384 172.256 384 384v384h-384zM640 832v-384h256c0-141.12-114.752-256-256-256v-128c211.744 0 384 172.256 384 384v384h-384z" />
<glyph unicode="&#xe007;" d="M576 896c-225.536 0-411.776-166.976-442.88-384h-133.12l192-256 192 256h-121.472c29.696 145.856 158.976 256 313.472 256 176.512 0 320-143.552 320-320s-128-320-320-320v-128c256 0 448 200.576 448 448s-200.512 448-448 448z" />
<glyph unicode="&#xe008;" d="M64 832c0-70.692 57.308-128 128-128s128 57.308 128 128c0 70.692-57.308 128-128 128-70.692 0-128-57.308-128-128zM832 832c0-70.692 57.308-128 128-128s128 57.308 128 128c0 70.692-57.308 128-128 128-70.692 0-128-57.308-128-128zM448 192c0-70.692 57.308-128 128-128s128 57.308 128 128c0 70.692-57.308 128-128 128-70.692 0-128-57.308-128-128zM128 466.752l45.312 45.184 146.752-146.688-45.248-45.248zM877.312 320l-45.248 45.248 146.752 146.752 45.248-45.248zM384 576c0 70.656-86.016 128-192 128s-192-57.28-192-127.936v0l384-0.064zM960 704c-105.984 0-192-57.28-192-128v0h384c0 70.72-86.016 128-192 128zM576 64c-105.984 0-192-57.28-192-128v0h384c0 70.72-86.016 128-192 128zM448 831.936h256v-63.936h-256z" horiz-adv-x="1152" />
<glyph unicode="&#xe012;" d="M512 832h-448c-36.8 0-64-33.792-64-70.656v-633.344c0-37.376 27.2-64 64-64h448c37.312 0 64 16 64 64v633.344c0 36.864 0 70.656-64 70.656zM512 150.336c0-12.352-9.984-22.336-22.336-22.336h-403.328c-12.352 0-22.336 9.984-22.336 22.336v595.328c0 12.352 9.984 22.336 22.336 22.336h403.392c12.288 0 22.272-9.984 22.272-22.336v-595.328zM128 704h320v-128h-320zM128 512h64v-64h-64zM256 512h64v-64h-64zM128 384h64v-64h-64zM256 384h64v-64h-64zM128 256h64v-64h-64zM256 256h64v-64h-64zM384 512h64v-64h-64zM384 384h64v-64h-64zM384 320h64v-128h-64z" horiz-adv-x="576" />
<glyph unicode="&#xe016;" d="M896 832h-768c-70.4 0-128-57.6-128-128v-512c0-70.4 57.6-128 128-128h768c70.4 0 128 57.6 128 128v512c0 70.4-57.6 128-128 128zM960 192c0-35.264-28.608-64-64-64h-768c-35.264 0-64 28.736-64 64v320h896v-320zM960 640h-896v64c0 35.264 28.736 64 64 64h768c35.392 0 64-28.736 64-64v-64zM128 448h384v-64h-384zM128 320h128v-64h-128zM704 448h192v-128h-192z" />
<glyph unicode="&#xe018;" d="M128-64c-35.328 0-65.472 12.48-90.496 37.504s-37.504 55.168-37.504 90.496 12.48 65.472 37.504 90.496 55.168 37.504 90.496 37.504 65.472-12.48 90.496-37.504 37.504-55.168 37.504-90.496-12.48-65.472-37.504-90.496-55.168-37.504-90.496-37.504zM128 320c-35.328 0-65.472 12.48-90.496 37.504s-37.504 55.168-37.504 90.496 12.48 65.472 37.504 90.496 55.168 37.504 90.496 37.504 65.472-12.48 90.496-37.504 37.504-55.168 37.504-90.496-12.48-65.472-37.504-90.496-55.168-37.504-90.496-37.504zM128 704c-35.328 0-65.472 12.48-90.496 37.504s-37.504 55.168-37.504 90.496 12.48 65.472 37.504 90.496 55.168 37.504 90.496 37.504 65.472-12.48 90.496-37.504 37.504-55.168 37.504-90.496-12.48-65.472-37.504-90.496-55.168-37.504-90.496-37.504z" horiz-adv-x="256" />
<glyph unicode="&#xe01b;" d="M277.504 722.944c-161.152-52.992-277.504-204.48-277.504-383.232 0-222.976 180.736-403.712 403.776-403.712 133.504 0 251.648 65.216 325.12 165.056l-358.72 204.992-92.672 416.896zM673.344 931.072c-48.576 18.432-101.12 28.928-156.096 28.928-48.384 0-94.848-8-138.368-22.4l101.504-456.832 192.96 450.304zM740.352 822.464l-201.6-453.76 398.144-227.456c54.464 74.24 87.104 165.568 87.104 264.768 0 189.312-117.504 350.912-283.648 416.448z" />
<glyph unicode="&#xe01d;" d="M841.056 456.288c-0.128-140.064-80.224-258.72-210.176-311.392-128.544-52.064-267.104-23.872-364.736 73.856l106.848 106.72h-308.992v-308.608l118.016 117.888c132.128-132.288 319.616-170.368 493.6-99.904 175.84 71.296 284.224 231.808 284.384 421.376l-118.944 0.064zM182.944 439.712c0.128 140.064 80.192 258.72 210.176 311.36 128.544 52.096 267.104 23.936 364.704-73.856l-106.816-106.688h308.992v308.608l-118.016-117.856c-132.128 132.256-319.648 170.368-493.6 99.904-175.872-71.264-284.224-231.84-284.384-421.376l118.944-0.096z" />
<glyph unicode="&#xe01f;" d="M433.216 447.68l-241.216-237.888 81.792-81.792 240.256 238.784 125.952-125.888v335.104h-335.040zM832 960h-704c-70.656 0-128-57.344-128-128v-704c0-106.048 86.016-192 192-192h704c70.656 0 128 57.344 128 128v704c0 106.048-86.016 192-192 192zM896 128.512c0-16.448-6.592-31.232-16.768-42.752-0.768-0.832-1.088-1.984-1.856-2.752-2.24-2.304-5.376-3.584-7.936-5.504-4.032-3.008-7.808-6.464-12.48-8.448-0.192-0.064-0.384-0.064-0.576-0.128-7.488-3.136-15.744-4.928-24.384-4.928h-640c-35.264 0-64 28.736-64 64v639.488c0 16.448 6.592 31.232 16.704 42.688 0.768 0.896 1.152 1.984 1.92 2.816 2.24 2.304 5.312 6.016 7.872 8 4.096 3.008 7.872 11.008 12.544 11.008 0.128 0 0.256 0 0.384 0 7.552 0 15.808 0 24.576 0h640c35.264 0 64-28.736 64-64v-639.488z" />
<glyph unicode="&#xe02a;" d="M128 275.008l256 364.992 192-192 320 448v-704h-768zM0 128h1024v-128h-1024z" />
<glyph unicode="&#xe039;" d="M792.73 521.574c-20.838-21.402-240.384-230.554-240.384-230.554-11.162-11.416-25.754-17.1-40.346-17.1-14.644 0-29.236 5.684-40.346 17.1 0 0-219.546 209.152-240.436 230.554-20.838 21.402-22.272 59.852 0 82.74 22.324 22.836 53.402 24.628 80.692 0l200.090-191.898 200.038 191.846c27.34 24.628 58.47 22.836 80.692 0 22.322-22.834 20.94-61.338 0-82.688z" />
<glyph unicode="&#xe03a;" d="M585.574 728.78c-21.402-20.89-230.502-240.436-230.502-240.436-11.418-11.16-17.1-25.752-17.1-40.344s5.684-29.184 17.1-40.346c0 0 209.1-219.546 230.502-240.384 21.402-20.89 59.904-22.324 82.74 0 22.784 22.272 24.576 53.35-0.052 80.64l-191.846 200.090 191.846 200.090c24.628 27.34 22.836 58.42 0.052 80.692-22.886 22.27-61.39 20.888-82.74-0.002z" />
<glyph unicode="&#xe03b;" d="M792.73 374.426c-20.838 21.402-240.384 230.502-240.384 230.502-11.162 11.418-25.754 17.152-40.346 17.152-14.644 0-29.236-5.734-40.346-17.152 0 0-219.546-209.1-240.436-230.502-20.838-21.402-22.272-59.904 0-82.74 22.324-22.784 53.402-24.628 80.692 0l200.090 191.846 200.038-191.846c27.34-24.628 58.47-22.784 80.692 0 22.322 22.886 20.94 61.39 0 82.74z" />
<glyph unicode="&#xe03e;" d="M0 128h1024v-128h-1024v128zM128 384h128v-192h-128v192zM320 704h128v-512h-128v512zM512 512h128v-320h-128v320zM704 896h128v-704h-128v704z" />
<glyph unicode="&#xe040;" d="M960 191.936h-64v42.752c-40.128-14.272-83.072-22.4-128-22.4v-212.288h-512v320h258.752c-56.896 49.984-98.624 116.48-118.144 192h-140.608v256h163.456c10.432 22.656 22.912 44.032 37.376 64h-264.832v-320h-128l-64-64v-320h192v-192h640v192h192v182.784c-19.648-17.6-41.024-33.344-64-46.656v-72.192zM128 384h-64v64h64v-64zM704 229.76c-31.104 5.248-61.056 14.016-89.28 26.24h-294.72v-64h384v37.76zM320 128h384v-64h-384zM800 319.936c158.976 0 288 128.96 288 288s-129.024 288-288 288-288-129.024-288-288 129.024-288 288-288zM682.944 677.504l77.504-75.2 154.432 153.728 90.24-90.688-243.648-242.432-167.744 162.752 89.216 91.84z" horiz-adv-x="1088" />
<glyph unicode="&#xe041;" d="M512.064 960c-282.752 0-512.064-229.248-512.064-512 0-282.688 229.312-512 512.064-512 282.624 0 511.936 229.312 511.936 512 0 282.752-229.312 512-511.936 512zM448 191.936l-261.888 253.632 69.888 66.432 192-128 320 256 64-64-384-384.064z" />
<glyph unicode="&#xe043;" d="M850.752 824.256l-135.744 135.744-395.008-388.544 128-128zM251.52 496.512l-59.52-181.056 195.264 45.248zM704 512v-64h256v-448h-896v448h64v64h-128v-576h1024v576zM512 320h320v-64h-320zM384 192h448v-64h-448z" />
<glyph unicode="&#xe044;" d="M320 576h64v-448h-64zM448 576h64v-448h-64zM576 576h64v-448h-64zM896 768h-128v123.584c0 35.264-40.576 68.416-75.968 68.416h-448c-35.328 0-52.032-33.152-52.032-68.416v-123.584h-128c-35.392 0-64-28.672-64-64 0-35.392 28.608-64 64-64h64v-644.416c0-35.392 16.704-59.584 52.032-59.584h576c35.392 0 75.968 24.192 75.968 59.584v644.416h64c35.392 0 64 28.608 64 64 0 35.328-28.608 64-64 64zM320 832h320v-64h-320v64zM704 64h-448v576h448v-576z" horiz-adv-x="960" />
<glyph unicode="&#xe045;" d="M452.8 406.976l-135.872 135.808-90.496-90.496 226.368-226.304 348.736 348.8-90.496 90.56zM1024 768c0 106.048-85.952 192-192 192h-640c-106.048 0-192-85.952-192-192v-640c0-106.048 85.952-192 192-192h640c106.048 0 192 85.952 192 192v640zM896 128c0-35.328-28.608-64-64-64h-640c-35.392 0-64 28.672-64 64v640c0 35.328 28.608 64 64 64h640c35.392 0 64-28.672 64-64v-640z" />
<glyph unicode="&#xe04a;" d="M1014.72 35.84l-77.824 90.816c14.336 29.568 23.104 62.336 23.104 97.344 0 123.712-100.224 224-224 224s-224-100.288-224-224 100.224-224 224-224c41.792 0 80.448 12.16 113.856 32.064l74.24-86.784c12.48-12.416 32.896-12.416 45.248 0l45.376 45.312c12.416 12.416 12.416 32.832 0 45.248zM576 224c0 88.384 71.616 160 160 160s160-71.616 160-160-71.616-160-160-160-160 71.616-160 160zM184 246.016c153.728 65.472 264 96 264 200.064 0 65.92-41.344 83.776-64 105.92-32.512 31.808-64 67.904-64 216 0 75.328 101.248 128 192 128 90.88 0 192-56.768 192-132.032 0-174.016-112.384-251.968-121.472-251.968h86.72c36.992 0 98.752 95.552 98.752 251.968 0 119.552-136.128 194.048-256 194.048-119.744 0-256-71.424-256-190.976 0-259.136 128-260.864 128-320.704 0-63.936-320-146.752-384-190.336 0-47.36 0-192 0-192h448v64h-384v64c62.016 38.016 88.768 40.704 120 54.016z" />
<glyph unicode="&#xe04c;" d="M448 704h64v-512h-64zM87.808 701.888l-48.896-57.024 229.632-196.864-229.632-196.864 48.896-57.024 296.192 253.888-296.192 253.888z" horiz-adv-x="512" />
<glyph unicode="&#xe04d;" d="M87.808 701.888l-48.896-57.024 229.632-196.864-229.632-196.864 48.896-57.024 296.192 253.888-296.192 253.888z" horiz-adv-x="384" />
<glyph unicode="&#xe04e;" d="M992 800c17.728 0 32 14.336 32 32v104.128c0 17.664-2.496 23.872-20.224 23.872h-107.776c-17.6 0-32-14.336-32-32s-14.272-32-32-32h-64c-17.6 0-32 14.336-32 32s-14.272 32-32 32h-64c-17.6 0-32-14.336-32-32s-34.496-32-52.224-32h-43.776c-17.6 0-32 14.336-32 32s-14.272 32-32 32h-64c-17.6 0-32-14.336-32-32s-14.272-32-32-32h-64c-17.6 0-32 14.336-32 32s-14.272 32-32 32h-128c-17.6 0-64-46.336-64-64v-64c0-17.664 14.4-32 32-32 17.728 0 32-14.336 32-32v-64c0-17.664-14.272-32-32-32-17.6 0-32-14.336-32-32v-64c0-17.664 14.4-32 32-32 17.728 0 32-14.336 32-32v-64c0-17.664-14.272-32-32-32-17.6 0-32-14.336-32-32v-64c0-17.664 14.4-32 32-32 17.728 0 32-14.336 32-32v-64c0-17.664-14.272-32-32-32-17.6 0-32-14.336-32-32v-151.872c0-17.664 26.112-40.128 43.776-40.128h148.224c17.728 0 32 14.336 32 32s14.4 32 32 32h64c17.728 0 32-14.336 32-32s14.4-32 32-32h64c17.728 0 32 14.336 32 32s14.4 32 32 32h64c17.728 0 32-14.336 32-32s14.4-32 32-32h64c17.728 0 32 14.336 32 32s14.4 32 32 32h64c17.728 0 32-14.336 32-32s14.4-32 32-32h107.776c17.728 0 20.224 22.464 20.224 40.128v151.872c0 17.664-14.272 32-32 32-17.6 0-32 14.336-32 32v64c0 17.664 14.4 32 32 32 17.728 0 32 14.336 32 32v64c0 17.664-14.272 32-32 32-17.6 0-32 14.336-32 32v64c0 17.664 14.4 32 32 32 17.728 0 32 14.336 32 32v64c0 17.664-14.272 32-32 32-17.6 0-32 14.336-32 32v64c0 17.664 14.4 32 32 32zM781.056 249.984c-20.352-13.312-43.648-19.776-71.232-19.776-11.008 0-21.504 1.344-31.232 4.096-9.728 2.816-18.752 6.72-26.688 11.776-8.384 5.184-15.424 28.352-21.44 35.328-5.696 6.592-10.176 38.592-13.248 38.592h-1.92l-4.096-19.264c-4.992-6.272-10.624-20.992-16.96-27.008-7.488-6.848-15.424-17.024-24.384-22.144-9.216-5.376-19.2-11.712-29.824-14.592-10.88-3.136-22.848-5.696-35.52-5.696-24 0-45.568 3.648-64.128 11.84-18.752 8.32-34.624 19.968-47.232 35.072-12.8 15.232-22.656 33.536-29.12 54.528-6.656 21.12-9.984 44.8-9.984 70.336 0 29.76 4.48 57.216 13.376 81.792 8.96 24.832 21.952 46.464 38.656 64.384 16.768 17.984 37.376 32.192 61.248 42.112s50.944 14.912 80.64 14.912c12.928 0 26.304-0.704 40.128-2.112s26.944-3.2 39.808-5.504 24.832-4.864 35.968-7.808c6.72-1.664 12.992-3.392 18.496-5.056l11.904-3.776 0.832-182.272c-0.704-5.76 8.896-11.776 8.896-17.728v-11.648c0-12.16-9.024-21.76-7.104-29.12 1.856-7.872-0.768-13.504 2.368-18.112 2.496-3.84 3.136-6.656 7.232-8.384 3.136-1.344 5.696-2.176 9.664-2.176 9.664 0 17.216 3.584 24.256 11.008 7.36 7.68 13.184 18.048 17.792 30.784 4.8 13.056 8.384 28.416 10.88 45.824 2.624 17.408 3.968 36.032 3.968 55.68 0 36.096-5.632 68.8-16.384 97.28-10.88 28.352-25.92 52.544-44.864 72-19.264 19.52-42.24 34.56-68.352 44.672-26.24 10.176-55.168 15.296-86.144 15.296-43.456 0-82.112-7.232-115.008-21.76-32.896-14.4-60.8-34.752-83.136-60.672-22.080-25.728-39.168-56.896-50.752-92.416-11.52-35.136-17.28-74.496-17.28-117.12 0-38.976 4.992-74.112 14.848-104.384 9.92-30.016 24.768-55.68 44.096-76.224 19.648-20.416 44.032-36.16 72.512-46.784 28.544-10.624 62.016-16 99.52-16 15.872 0 32.384 1.024 49.088 3.008 16.896 1.984 33.6 4.672 50.368 8.128 16.704 3.456 33.152 7.552 49.216 12.352 9.344 2.88 10.816 5.824 19.584 8.96l13.632 7.488v-86.144l-2.112-4.096c-24.64-10.24-48.128-18.624-77.248-24.896-32.64-6.976-66.176-10.56-103.616-10.56-51.904 0-97.856 7.424-138.496 22.208-41.024 14.784-75.584 36.416-103.552 64.32-28.096 27.648-49.6 62.208-64.64 102.656-14.976 40.32-22.336 86.592-22.336 137.472 0 35.84 3.968 70.336 11.712 102.4 7.744 32.64 19.008 63.296 33.6 91.136 14.72 28.032 32.896 53.696 53.888 76.416 20.864 22.72 45.248 42.432 72.32 58.752 27.072 16.128 57.088 28.736 89.408 37.504 32.256 8.768 67.392 13.184 104.384 13.184 45.248 0 87.552-7.296 125.76-21.824 38.144-14.528 71.488-35.648 99.264-62.72 27.648-27.072 49.472-60.416 65.024-99.136 15.488-38.656 23.36-82.816 23.36-131.392 0-26.496-3.264-53.888-9.664-81.28-6.464-26.432-16.448-50.624-29.76-72-13.632-21.44-29.952-38.4-50.24-51.712zM573.056 539.136c-8.128 0.896-16.512 1.344-25.088 1.344-19.52 0-36.48-4.288-50.368-12.864-13.44-8.128-24.64-19.2-33.152-32.896-8.256-13.12-14.272-28.096-17.792-44.672-3.52-16.256-5.376-32.64-5.376-48.704 0-35.584 6.4-60.992 19.264-78.016 13.632-17.728 32-26.816 54.656-26.816 14.72 0 27.776 3.584 38.848 10.56 10.752 6.848 19.52 16.576 26.24 28.8 6.144 11.2 11.008 24.832 14.272 40.32 3.136 14.848 5.248 31.488 6.144 49.664l5.888 106.496-11.392 2.944c-6.272 1.6-13.632 2.88-22.144 3.84z" />
<glyph unicode="&#xe04f;" d="M0 317.824v-381.824h1024v381.824l-64 258.176h-128v144l-174.528 176h-465.472v-320h-128l-64-258.176zM832 512h64l67.968-192h-131.968v192zM256 832h401.472l110.528-112v-400h-128v-128h-256v128h-128v512zM128 512h64v-192h-128l64 192zM960 0h-896v256h256v-128h384v128h256v-256zM721.472 576h-145.472v192h-128v-192h-110.528l174.528-256z" />
<glyph unicode="&#xe051;" d="M319.488 576.384h128v-128h-128zM511.488 576.384h128v-128h-128zM703.488 576.384h128v-128h-128zM127.488 384.384h128v-128h-128zM319.488 384.384h128v-128h-128zM511.488 384.384h128v-128h-128zM703.488 384.384h128v-128h-128zM127.488 192.384h128v-128h-128zM319.488 192.384h128v-128h-128zM511.488 192.384h128v-128h-128zM831.488 832.384v117.952c0 17.6-11.84 10.048-29.568 10.048h-128c-17.6 0-34.432 7.616-34.432-10.048v-117.952h-320v117.952c0 17.6-11.84 10.048-29.568 10.048h-128c-17.6 0-34.432 7.616-34.432-10.048v-117.952h-128v-896h960v896h-128zM703.488 896.384h64v-128h-64v128zM191.488 896.384h64v-128h-64v128zM895.488 0.384h-832v640h832v-640z" horiz-adv-x="960" />
<glyph unicode="&#xe052;" d="M960 576v128h-192v-128h-64v-128h-256v128h-64v256h-128v128h-64v-128h-128v-256h-64v-640h1024v640h-64zM320 768v-64h-64v64h64zM128 768h64v-64h-64v64zM128 64h-64v64h64v-64zM128 192h-64v64h64v-64zM128 320h-64v64h64v-64zM128 448h-64v64h64v-64zM128 640h64v-64h-64v64zM256 64h-64v64h64v-64zM256 192h-64v64h64v-64zM256 320h-64v64h64v-64zM256 448h-64v64h64v-64zM256 640h64v-64h-64v64zM384 64h-64v64h64v-64zM384 192h-64v64h64v-64zM384 320h-64v64h64v-64zM384 448h-64v64h64v-64zM640 64h-64v64h64v-64zM640 192h-64v64h64v-64zM640 320h-64v64h64v-64zM832 64h-64v64h64v-64zM832 192h-64v64h64v-64zM832 320h-64v64h64v-64zM832 448h-64v64h64v-64zM832 640h64v-64h-64v64zM960 64h-64v64h64v-64zM960 192h-64v64h64v-64zM960 320h-64v64h64v-64zM960 448h-64v64h64v-64z" />
<glyph unicode="&#xe053;" d="M256 832h506.048l133.952-192h64l-128 192-64 128h-512l-64-128-128-192h66.112zM128-64h768l68.224 512h-900.224l64-512zM320 320h384v-64h-384v64zM0 576h1024v-64h-1024z" />
<glyph unicode="&#xe054;" d="M896 640h-64v-64c0-98.752-93.248-192-192-192h-293.504l-90.496-90.496v-37.504c0-64 64-128 128-128h320l192-192v192c64 0 128 64 128 128v256c0 64-64 128-128 128zM320 448h320c64 0 128 64 128 128v256c0 64-64 128-128 128h-512c-64 0-128-64-128-128v-256c0-64 64-128 128-128v-192l192 192z" />
<glyph unicode="&#xe056;" d="M1024 730.304v42.496c0 103.36-236.288 187.2-512 187.2s-512-83.84-512-187.2v-42.56c0-52.736 6.528-103.168 43.776-140.416l278.080-258.112c37.248-37.184 62.144-87.616 62.144-140.352v-191.36c0-34.496 29.568-64 64-64h128c34.496 0 64 29.504 64 64v134.848c0-24.256 65.472-37.376 111.616-37.376 66.624 0 123.008 27.84 167.040 76.416 42.56 46.912 60.16 108.096 56.192 172.352-3.968 63.552-33.984 122.304-81.408 165.248-8.192 7.36-18.048 13.44-27.072 19.712l72.64 58.688c37.312 37.248 84.992 87.68 84.992 140.416zM512 640c-206.656 0-403.2 64-403.2 132.8s196.48 124.8 403.2 124.8 384-55.936 384-124.8-177.344-132.8-384-132.8zM865.28 215.808c-33.728-37.184-80.576-55.936-128-55.936-43.264 0-72.704 15.616-107.392 47.104-2.816 2.56 6.912 5.568 6.912 8.192v32.64c0 16.512-7.808 32.384 3.904 44.096l187.456 194.624c10.112-6.016 16.192-13.056 25.28-21.248 72.832-66.176 76.224-178.496 11.84-249.472z" />
<glyph unicode="&#xe057;" d="M960 576h-128v117.696l-200 202.304h-440v-320h-128l-64-64v-320h192v-192h640v192h192v320l-64 64zM128 448h-64v64h64v-64zM768 64h-512v320h512v-320zM768 576h-512v256h320v-192h192v-64zM960 256h-64v128h64v-128zM320 320h384v-64h-384zM320 192h384v-64h-384z" />
<glyph unicode="&#xe058;" d="M512 832v128h-128v-128h-320c0 0-64 0-64-64v-768c0 0 0-64 64-64h448c64 0 64 64 64 64v768c0 64-64 64-64 64zM512 64c0-35.328-28.608-64-64-64h-320c-35.392 0-64 28.672-64 64v640c0 35.328 28.608 64 64 64h320c35.392 0 64-28.672 64-64v-640zM128 640h320v-192h-320zM128 320h64v-64h-64zM256 320h64v-64h-64zM384 320h64v-64h-64zM128 192h64v-64h-64zM256 192h64v-64h-64zM384 192h64v-64h-64z" horiz-adv-x="576" />
<glyph unicode="&#xe059;" d="M0 832v-768h1024v768h-1024zM128 384h256v-64h-256v64zM512 192h-384v64h384v-64zM896 512h-192v192h192v-192z" />
<glyph unicode="&#xe05d;" d="M0 704h64v-512h-64zM424.192 194.112l48.896 57.024-229.632 196.864 229.632 196.864-48.896 57.024-296.192-253.888 296.192-253.888z" horiz-adv-x="512" />
<glyph unicode="&#xe05e;" d="M296.192 194.112l48.896 57.024-229.632 196.864 229.632 196.864-48.896 57.024-296.192-253.888 296.192-253.888z" horiz-adv-x="384" />
<glyph unicode="&#xe05f;" d="M128 746.176c0 35.264 28.032 85.824 63.296 85.824h384.704l127.808 128h-576c-70.592 0-127.808-78.592-127.808-149.312v-704c0-106.048 85.824-170.688 191.808-170.688h640c106.112 0 192.192 64.64 192.192 170.688v533.312l-128-128v-405.312c0-35.264-28.8-42.688-64.192-42.688h-640c-35.264 0-63.808 7.424-63.808 42.688v639.488zM256 192l256 64-192 192zM385.856 502.912l180.992-181.056 445.12 445.12c6.976 6.912 11.264 15.936 11.904 25.216 0.768 9.152-2.24 17.6-8.256 23.616l-135.872 135.744c-5.632 5.632-13.248 8.448-21.12 8.448-9.6 0-19.776-4.032-27.648-12.032l-1.344-1.408-443.776-443.648z" />
<glyph unicode="&#xe061;" d="M192 320h256v52.416c-3.968 3.776-7.744 7.616-11.584 11.584h-244.416v-64zM192 256h384v-64h-384zM896 64h-832v512h265.984c-4.928 20.8-8.32 42.112-9.984 64h-320v-640h960v321.92c-20.224-13.056-41.536-24.576-64-33.984v-223.936zM736 960c-159.040 0-288-129.024-288-288.064 0-159.104 128.96-287.936 288-287.936s288 128.832 288 287.936c0 159.040-128.96 288.064-288 288.064zM697.536 486.912l-167.744 162.816 89.152 91.904 77.504-75.2 154.432 153.728 90.24-90.688-243.584-242.56z" />
<glyph unicode="&#xe063;" d="M160 192c-52.992 0-96 42.944-96 96s43.008 96 96 96c2.816 0 5.632-0.128 8.384-0.384l103.168 171.968c-9.792 15.104-15.552 33.088-15.552 52.416 0 53.056 43.008 96 96 96s96-42.944 96-96c0-19.328-5.76-37.312-15.552-52.416l167.168-171.968c2.752 0.256 5.568 0.384 8.384 0.384 2.112 0 4.224-0.064 6.4-0.192l170.304 362.112c-10.496 15.424-16.704 34.048-16.704 54.080 0 53.056 43.008 96 96 96s96-42.944 96-96-43.008-96-96-96c-2.112 0-4.224 0.064-6.4 0.256l-170.304-362.112c10.496-15.488 16.704-34.112 16.704-54.144 0-53.056-43.008-96-96-96s-96 42.944-96 96c0 19.328 5.76 37.312 15.552 52.416l-167.168 171.968c-2.752-0.256-5.568-0.384-8.384-0.384s-5.632 0.128-8.384 0.384l-103.168-171.968c9.792-15.104 15.552-33.088 15.552-52.416 0-53.056-43.008-96-96-96zM0 128h1024v-128h-1024z" />
<glyph unicode="&#xe068;" d="M883.2 960c-189.056-136.512-323.584-386.496-460.608-641.6-84.352 109.696-152 257.6-222.016 257.6h-200.576c159.872-192 241.6-298.688 405.376-640h136.512c131.072 409.6 250.56 614.4 546.112 1024h-204.8z" horiz-adv-x="1088" />
<glyph unicode="&#xe06a;" d="M283.456 576h-182.912c-20.096 0-36.544-16.448-36.544-36.608v-310.848c0-20.096 16.448-36.544 36.544-36.544h182.848c20.16 0 36.608 16.448 36.608 36.544v310.848c0 20.16-16.448 36.608-36.544 36.608zM603.456 768h-182.912c-20.096 0-36.544-16.448-36.544-36.608v-502.848c0-20.096 16.448-36.544 36.544-36.544h182.848c20.16 0 36.608 16.448 36.608 36.544v502.848c0 20.16-16.448 36.608-36.544 36.608zM256 256h-128v192h128v-192zM576 256h-128v256h128v-256zM896 256h-128v448h128v-448zM923.456 896h-182.848c-20.16 0-36.608-16.448-36.608-36.608v-630.848c0-20.096 16.448-36.544 36.544-36.544h182.848c20.16 0 36.608 16.448 36.608 36.544v630.848c0 20.16-16.448 36.608-36.544 36.608zM0 128h1024v-128h-1024z" />
<glyph unicode="&#xe06b;" d="M128 640h128v-128h-128zM320 640h128v-128h-128zM512 640h128v-128h-128zM128 448h128v-128h-128zM320 448h128v-128h-128zM512 448h128v-128h-128zM128 256h128v-128h-128zM320 256h128v-128h-128zM512 256h128v-128h-128zM704 832v-64h-128v64h-384v-64h-128v64h-64v-832h768v832h-64zM704 64h-640v640h640v-640zM64 896h128v-64h-128zM576 896h128v-64h-128z" horiz-adv-x="768" />
<glyph unicode="&#xe06c;" d="M1024 960h-768v-256c-92.992 0-256 0-256 0v-768h768v256h256v768zM640 64h-512v384h128v-256h384c0-57.248 0-128 0-128zM896 320h-512v384h512v-384z" />
<glyph unicode="&#xe077;" d="M910.272 960h-477.632c-62.592 0-112.64-51.264-112.64-113.792v-142.208h128v128h448v-768h-448v128h-128v-142.272c0-62.592 50.048-113.728 112.64-113.728h477.632c62.592 0 113.728 51.2 113.728 113.728v796.416c0 62.592-51.2 113.856-113.728 113.856zM512 192l256 256-256 256v-128h-512v-256h512v-128z" />
<glyph unicode="&#xe078;" d="M448 320c0 32 32 64 64 64s64-32 64-64v-128c0-32-32-64-64-64s-64 32-64 64v128zM768 576h-512v149.312c0 85.344 85.344 106.688 170.656 106.688h170.656c85.344 0 170.688-21.344 170.688-106.688v-149.312zM64 448v-384c0-64 64-128 128-128h640c64 0 128 64 128 128v384c0 41.792-27.264 83.552-64 107.488v148.512c0 128-128 256-256 256h-256c-128 0-256-128-256-256v-148.512c-36.736-23.936-64-65.696-64-107.488z" />
<glyph unicode="&#xe079;" d="M896 555.488v148.512c0 128-128 256-256 256h-256c-106.464 0-212.96-88.576-245.76-192h126.72c24.064 50.112 92.896 64 161.728 64h170.656c85.344 0 170.656-21.344 170.656-106.688v-149.312h-640v-20.512c-36.736-23.936-64-65.696-64-107.488v-384c0-64 64-128 128-128h640c64 0 128 64 128 128v384c0 41.792-27.264 83.552-64 107.488zM576 192c0-32-32-64-64-64s-64 32-64 64v128c0 32 32 64 64 64s64-32 64-64v-128z" />
<glyph unicode="&#xe07a;" d="M438.426 728.78c21.402-20.89 230.502-240.436 230.502-240.436 11.468-11.16 17.152-25.752 17.152-40.344s-5.684-29.184-17.152-40.346c0 0-209.1-219.546-230.502-240.384-21.402-20.89-59.852-22.324-82.74 0-22.836 22.272-24.628 53.35 0 80.64l191.898 200.090-191.846 200.090c-24.628 27.34-22.836 58.42 0 80.692 22.834 22.27 61.338 20.888 82.688-0.002z" />
<glyph unicode="&#xe07c;" d="M448 896c-246.976 0-448-201.024-448-448 0-247.040 201.024-448 448-448s448 200.96 448 448c0 246.976-201.024 448-448 448v0zM448 801.024c194.944 0 353.024-158.016 353.024-353.024 0-194.944-158.080-353.024-353.024-353.024s-353.024 158.080-353.024 353.024c0 194.944 158.080 353.024 353.024 353.024M640 384h-256v256h64v-192h192z" horiz-adv-x="896" />
<glyph unicode="&#xe07d;" d="M410.944 448c-0.020-0.763-0.032-1.66-0.032-2.561 0-56.589 45.875-102.464 102.464-102.464 53.888 0 98.060 41.6 102.154 94.438 0.298 11.35 0.31 12.247 0.31 13.148 0 56.589-45.875 102.464-102.464 102.464-53.888 0-98.060-41.6-102.154-94.438zM957.184 550.4h-68.352c-4.864 0-9.28-1.856-13.76-2.752-8.768 31.872-21.888 62.208-38.144 89.984 1.6 1.344 3.648 1.984 5.12 3.52l48.256 48.256c26.624 26.624 26.624 69.824 0 96.512l-48.256 48.384c-26.88 26.688-69.888 26.688-96.64 0l-48.384-48.384c-2.24-2.368-3.136-5.248-5.12-7.808-24.704 13.44-51.968 23.872-79.744 31.424 1.024 4.608 2.176 9.024 2.176 13.952v68.16c0 37.696-29.248 68.352-66.752 68.352h-68.352c-37.632 0-69.632-30.656-69.632-68.352v-68.16c0-4.928 2.496-9.344 3.52-13.888-32.896-9.088-63.36-22.4-92.032-39.488-3.008 5.44-5.504 11.072-10.24 15.808l-48.128 48.256c-12.992 12.8-30.144 19.968-48.256 19.968s-35.456-7.168-48.32-19.968l-48.256-48.32c-26.624-26.688-26.624-69.888 0-96.512l48.256-48.256c5.376-5.312 11.712-9.024 18.496-12.288-14.016-25.408-25.024-52.672-32.896-81.216-4.608 0.96-9.024 2.816-13.888 2.816h-68.224c-37.632 0-69.632-30.592-69.632-68.288v-68.224c0-37.76 32-68.288 69.632-68.288h68.224c4.864 0 9.28 1.792 13.888 2.816 7.872-28.608 18.88-55.872 32.896-81.344-6.656-3.2-12.992-6.784-18.496-12.16l-48.128-48.256c-26.752-26.624-26.752-69.824 0-96.512l48.128-48.192c26.752-26.688 70.016-26.688 96.64 0l48.256 48.192c4.736 4.736 7.36 10.304 10.496 15.808 28.48-17.088 58.688-30.528 91.584-39.488-1.024-4.672-3.52-9.024-3.52-13.888v-68.224c0-37.696 32-68.288 69.632-68.288h68.352c37.504 0 66.752 30.592 66.752 68.288v68.224c0 4.864-1.152 9.216-2.112 13.824 27.776 7.616 54.72 17.984 79.36 31.36 1.984-2.368 3.136-5.504 5.376-7.616l48.256-48.192c26.752-26.688 70.016-26.688 96.768 0l48.256 48.192c12.864 12.864 19.968 30.144 19.968 48.256s-7.104 35.456-19.968 48.192l-48.128 48.256c-1.472 1.472-3.52 2.048-5.12 3.392 16.256 27.968 29.376 58.112 38.144 90.112 4.48-1.088 8.896-2.816 13.76-2.816h68.352c37.568 0.064 66.688 30.656 66.688 68.416v68.16c0 37.696-29.12 68.288-66.752 68.288zM274.624 448c0 131.904 106.88 238.912 238.72 238.912 131.968 0 238.976-107.072 238.976-238.912 0-131.968-107.008-238.976-238.976-238.976-131.84 0.064-238.72 107.072-238.72 238.976z" />
<glyph unicode="&#xe07e;" d="M113.728-64h477.632c62.592 0 112.64 51.264 112.64 113.728v142.272h-128v-128h-448v768h448v-128h128v142.272c0 62.656-50.048 113.728-112.64 113.728h-477.632c-62.592 0-113.728-51.2-113.728-113.728v-796.352c0-62.656 51.2-113.92 113.728-113.92zM768 192l256 256-256 256v-128h-512v-256h512v-128z" />
<glyph unicode="&#xe07f;" d="M390.592 928l43.328-391.008-396.896 110.56-37.024-222.112 377.984-29.568-243.84-318.304 216.352-109.568 157.312 345.888 175.264-345.888 210.048 109.568-249.12 318.304 380 29.568-29.504 222.112-406.496-110.56 43.36 391.008h-240.768z" />
<glyph unicode="&#xe080;" d="M703.488 336.64c-93.632 38.976-115.84 52.608-115.84 52.608l-0.896 89.792c0 0 35.136 27.008 46.080 111.552 21.888-6.4 44.928 32.704 46.208 53.312 1.152 19.776-3.072 74.816-29.76 69.376 5.376 41.408 9.344 78.656 7.424 98.432-6.976 72.256-78.016 148.288-187.328 148.288-109.248 0-180.352-76.032-187.392-148.288-1.856-19.712 2.048-57.024 7.616-98.432-26.88 5.44-31.040-49.6-29.824-69.376 1.28-20.544 24.256-59.712 46.272-53.312 10.752-84.544 45.952-111.552 45.952-111.552l-0.96-89.728c0 0-22.272-13.632-115.712-52.608-93.888-39.040-188.416-69.952-216.576-113.728-25.28-39.36-17.664-286.976-17.664-286.976h957.888c0 0 7.552 247.616-17.728 286.912-28.096 43.776-144 74.688-237.76 113.728zM1327.040 194.048c-25.216 39.424-24.96 65.728-109.056 100.864-84.096 35.008-104.128 48.064-104.128 48.064l-0.704 81.152c0 0 31.424 24.448 41.344 100.416 19.648-5.696 40.256 29.44 41.472 47.936 1.024 17.792-2.752 67.328-26.816 62.464 4.8 37.248 8.448 70.656 6.784 88.448-6.336 64.896-70.144 133.248-168.384 133.248-98.176 0-161.984-68.288-168.32-133.184-1.664-17.792 1.856-51.2 6.784-88.448-24.128 4.928-28.032-44.544-26.816-62.336 1.28-18.496 22.016-53.632 41.536-47.872 9.856-75.968 41.472-100.224 41.472-100.224l-46.144-21.696c78.848-37.376 167.936-90.048 167.936-142.912l0.064-323.968h318.976c0 0 6.848 222.848-16 258.048z" horiz-adv-x="1344" />
<glyph unicode="&#xe082;" d="M1001.344 179.52c-30.656 46.656-133.632 76.032-235.648 117.504-101.888 41.536-126.080 56.128-126.080 56.128l-0.96 95.552c0 0 38.208 28.736 50.048 118.592 23.872-6.784 48.96 34.752 50.304 56.704 1.28 21.12-3.328 79.616-32.448 73.728 5.888 44.032 10.24 83.712 8.192 104.64-7.552 76.736-84.864 157.632-203.904 157.632-118.912 0-196.288-80.896-203.84-157.632-2.048-20.992 2.24-60.608 8.192-104.64-29.184 5.888-33.856-52.608-32.448-73.728 1.344-21.888 26.368-63.488 50.304-56.704 11.904-89.856 50.048-118.528 50.048-118.528l-0.96-95.488c0 0-24.128-14.4-126.144-55.936-101.952-41.472-204.928-71.168-235.648-117.888-27.392-41.792-19.2-243.456-19.2-243.456h1019.52c-0.064 0 8.192 201.664-19.328 243.52z" />
<glyph unicode="&#xe084;" d="M287.936 704c-159.040-0.064-287.936-129.024-287.936-287.936 0-159.232 128.832-288 288-288.128 158.976 0 287.936 128.896 288 288 0 159.104-129.024 288.128-288.064 288.064zM257.152 260.224l-154.112 154.176 66.304 65.728 82.88-82.88 149.888 149.824 70.848-70.976-215.808-215.872z" horiz-adv-x="576" />
<glyph unicode="&#xe090;" d="M736 960c-158.976 0-288-128.96-288-288 0-44.352 10.88-85.952 28.736-123.456l-457.984-458.048c-25.024-25.024-25.024-65.472 0-90.496l45.248-45.248c12.032-12.032 28.224-18.752 45.248-18.752s33.28 6.72 45.248 18.752l100.608 100.608 124.992-100.608c12.032-12.032 28.288-18.752 45.248-18.752s33.28 6.72 45.248 18.688l22.656 22.656c25.024 25.024 25.024 65.472 0 90.496l-109.248 124.16 228.48 220.8c37.632-17.92 79.168-28.8 123.52-28.8 159.104 0 288 128.96 288 288s-128.896 288-288 288zM736 512c-88.256 0-160 71.808-160 160s71.744 160 160 160 160-71.808 160-160c0-88.192-71.744-160-160-160z" />
<glyph unicode="&#xe091;" d="M288 704c-159.104 0-288-128.96-288-288 0-159.168 128.896-288 288-288 159.040 0 288 128.832 288 288 0 158.976-129.024 288-288 288zM448 384h-128v-128h-64v128h-128v64h128v128h64v-128h128v-64z" horiz-adv-x="576" />
<glyph unicode="&#xe092;" d="M576 896c-225.472 0-411.84-166.976-442.88-384h-133.12l192.064-256 191.872 256h-154.88c30.208 164.352 173.888 289.024 346.944 289.024 194.944 0 353.024-158.016 353.024-353.024 0-194.944-158.080-353.024-353.024-353.024v-94.976c255.936 0 448 200.576 448 448s-200.512 448-448 448zM512 640v-256h256v64h-192v192z" />
<glyph unicode="&#xe093;" d="M382.72 258.688l-92.48 92.416-96-96-68.736 68.8 96 96-90.688 90.688 69.44 69.44 90.688-90.688 87.808 87.744 68.8-68.736-87.808-87.744 92.352-92.48-69.376-69.44zM287.936 704c-159.040-0.064-287.936-129.024-287.936-287.936 0-159.232 128.832-288 288-288.128 158.976 0 287.936 128.896 288 288 0 159.104-129.024 288.128-288.064 288.064z" horiz-adv-x="576" />
<glyph unicode="&#xe097;" d="M512 960c-282.752 0-512-229.248-512-512 0-282.816 229.248-512 512-512s512 229.184 512 512c0 282.752-229.248 512-512 512zM640 192h-256l76.352 267.072c-44.864 19.904-76.352 64.704-76.352 116.928 0 70.656 57.344 128 128 128 70.72 0 128-57.344 128-128 0-52.224-31.36-97.024-76.224-116.928l76.224-267.072z" />
<glyph unicode="&#xe098;" d="M448 896c-247.488 0-448-200.576-448-448 0-247.616 200.512-448 448-448s448 200.384 448 448c0 247.424-200.512 448-448 448zM662.016 316.672l-79.232-79.104-128.384 128.384-128.384-128.384-79.232 79.104 128.384 128.448-128.448 128.448 79.232 79.168 128.448-128.384 128.384 128.32 79.232-79.168-128.384-128.32 128.384-128.512z" horiz-adv-x="896" />
<glyph unicode="&#xe09b;" d="M192 95.936c0-17.6 9.216-31.936 26.816-31.936h64c17.6 0 37.184 14.336 37.184 31.936v224.064h-128v-224.064zM960 703.936v141.248l-119.936 114.816h-392.064v-256h-192v95.936c0 17.536-19.584 32.064-37.184 32.064h-64c-17.6 0-26.816-14.528-26.816-32.064v-95.936h-69.184c-35.136 0-58.816-28.864-58.816-64.064v-576c0-35.2 26.24-63.936 61.376-63.936 0-35.2 26.304-64 61.44-64h256c35.264 0 64 0 64 64h512c35.264 0 69.184 28.736 69.184 63.936v576c0 35.2-64 64-64 64zM384 63.936c0-35.2-33.92-63.936-69.184-63.936h-128c-35.136 0-58.816 28.736-58.816 63.936v512c0 35.2 23.68 64.064 58.816 64.064h128c35.264 0 69.184-28.864 69.184-64.064v-512zM640 64h-64v64h64v-64zM640 192h-64v64h64v-64zM640 320h-64v64h64v-64zM768 64h-64v64h64v-64zM768 192h-64v64h64v-64zM768 320h-64v64h64v-64zM896 64h-64v64h64v-64zM896 192h-64v64h64v-64zM896 320h-64v64h64v-64zM896 512h-384v384h301.568l82.432-77.312v-306.688zM576 640h256v-64h-256zM576 768h256v-64h-256z" />
<glyph unicode="&#xe09c;" d="M713.536 768h-137.536v192h-256v-192h-118.464l256-320zM896 64v576h-118.464l-64-64h118.464v-384h-768v384h137.536l-64 64h-137.536v-576h320v-64h-128v-64h512v64h-128v64z" horiz-adv-x="896" />
<glyph unicode="&#xe09d;" d="M895.616 604.416l0.384 3.584c0 159.040-128.96 288-288 288-106.88 0-199.104-58.88-248.832-145.344-21.568 10.688-45.44 17.344-71.168 17.344-88.384 0-160-71.616-160-160l0.384-3.584c-76.288-44.416-128.384-126.208-128.384-220.416 0-140.8 115.2-256 256-256h64v64h-64c-105.856 0-192 86.144-192 192 0 67.136 36.992 130.368 96.64 165.12l31.744 18.56v36.736l-0.32 6.72c1.6 51.52 44.032 92.864 95.936 92.864 14.144 0 28.416-3.648 42.56-10.624l54.080-27.008 30.080 52.352c40.704 70.912 112.96 113.28 193.28 113.28 122.24 0 221.888-98.368 224-220.096l-0.384-2.368v-41.856l31.744-18.56c59.648-34.752 96.64-97.984 96.64-165.12 0-105.856-86.144-192-192-192h-64v-64h64c140.8 0 256 115.2 256 256 0 94.208-52.096 176-128.384 220.416zM512 576l-192-256h128v-320h128v320h128z" />
<glyph unicode="&#xe09e;" d="M576 576h-128v-320h-128l192-256 192 256h-128zM895.616 604.416l0.384 3.584c0 159.040-128.896 288-288 288-106.88 0-199.104-58.88-248.768-145.344-21.632 10.688-45.504 17.344-71.232 17.344-88.384 0-160-71.616-160-160l0.384-3.584c-76.288-44.416-128.384-126.208-128.384-220.416 0-140.8 128-256 256-256v64c-128 0-192 86.144-192 192 0 67.136 36.8 130.368 96.448 165.12l31.552 18.56v36.736l-0.128 6.72c1.6 51.52 44.16 92.864 96.064 92.864 14.144 0 28.416-3.648 42.56-10.624l54.144-27.008 30.080 52.352c40.768 70.912 113.024 113.28 193.28 113.28 122.24 0 222.080-98.368 224.192-220.096l-0.192-2.432v-41.792l31.552-18.56c59.648-34.752 96.576-97.984 96.576-165.12 0-105.856-64.128-192-192.128-192v-64c128 0 256 115.2 256 256 0 94.208-52.096 176-128.384 220.416z" />
<glyph unicode="&#xe0a0;" d="M704 668.928l-99.072 99.008-220.928-220.928-220.992 220.992-99.008-99.008 221.056-220.992-221.056-220.992 99.008-99.008 220.992 220.992 220.928-220.928 99.072 99.008-220.928 220.928z" horiz-adv-x="768" />
<glyph unicode="&#xe600;" d="M1002.688 82.688l-125.44 128c52.224 76.8 82.752 169.472 82.752 269.312 0 265.152-214.848 480-480 480s-480-216.192-480-481.344 214.848-478.656 480-478.656c99.904 0 192.512 30.528 269.248 82.688l128.128-128.064c24.896-24.832 65.6-24.832 90.496 0l34.816 37.568c24.896 24.896 24.896 65.6 0 90.496zM784.256 303.744c-30.848-52.992-75.008-97.152-128-128-52.032-30.144-112-47.744-176.256-47.744-194.112 0-352 157.888-352 352 0 194.048 157.888 352 352 352s352-157.952 352-352c0-64.256-17.6-124.352-47.744-176.256zM566.080 334.272l-0.768 68.288c0 0 26.752 20.48 35.008 84.736 16.768-4.864 34.24 24.832 35.136 40.512 1.024 15.040-2.368 56.96-22.656 52.672 4.224 31.488 7.104 59.84 5.632 74.816-4.608 47.552-45.76 97.216-110.72 109.632-7.872 0.896-15.616 11.52-23.744 11.712-2.24 0.064-4.352 9.92-6.656 9.92h-1.088c-11.52 0-22.4-10.688-32.768-12.736-64.256-12.8-105.024-66.624-109.632-113.856-1.344-15.040 1.664-45.632 5.632-77.184-20.224 4.288-23.488-38.784-22.592-53.76 0.96-15.68 18.368-46.016 35.136-41.152 8.256-64.256 35.008-85.056 35.008-85.056l-0.64-68.416c0 0-17.024-10.368-88-40-9.856-4.096-19.776-8.064-29.504-11.904 52.48-55.424 126.208-90.496 208.448-90.496 81.856 0 155.52 34.752 208 89.792-10.368 4.032-20.736 8.192-31.232 12.48-71.104 29.696-88 40-88 40z" />
<glyph unicode="&#xe601;" d="M1024 352l-192 192v288h-128v-160l-192 192-512-512v-32h128v-320h320v192h128v-192h320v320h128z" />
<glyph unicode="&#xe602;" d="M361.792 320h876.416c23.040 0 41.792 18.816 41.792 41.792v170.624c0 23.104-18.752 43.584-41.792 43.584h-876.416c-23.040 0-41.792-20.48-41.792-43.584v-20.416h-86.208c-23.040 0-41.792 17.344-41.792 40.448v151.552h662.208c23.040 0 41.792 18.752 41.792 41.728v172.544c0 22.976-18.752 41.728-41.792 41.728h-812.416c-23.040 0-41.792-18.752-41.792-41.728v-172.48c0-23.040 18.752-41.792 41.792-41.792h86.208v-559.040c0-46.080 40.64-80.96 86.656-80.96h105.344v-86.272c0-22.976 18.752-41.728 41.792-41.728h876.416c23.040 0 41.792 18.752 41.792 41.728v168.96c0 22.976-10.752 45.312-33.792 45.312h-884.416c-23.040 0-41.792-19.264-41.792-42.24v-21.76h-86.208c-23.040 0-41.792 18.688-41.792 41.728v278.272h128v-86.208c0-22.976 18.752-41.792 41.792-41.792z" horiz-adv-x="1280" />
<glyph unicode="&#xe603;" d="M512 896c282.77 0 512-229.23 512-512 0-192.792-106.576-360.666-264.008-448h-495.984c-157.432 87.334-264.008 255.208-264.008 448 0 282.77 229.23 512 512 512zM801.914 94.086c77.438 77.44 120.086 180.398 120.086 289.914h-90v64h85.038c-7.014 44.998-21.39 88.146-42.564 128h-106.474v64h64.284c-9.438 11.762-19.552 23.096-30.37 33.914-46.222 46.22-101.54 80.038-161.914 99.798v-69.712h-64v85.040c-20.982 3.268-42.36 4.96-64 4.96s-43.018-1.69-64-4.96v-85.040h-64v69.712c-60.372-19.76-115.692-53.576-161.914-99.798-10.818-10.818-20.932-22.152-30.37-33.914h64.284v-64h-106.476c-21.174-39.854-35.552-83.002-42.564-128h85.040v-64h-90c0-109.516 42.648-212.474 120.086-289.914 10.71-10.71 21.924-20.728 33.56-30.086h192.354l36.572 512h54.856l36.572-512h192.354c11.636 9.358 22.852 19.378 33.56 30.086z" />
<glyph unicode="&#xe604;" d="M575.87-64h-191.87v512h-128v176.45l128 0.058-0.208 103.952c0 143.952 39.034 231.54 208.598 231.54h141.176v-176.484h-88.23c-66.032 0-69.206-24.656-69.206-70.684l-0.262-88.324h158.69l-18.704-176.45-139.854-0.058-0.13-512z" />
<glyph unicode="&#xe605;" d="M1024 765.582c-37.676-16.708-78.164-28.002-120.66-33.080 43.372 26 76.686 67.17 92.372 116.23-40.596-24.078-85.556-41.56-133.41-50.98-38.32 40.83-92.922 66.34-153.346 66.34-116.022 0-210.088-94.058-210.088-210.078 0-16.466 1.858-32.5 5.44-47.878-174.6 8.764-329.402 92.4-433.018 219.506-18.084-31.028-28.446-67.116-28.446-105.618 0-72.888 37.088-137.192 93.46-174.866-34.438 1.092-66.832 10.542-95.154 26.278-0.020-0.876-0.020-1.756-0.020-2.642 0-101.788 72.418-186.696 168.522-206-17.626-4.8-36.188-7.372-55.348-7.372-13.538 0-26.698 1.32-39.528 3.772 26.736-83.46 104.32-144.206 196.252-145.896-71.9-56.35-162.486-89.934-260.916-89.934-16.958 0-33.68 0.994-50.116 2.94 92.972-59.61 203.402-94.394 322.042-94.394 386.422 0 597.736 320.124 597.736 597.744 0 9.108-0.206 18.168-0.61 27.18 41.056 29.62 76.672 66.62 104.836 108.748z" />
<glyph unicode="&#xe606;" d="M384 832c0 70.692 57.308 128 128 128s128-57.308 128-128c0-70.692-57.308-128-128-128-70.692 0-128 57.308-128 128zM655.53 719.53c0 70.692 57.308 128 128 128s128-57.308 128-128c0-70.692-57.308-128-128-128-70.692 0-128 57.308-128 128zM832 448c0 35.346 28.654 64 64 64s64-28.654 64-64c0-35.346-28.654-64-64-64-35.346 0-64 28.654-64 64zM719.53 176.47c0 35.346 28.654 64 64 64s64-28.654 64-64c0-35.346-28.654-64-64-64-35.346 0-64 28.654-64 64zM448.002 64c0 0 0 0 0 0 0 35.346 28.654 64 64 64 35.346 0 64-28.654 64-64 0 0 0 0 0 0 0-35.346-28.654-64-64-64-35.346 0-64 28.654-64 64zM176.472 176.47c0 0 0 0 0 0 0 35.346 28.654 64 64 64 35.346 0 64-28.654 64-64 0 0 0 0 0 0 0-35.346-28.654-64-64-64-35.346 0-64 28.654-64 64zM144.472 719.53c0 0 0 0 0 0 0 53.019 42.981 96 96 96 53.019 0 96-42.981 96-96 0 0 0 0 0 0 0-53.019-42.981-96-96-96-53.019 0-96 42.981-96 96zM56 448c0 39.765 32.235 72 72 72s72-32.235 72-72c0-39.765-32.235-72-72-72-39.765 0-72 32.235-72 72z" />
<glyph unicode="&#xe607;" d="M1024 448c-1.278 66.862-15.784 133.516-42.576 194.462-26.704 61-65.462 116.258-113.042 161.92-47.552 45.696-103.944 81.82-164.984 105.652-61.004 23.924-126.596 35.352-191.398 33.966-64.81-1.282-129.332-15.374-188.334-41.356-59.048-25.896-112.542-63.47-156.734-109.576-44.224-46.082-79.16-100.708-102.186-159.798-23.114-59.062-34.128-122.52-32.746-185.27 1.286-62.76 14.964-125.148 40.134-182.206 25.088-57.1 61.476-108.828 106.11-151.548 44.61-42.754 97.472-76.504 154.614-98.72 57.118-22.304 118.446-32.902 179.142-31.526 60.708 1.29 120.962 14.554 176.076 38.914 55.15 24.282 105.116 59.48 146.366 102.644 41.282 43.14 73.844 94.236 95.254 149.43 13.034 33.458 21.88 68.4 26.542 103.798 1.246-0.072 2.498-0.12 3.762-0.12 35.346 0 64 28.652 64 64 0 1.796-0.094 3.572-0.238 5.332h0.238zM922.306 278.052c-23.472-53.202-57.484-101.4-99.178-141.18-41.67-39.81-91-71.186-144.244-91.79-53.228-20.678-110.29-30.452-166.884-29.082-56.604 1.298-112.596 13.736-163.82 36.474-51.25 22.666-97.684 55.49-135.994 95.712-38.338 40.198-68.528 87.764-88.322 139.058-19.87 51.284-29.228 106.214-27.864 160.756 1.302 54.552 13.328 108.412 35.254 157.69 21.858 49.3 53.498 93.97 92.246 130.81 38.73 36.868 84.53 65.87 133.874 84.856 49.338 19.060 102.136 28.006 154.626 26.644 52.5-1.306 104.228-12.918 151.562-34.034 47.352-21.050 90.256-51.502 125.624-88.782 35.396-37.258 63.21-81.294 81.39-128.688 18.248-47.392 26.782-98.058 25.424-148.496h0.238c-0.144-1.76-0.238-3.536-0.238-5.332 0-33.012 24.992-60.174 57.086-63.624-6.224-34.822-16.53-68.818-30.78-100.992z" />
<glyph unicode="&#xe608;" d="M512 960c-278.748 0-505.458-222.762-511.848-499.974 5.92 241.864 189.832 435.974 415.848 435.974 229.75 0 416-200.576 416-448 0-53.020 42.98-96 96-96 53.020 0 96 42.98 96 96 0 282.77-229.23 512-512 512zM512-64c278.748 0 505.458 222.762 511.848 499.974-5.92-241.864-189.832-435.974-415.848-435.974-229.75 0-416 200.576-416 448 0 53.020-42.98 96-96 96-53.020 0-96-42.98-96-96 0-282.77 229.23-512 512-512z" />
<glyph unicode="&#xe609;" d="M992.262 88.604l-242.552 206.294c-25.074 22.566-51.89 32.926-73.552 31.926 57.256 67.068 91.842 154.078 91.842 249.176 0 212.078-171.922 384-384 384-212.076 0-384-171.922-384-384 0-212.078 171.922-384 384-384 95.098 0 182.108 34.586 249.176 91.844-1-21.662 9.36-48.478 31.926-73.552l206.294-242.552c35.322-39.246 93.022-42.554 128.22-7.356s31.892 92.898-7.354 128.22zM384 320c-141.384 0-256 114.616-256 256s114.616 256 256 256 256-114.616 256-256-114.614-256-256-256z" />
<glyph unicode="&#xe60a;" d="M992.262 88.604l-242.552 206.294c-25.074 22.566-51.89 32.926-73.552 31.926 57.256 67.068 91.842 154.078 91.842 249.176 0 212.078-171.922 384-384 384-212.076 0-384-171.922-384-384 0-212.078 171.922-384 384-384 95.098 0 182.108 34.586 249.176 91.844-1-21.662 9.36-48.478 31.926-73.552l206.294-242.552c35.322-39.246 93.022-42.554 128.22-7.356s31.892 92.898-7.354 128.22zM384 320c-141.384 0-256 114.616-256 256s114.616 256 256 256 256-114.616 256-256-114.614-256-256-256zM448 768h-128v-128h-128v-128h128v-128h128v128h128v128h-128z" />
<glyph unicode="&#xe60b;" d="M992.262 88.604l-242.552 206.294c-25.074 22.566-51.89 32.926-73.552 31.926 57.256 67.068 91.842 154.078 91.842 249.176 0 212.078-171.922 384-384 384-212.076 0-384-171.922-384-384 0-212.078 171.922-384 384-384 95.098 0 182.108 34.586 249.176 91.844-1-21.662 9.36-48.478 31.926-73.552l206.294-242.552c35.322-39.246 93.022-42.554 128.22-7.356s31.892 92.898-7.354 128.22zM384 320c-141.384 0-256 114.616-256 256s114.616 256 256 256 256-114.616 256-256-114.614-256-256-256zM192 640h384v-128h-384z" />
<glyph unicode="&#xe60c;" d="M320 576h128v-128h-128zM512 576h128v-128h-128zM704 576h128v-128h-128zM128 192h128v-128h-128zM320 192h128v-128h-128zM512 192h128v-128h-128zM320 384h128v-128h-128zM512 384h128v-128h-128zM704 384h128v-128h-128zM128 384h128v-128h-128zM832 960v-64h-128v64h-448v-64h-128v64h-128v-1024h960v1024h-128zM896 0h-832v704h832v-704z" horiz-adv-x="960" />
<glyph unicode="&#xe60d;" d="M1024 530.744c0 200.926-58.792 363.938-131.482 365.226 0.292 0.006 0.578 0.030 0.872 0.030h-82.942c0 0-194.8-146.336-475.23-203.754-8.56-45.292-14.030-99.274-14.030-161.502 0-62.228 5.466-116.208 14.030-161.5 280.428-57.418 475.23-203.756 475.23-203.756h82.942c-0.292 0-0.578 0.024-0.872 0.032 72.696 1.288 131.482 164.298 131.482 365.224zM864.824 220.748c-9.382 0-19.532 9.742-24.746 15.548-12.63 14.064-24.792 35.96-35.188 63.328-23.256 61.232-36.066 143.31-36.066 231.124 0 87.81 12.81 169.89 36.066 231.122 10.394 27.368 22.562 49.266 35.188 63.328 5.214 5.812 15.364 15.552 24.746 15.552 9.38 0 19.536-9.744 24.744-15.552 12.634-14.064 24.796-35.958 35.188-63.328 23.258-61.23 36.068-143.312 36.068-231.122 0-87.804-12.81-169.888-36.068-231.124-10.39-27.368-22.562-49.264-35.188-63.328-5.208-5.806-15.36-15.548-24.744-15.548zM251.812 530.744c0 51.95 3.81 102.43 11.052 149.094-47.372-6.554-88.942-10.324-140.34-10.324-67.058 0-67.058 0-67.058 0l-55.466-94.686v-88.17l55.46-94.686c0 0 0 0 67.060 0 51.398 0 92.968-3.774 140.34-10.324-7.236 46.664-11.048 97.146-11.048 149.096zM368.15 317.828l-127.998 24.51 81.842-321.544c4.236-16.634 20.744-25.038 36.686-18.654l118.556 47.452c15.944 6.376 22.328 23.964 14.196 39.084l-123.282 229.152zM864.824 411.27c-3.618 0-7.528 3.754-9.538 5.992-4.87 5.42-9.556 13.86-13.562 24.408-8.962 23.6-13.9 55.234-13.9 89.078 0 33.844 4.938 65.478 13.9 89.078 4.006 10.548 8.696 18.988 13.562 24.408 2.010 2.24 5.92 5.994 9.538 5.994 3.616 0 7.53-3.756 9.538-5.994 4.87-5.42 9.556-13.858 13.56-24.408 8.964-23.598 13.902-55.234 13.902-89.078 0-33.842-4.938-65.478-13.902-89.078-4.004-10.548-8.696-18.988-13.56-24.408-2.008-2.238-5.92-5.992-9.538-5.992z" />
<glyph unicode="&#xe60e;" d="M136.294 209.070c-75.196 0-136.292-61.334-136.292-136.076 0-75.154 61.1-135.802 136.292-135.802 75.466 0 136.494 60.648 136.494 135.802-0.002 74.742-61.024 136.076-136.494 136.076zM0.156 612.070v-196.258c127.784 0 247.958-49.972 338.458-140.512 90.384-90.318 140.282-211.036 140.282-339.3h197.122c-0.002 372.82-303.282 676.070-675.862 676.070zM0.388 960v-196.356c455.782 0 826.756-371.334 826.756-827.644h196.856c0 564.47-459.254 1024-1023.612 1024z" />
<glyph unicode="&#xe60f;" d="M512 960c-282.77 0-512-229.23-512-512s229.23-512 512-512 512 229.23 512 512-229.23 512-512 512zM320 448c0 106.040 85.96 192 192 192s192-85.96 192-192-85.96-192-192-192-192 85.96-192 192zM925.98 276.524v0l-177.42 73.49c12.518 30.184 19.44 63.276 19.44 97.986s-6.922 67.802-19.44 97.986l177.42 73.49c21.908-52.822 34.020-110.73 34.020-171.476s-12.114-118.654-34.020-171.476v0zM683.478 861.98v0 0l-73.49-177.42c-30.184 12.518-63.276 19.44-97.988 19.44s-67.802-6.922-97.986-19.44l-73.49 177.422c52.822 21.904 110.732 34.018 171.476 34.018 60.746 0 118.654-12.114 171.478-34.020zM98.020 619.476l177.422-73.49c-12.518-30.184-19.442-63.276-19.442-97.986s6.922-67.802 19.44-97.986l-177.42-73.49c-21.906 52.822-34.020 110.73-34.020 171.476s12.114 118.654 34.020 171.476zM340.524 34.020l73.49 177.42c30.184-12.518 63.276-19.44 97.986-19.44s67.802 6.922 97.986 19.44l73.49-177.42c-52.822-21.904-110.73-34.020-171.476-34.020-60.744 0-118.654 12.114-171.476 34.020z" />
<glyph unicode="&#xe610;" d="M832 832h-640c-105.6 0-192-86.4-192-192v-384c0-105.6 86.4-192 192-192h640c105.6 0 192 86.4 192 192v384c0 105.6-86.4 192-192 192zM384 192v512l320-256-320-256z" />
<glyph unicode="&#xe611;" d="M898.496 960l67.244-571.56-75.48-8.88-60.052 510.44h-636.416l-60.052-510.44-75.48 8.88 67.242 571.56zM256 832h512v-64h-512zM256 704h512v-64h-512zM256 576h512v-64h-512zM256 448h512v-64h-512zM992 320h-960c-17.6 0-27.446-13.66-21.88-30.358l107.76-323.284c5.566-16.698 24.52-30.358 42.12-30.358h704c17.6 0 36.552 13.66 42.12 30.358l107.762 323.286c5.566 16.696-4.282 30.356-21.882 30.356zM640 192h-256v64h256v-64z" />
<glyph unicode="&#xe612;" d="M832 896h-640l-192-192v-672c0-17.674 14.326-32 32-32h960c17.672 0 32 14.326 32 32v672l-192 192zM512 128l-320 256h192v192h256v-192h192l-320-256zM154.51 768l64 64h586.978l64-64h-714.978z" />
<glyph unicode="&#xe613;" d="M832 896h-640l-192-192v-672c0-17.674 14.326-32 32-32h960c17.672 0 32 14.326 32 32v672l-192 192zM640 320v-192h-256v192h-192l320 256 320-256h-192zM154.51 768l64 64h586.976l64-64h-714.976z" />
<glyph unicode="&#xe614;" d="M512 832c-247.424 0-448-200.576-448-448s200.576-448 448-448 448 200.576 448 448-200.576 448-448 448zM512 24c-198.824 0-360 161.178-360 360 0 198.824 161.176 360 360 360 198.822 0 360-161.176 360-360 0-198.822-161.178-360-360-360zM934.784 672.826c16.042 28.052 25.216 60.542 25.216 95.174 0 106.040-85.96 192-192 192-61.818 0-116.802-29.222-151.92-74.596 131.884-27.236 245.206-105.198 318.704-212.578zM407.92 885.404c-35.116 45.374-90.102 74.596-151.92 74.596-106.040 0-192-85.96-192-192 0-34.632 9.174-67.122 25.216-95.174 73.5 107.38 186.822 185.342 318.704 212.578zM448 640h64v-320h-64v320zM512 384h192v-64h-192v64z" />
<glyph unicode="&#xe615;" d="M832 0l192 512h-832l-192-512zM128 576l-128-576v832h288l128-128h416v-128z" />
<glyph unicode="&#xe616;" d="M927.812 960h-288.562c-52.906 0-126.796-30.606-164.204-68.014l-446.99-446.99c-37.408-37.408-37.408-98.624 0-136.032l344.91-344.906c37.408-37.41 98.622-37.41 136.030 0l446.99 446.988c37.408 37.41 68.014 111.302 68.014 164.204v288.562c0 52.904-43.286 96.188-96.188 96.188zM800 640c-53.020 0-96 42.98-96 96s42.98 96 96 96 96-42.98 96-96-42.98-96-96-96z" />
<glyph unicode="&#xe617;" d="M992 896h-224c-52.8 0-126.546-30.546-163.882-67.882l-376.236-376.236c-37.334-37.334-37.334-98.428 0-135.764l280.236-280.234c37.334-37.336 98.428-37.336 135.764 0l376.234 376.234c37.338 37.336 67.884 111.082 67.884 163.882v224c0 52.8-43.2 96-96 96zM864 576c-53.020 0-96 42.98-96 96s42.98 96 96 96 96-42.98 96-96-42.98-96-96-96zM86.626 361.374l342.378-342.378c-36.264-19.16-82.462-13.538-112.886 16.888l-280.236 280.234c-37.334 37.336-37.334 98.43 0 135.764l376.236 376.236c37.336 37.336 111.082 67.882 163.882 67.882l-489.374-489.372c-12.444-12.446-12.444-32.808 0-45.254z" horiz-adv-x="1088" />
<glyph unicode="&#xe618;" d="M414.432 64.736c-0.8-0.8-1.632-1.632-2.4-2.432-80.256-76.768-207.904-78.272-285.312-3.072-82.112 77.28-83.744 189.216 1.408 275.328 0.672 0.672 1.216 1.376 1.888 2.048 0.8 0.736 1.568 1.536 2.336 2.272l532.96 518.016c48.832 46.464 126.272 47.296 173.248 1.632 28.256-40.256 46.048-121.248-1.568-168.352l-4.384-4.288-50.016-48.544-45.888-44.64-432.032-419.36-1.216 1.504-1.12-1.248-2.208-2.432c-0.192-0.128-0.416-0.256-0.576-0.448-17.856-16.128-45.408-16.256-62.272 0.128-16.704 16.256-16.672 40.064-0.032 57.792 0.544 0.512 0.864 1.12 1.408 1.632l403.168 391.776-48.544 47.072-354.72-344.736-43.072-47.008v-0.064c-0.128-0.128-0.256-0.192-0.416-0.384-0.384-0.384-0.704-0.736-1.088-1.152-44.256-44.192-50.368-108.416-6.72-150.88 43.68-42.4 115.264-39.040 160.704 4l0.064-0.064 0.896 0.928c0.096 0.064 0.192 0.128 0.256 0.192 0.096 0.064 0.16 0.192 0.224 0.256l481.664 460.032 49.952 48.608 4.448 4.256-0.064 0.064c75.392 74.336 39.584 213.568 3.136 263.936-74.176 72.064-196.288 70.304-272.736-4.032-1.12-1.056-2.048-2.24-3.136-3.36l-0.128 0.096-528.64-513.856c-0.416-0.448-0.864-0.736-1.312-1.184-0.736-0.672-1.408-1.568-2.144-2.304l-0.768-0.736 0.032-0.064c-104.864-105.024-106.592-270.176-2.944-371.008 104.672-101.728 277.056-99.168 384.96 5.696 0.448 0.448 0.768 0.864 1.216 1.312l0.128-0.128 560.928 545.12-48.512 47.136-561.056-545.056z" />
<glyph unicode="&#xe619;" d="M839.322 663.584c77.644-55.030 141.37-129.092 184.678-215.584-95.122-189.958-288.686-320-512-320-62.566 0-122.792 10.212-179.178 29.084l77.956 77.956c33.058-7.3 66.972-11.040 101.222-11.040 89.558 0 176.854 25.486 252.446 73.704 60.162 38.376 111.144 89.776 149.436 150.298-37.052 58.566-86.014 108.55-143.65 146.494l69.090 69.088zM512 262c-22.724 0-44.752 2.976-65.728 8.534l313.186 313.184c5.562-20.972 8.542-42.994 8.542-65.718 0-141.384-114.616-256-256-256zM960 960h-53.738l-219.612-219.612c-55.076 17.924-113.754 27.612-174.65 27.612-223.318 0-416.882-130.042-512-320 42.658-85.192 105.128-158.308 181.194-213.068l-181.194-181.194v-53.738h53.738l906.262 906.262v53.738zM416 646c48.044 0 87.846-35.294 94.892-81.37l-109.524-109.524c-46.074 7.048-81.368 46.85-81.368 94.894 0 53.020 42.98 96 96 96zM110.116 448c38.292 60.524 89.274 111.924 149.434 150.296 3.918 2.5 7.876 4.922 11.858 7.3-9.958-27.328-15.408-56.822-15.408-87.596 0-58.524 19.65-112.448 52.698-155.562l-58.55-58.55c-56.072 37.642-103.754 86.772-140.032 144.112z" />
<glyph unicode="&#xe61a;" d="M512 768c-223.318 0-416.882-130.042-512-320 95.118-189.958 288.682-320 512-320 223.314 0 416.878 130.042 512 320-95.116 189.958-288.686 320-512 320zM764.45 598.296c60.162-38.374 111.142-89.774 149.434-150.296-38.292-60.522-89.274-111.922-149.436-150.298-75.594-48.216-162.89-73.702-252.448-73.702-89.56 0-176.856 25.486-252.45 73.704-60.16 38.372-111.14 89.772-149.434 150.296 38.292 60.524 89.274 111.924 149.434 150.296 3.918 2.5 7.876 4.922 11.858 7.3-9.958-27.328-15.408-56.822-15.408-87.596 0-141.384 114.616-256 256-256s256 114.616 256 256c0 30.774-5.45 60.268-15.408 87.598 3.98-2.378 7.938-4.802 11.858-7.302zM512 550c0-53.020-42.98-96-96-96s-96 42.98-96 96 42.98 96 96 96 96-42.98 96-96z" />
<glyph unicode="&#xe61b;" d="M448 165.49l-205.254 237.254 58.508 58.51 146.746-114.744 274.744 242.744 58.512-58.508zM831.772 832c0.078-0.066 0.162-0.15 0.228-0.23v-767.542c-0.066-0.078-0.15-0.162-0.228-0.228h-639.544c-0.080 0.066-0.162 0.15-0.228 0.228v767.544c0.066 0.080 0.15 0.162 0.23 0.228h-128.23v-768c0-70.4 57.6-128 128-128h640c70.4 0 128 57.6 128 128v768h-128.228zM640 832v64c0 35.346-28.654 64-64 64h-128c-35.346 0-64-28.654-64-64v-64h-128v-128h512v128h-128zM576 832h-128v64h128v-64z" />
<glyph unicode="&#xe61c;" d="M0 651.63l41.594-54.544c0 0 85.77 67.608 114.36 33.802 28.588-33.802 137.736-441.956 174.17-517.246 31.8-66.030 119.518-153.32 215.714-90.982 96.136 62.34 415.84 335.286 473.066 657.616 57.18 322.226-384.72 254.726-431.53-26.010 116.99 70.236 179.436-28.538 119.57-140.372-59.758-111.724-114.36-184.592-142.952-184.592-28.538 0-50.49 74.768-83.188 205.446-33.798 135.102-33.592 378.46-174.116 350.87-132.518-26.012-306.688-233.988-306.688-233.988z" />
<glyph unicode="&#xe61d;" d="M800 544c-70.58 0-128-57.42-128-128s57.42-128 128-128c70.58 0 128 57.42 128 128 0 70.58-57.42 128-128 128zM800 640v0c123.71 0 224-100.288 224-224 0-123.71-100.29-224-224-224-123.71 0-224 100.29-224 224 0 123.712 100.29 224 224 224zM0 416c0 123.712 100.288 224 224 224s224-100.288 224-224c0-123.712-100.288-224-224-224-123.712 0-224 100.288-224 224z" />
<glyph unicode="&#xe61e;" d="M975.31 382.062c2.812 20.8 4.43 41.946 4.43 63.472 0 258.31-210.542 467.744-470.206 467.744-25.808 0-51.11-2.12-75.732-6.16-44.144 28.768-96.684 45.534-153.224 45.534-155.046 0-280.578-125.616-280.578-280.612 0-56.396 16.598-108.788 45.18-152.778-3.85-24.034-5.818-48.646-5.818-73.718 0-258.352 210.434-467.764 470.17-467.764 29.314 0 57.854 2.854 85.592 7.866 43.1-26.738 93.868-42.296 148.292-42.296 155.004-0.002 280.584 125.646 280.584 280.626-0.006 58.586-17.92 113.056-48.69 158.086zM553.48 100.808c-149.41-7.784-219.328 25.274-283.378 85.382-71.53 67.134-42.796 143.708 15.48 147.602 58.244 3.888 93.214-66.026 124.3-85.472 31.048-19.376 149.188-63.52 211.588 7.816 67.952 77.656-45.188 117.84-128.118 130.004-118.406 17.532-267.9 81.584-256.27 207.814 11.632 126.148 107.164 190.828 207.7 199.952 128.154 11.634 211.582-19.414 277.57-75.72 76.3-65.058 35.016-137.788-13.598-143.64-48.424-5.818-102.808 107.008-209.582 108.704-110.054 1.728-184.434-114.522-48.572-147.568 135.932-33.010 281.5-46.572 333.922-170.834 52.458-124.274-81.508-256.25-231.042-264.040z" />
<glyph unicode="&#xe61f;" d="M852 960h-680c-94.6 0-172-77.4-172-172v-680c0-94.6 77.4-172 172-172h680c94.6 0 172 77.4 172 172v680c0 94.6-77.4 172-172 172zM384 128h-128v448h128v-448zM320 640c-35.346 0-64 28.654-64 64s28.654 64 64 64 64-28.654 64-64-28.654-64-64-64zM832 128h-128v256c0 35.346-28.654 64-64 64s-64-28.654-64-64v-256h-128v448h128v-79.472c26.398 36.264 66.752 79.472 112 79.472 79.53 0 144-71.634 144-160v-288z" />
<glyph unicode="&#xe620;" d="M864 256c-45.16 0-85.92-18.738-115.012-48.83l-431.004 215.502c1.314 8.252 2.016 16.706 2.016 25.328s-0.702 17.076-2.016 25.326l431.004 215.502c29.092-30.090 69.852-48.828 115.012-48.828 88.366 0 160 71.634 160 160s-71.634 160-160 160-160-71.634-160-160c0-8.622 0.704-17.076 2.016-25.326l-431.004-215.504c-29.092 30.090-69.852 48.83-115.012 48.83-88.366 0-160-71.636-160-160 0-88.368 71.634-160 160-160 45.16 0 85.92 18.738 115.012 48.828l431.004-215.502c-1.312-8.25-2.016-16.704-2.016-25.326 0-88.368 71.634-160 160-160s160 71.632 160 160c0 88.364-71.634 160-160 160z" />
<glyph unicode="&#xe621;" d="M512 383l-449 449h898zM7 99q-7 14-7 29v640q0 15 7 29l350-349zM473 331q6-5 15.5-8t16.5-3h7q26-1 39 11l71 72 339-339h-898l339 339zM1017 797q7-14 7-29v-640q0-15-7-29l-350 349z" />
<glyph unicode="&#xe622;" d="M768 704l-320-320-192 192-128-128 320-320 448 448-128 128z" />
<glyph unicode="&#xe623;" d="M64 960h256v-256h-256v256zM64 576h256v-256h-256v256zM64 192h256v-256h-256v256z" horiz-adv-x="384" />
<glyph unicode="&#xe624;" d="M32 448h384c17.664 0 32 14.336 32 32v448c0 17.664-14.336 32-32 32h-384c-17.664 0-32-14.336-32-32v-448c0-17.664 14.336-32 32-32zM992 960h-384c-17.664 0-32-14.336-32-32v-448c0-17.664 14.336-32 32-32h384c17.664 0 32 14.336 32 32v448c0 17.664-14.336 32-32 32zM992 320h-960c-17.664 0-32-14.336-32-32v-320c0-17.664 14.336-32 32-32h960c17.664 0 32 14.336 32 32v320c0 17.664-14.336 32-32 32z" />
<glyph unicode="&#xe625;" d="M704 960c-176.73 0-320-143.268-320-320 0-20.026 1.858-39.616 5.376-58.624l-389.376-389.376v-192c0-35.346 28.654-64 64-64h64v64h128v128h128v128h128l83.042 83.042c34.010-12.316 70.696-19.042 108.958-19.042 176.73 0 320 143.268 320 320s-143.27 320-320 320zM799.874 639.874c-53.020 0-96 42.98-96 96s42.98 96 96 96 96-42.98 96-96-42.98-96-96-96z" />
<glyph unicode="&#xe626;" d="M864 832l-480-480-224 224-160-160 384-384 640 640z" />
<glyph unicode="&#xe627;" d="M224 960h-192c-17.664 0-32-14.336-32-32v-192c0-17.664 14.336-32 32-32h192c17.664 0 32 14.336 32 32v192c0 17.664-14.336 32-32 32zM224 576h-192c-17.664 0-32-14.336-32-32v-192c0-17.664 14.336-32 32-32h192c17.664 0 32 14.336 32 32v192c0 17.664-14.336 32-32 32zM224 192h-192c-17.664 0-32-14.336-32-32v-192c0-17.664 14.336-32 32-32h192c17.664 0 32 14.336 32 32v192c0 17.664-14.336 32-32 32zM992 960h-576c-17.664 0-32-14.336-32-32v-192c0-17.664 14.336-32 32-32h576c17.664 0 32 14.336 32 32v192c0 17.664-14.336 32-32 32zM992 576h-576c-17.664 0-32-14.336-32-32v-192c0-17.664 14.336-32 32-32h576c17.664 0 32 14.336 32 32v192c0 17.664-14.336 32-32 32zM992 192h-576c-17.664 0-32-14.336-32-32v-192c0-17.664 14.336-32 32-32h576c17.664 0 32 14.336 32 32v192c0 17.664-14.336 32-32 32z" />
<glyph unicode="&#xe628;" d="M256 448c0 141.376 114.56 256 256 256 141.376 0 256-114.624 256-256s-114.624-256-256-256c-141.44 0-256 114.624-256 256z" />
<glyph unicode="&#xe629;" d="M704 406.4c0-12.608-9.792-22.4-22.4-22.4h-169.6v-169.6c0-12.608-9.792-22.4-22.4-22.4h-83.2c-12.608 0-22.4 9.792-22.4 22.4v169.6h-169.6c-12.608 0-22.4 9.792-22.4 22.4v83.2c0 12.608 9.792 22.4 22.4 22.4h169.6v169.6c0 12.608 9.792 22.4 22.4 22.4h83.2c12.608 0 22.4-9.792 22.4-22.4v-169.6h169.6c12.608 0 22.4-9.792 22.4-22.4v-83.2zM1408 320c0-70.976-57.024-128-128-128s-128 57.024-128 128 57.024 128 128 128 128-57.024 128-128zM1664 576c0-70.976-57.024-128-128-128s-128 57.024-128 128 57.024 128 128 128 128-57.024 128-128zM1920 448c0 283.008-228.992 512-512 512h-896c-283.008 0-512-228.992-512-512s228.992-512 512-512c130.048 0 248 49.024 337.984 128h220.032c89.984-78.976 208-128 337.984-128 283.008 0 512 228.992 512 512z" horiz-adv-x="1920" />
<glyph unicode="&#xe62a;" d="M874.468 806.4c-92.686 94.595-221.461 153.6-363.935 153.6-281.6 0-510.533-228.961-510.533-510.45 0-281.462 228.933-510.45 510.533-510.45 142.447 0 271.249 59.088 363.907 153.655 9.991 10.24 17.657 7.362 17.657-6.919v-123.959c0-14.281 11.568-25.904 25.877-25.904h77.104c14.225 0 25.904 11.624 25.904 25.904v972.246c0 14.308-11.679 25.877-25.904 25.877h-77.104c-14.308 0-25.877-11.568-25.877-25.877v-120.804c0-14.308-7.638-17.131-17.629-6.919M510.533 67.958c-210.529 0-381.648 171.229-381.648 381.592 0 210.446 171.119 381.62 381.648 381.62 210.363 0 381.565-171.202 381.565-381.62 0-210.363-171.202-381.592-381.565-381.592M1356.108 752.46c0-25.904-10.046-50.259-28.368-68.525-37.833-37.833-99.356-37.833-137.188 0-18.349 18.266-28.368 42.621-28.368 68.525 0 25.877 10.019 50.287 28.368 68.636 37.833 37.833 99.356 37.833 137.133 0 18.349-18.321 28.423-42.704 28.423-68.636M1356.108 448.028c0-25.932-10.046-50.259-28.368-68.58-37.833-37.777-99.356-37.777-137.188 0-18.349 18.321-28.368 42.676-28.368 68.58 0 25.877 10.019 50.231 28.368 68.636 37.833 37.777 99.356 37.777 137.133 0 18.349-18.377 28.423-42.704 28.423-68.636M1356.108 143.457c0-25.932-10.046-50.259-28.368-68.608-37.833-37.777-99.356-37.777-137.188 0-18.349 18.321-28.368 42.676-28.368 68.608 0 25.849 10.019 50.259 28.368 68.608 37.833 37.833 99.356 37.833 137.133 0 18.349-18.321 28.423-42.704 28.423-68.608" horiz-adv-x="1356" />
<glyph unicode="&#xe62b;" d="M896 960h-768c-70.4 0-128-57.6-128-128v-768c0-70.528 57.6-128 128-128h768c70.4 0 128 57.472 128 128v768c0 70.4-57.6 128-128 128zM640 510.016h-256v193.984h256v-193.984zM640 448v-192h-256v192h256zM64 704h256v-193.984h-256v193.984zM64 448h256v-192h-256v192zM128 0c-35.264 0-64 28.608-64 64v128h256v-192h-192zM384 0v192h256v-192h-256zM960 64c0-35.392-28.736-64-64-64h-192v192h256v-128zM960 256h-256v192h256v-192zM960 510.016h-256v193.984h256v-193.984z" />
<glyph unicode="&#xe62c;" d="M1014.662 137.34c-0.004 0.004-0.008 0.008-0.012 0.010l-310.644 310.65 310.644 310.65c0.004 0.004 0.008 0.006 0.012 0.010 3.344 3.346 5.762 7.254 7.312 11.416 4.246 11.376 1.824 24.682-7.324 33.83l-146.746 146.746c-9.148 9.146-22.45 11.566-33.828 7.32-4.16-1.55-8.070-3.968-11.418-7.31 0-0.004-0.004-0.006-0.008-0.010l-310.648-310.652-310.648 310.65c-0.004 0.004-0.006 0.006-0.010 0.010-3.346 3.342-7.254 5.76-11.414 7.31-11.38 4.248-24.682 1.826-33.83-7.32l-146.748-146.748c-9.148-9.148-11.568-22.452-7.322-33.828 1.552-4.16 3.97-8.072 7.312-11.416 0.004-0.002 0.006-0.006 0.010-0.010l310.65-310.648-310.65-310.652c-0.002-0.004-0.006-0.006-0.008-0.010-3.342-3.346-5.76-7.254-7.314-11.414-4.248-11.376-1.826-24.682 7.322-33.83l146.748-146.746c9.15-9.148 22.452-11.568 33.83-7.322 4.16 1.552 8.070 3.97 11.416 7.312 0.002 0.004 0.006 0.006 0.010 0.010l310.648 310.65 310.648-310.65c0.004-0.002 0.008-0.006 0.012-0.008 3.348-3.344 7.254-5.762 11.414-7.314 11.378-4.246 24.684-1.826 33.828 7.322l146.746 146.748c9.148 9.148 11.57 22.454 7.324 33.83-1.552 4.16-3.97 8.068-7.314 11.414z" />
<glyph unicode="&#xe62d;" d="M1009.996 131.024l-301.544 301.544c-18.668 18.668-49.214 18.668-67.882 0l-22.626-22.626-184 184 302.056 302.058h-320l-142.058-142.058-14.060 14.058h-67.882v-67.882l14.058-14.058-206.058-206.060 160-160 206.058 206.058 184-184-22.626-22.626c-18.668-18.668-18.668-49.214 0-67.882l301.544-301.544c18.668-18.668 49.214-18.668 67.882 0l113.136 113.136c18.67 18.666 18.67 49.214 0.002 67.882z" />
<glyph unicode="&#xe62e;" d="M256 768l-128 128h-64v-64l128-128zM320 960h64v-128h-64zM576 640h128v-64h-128zM640 832v64h-64l-128-128 64-64zM0 640h128v-64h-128zM320 384h64v-128h-64zM64 384v-64h64l128 128-64 64zM1010 78l-636.118 636.118c-18.668 18.668-49.214 18.668-67.882 0l-60.118-60.118c-18.668-18.668-18.668-49.214 0-67.882l636.118-636.118c18.668-18.668 49.214-18.668 67.882 0l60.118 60.118c18.668 18.668 18.668 49.214 0 67.882zM480 416l-192 192 64 64 192-192-64-64z" />
<glyph unicode="&#xe62f;" d="M1002.934 142.124l-460.552 394.76c21.448 40.298 33.618 86.282 33.618 135.116 0 159.058-128.942 288-288 288-29.094 0-57.172-4.332-83.646-12.354l166.39-166.39c24.89-24.89 24.89-65.62 0-90.51l-101.49-101.49c-24.89-24.89-65.62-24.89-90.51 0l-166.39 166.39c-8.022-26.474-12.354-54.552-12.354-83.646 0-159.058 128.942-288 288-288 48.834 0 94.818 12.17 135.116 33.62l394.76-460.552c22.908-26.724 62.016-28.226 86.904-3.338l101.492 101.492c24.888 24.888 23.386 63.994-3.338 86.902z" />
<glyph unicode="&#xe630;" d="M512 960c-282.77 0-512-229.23-512-512s229.23-512 512-512 512 229.23 512 512-229.23 512-512 512zM448 768h128v-128h-128v128zM640 128h-256v64h64v256h-64v64h192v-320h64v-64z" />
<glyph unicode="&#xe631;" d="M953.396 885.358l-4.028 4.042c-94.148 94.134-248.194 94.134-342.326 0l-218.106-218.136c-94.134-94.132-94.134-248.176 0-342.31l4.026-4.026c7.832-7.848 16.146-14.924 24.736-21.458l79.848 79.85c-9.302 5.494-18.126 12.072-26.116 20.060l-4.042 4.042c-51.114 51.098-51.114 134.272 0 185.39l218.128 218.112c51.116 51.118 134.274 51.118 185.386 0l4.042-4.024c51.1-51.116 51.1-134.292 0-185.39l-98.686-98.686c17.132-42.308 25.248-87.4 24.538-132.386l152.604 152.604c94.134 94.136 94.134 248.178-0.004 342.316zM631.042 571.066c-7.832 7.832-16.146 14.922-24.736 21.44l-79.848-79.832c9.304-5.496 18.126-12.074 26.116-20.062l4.042-4.040c51.116-51.116 51.116-134.272 0-185.388l-218.13-218.134c-51.118-51.102-134.276-51.102-185.388 0l-4.042 4.042c-51.098 51.12-51.098 134.276 0 185.388l98.688 98.686c-17.134 42.306-25.246 87.402-24.538 132.386l-152.602-152.598c-94.136-94.132-94.136-248.178 0-342.324l4.026-4.032c94.152-94.128 248.192-94.128 342.328 0l218.11 218.118c94.134 94.132 94.134 248.194 0 342.326l-4.026 4.024z" />
<glyph unicode="&#xe632;" d="M369.024 631.424c-2.816 6.144-3.904 12.992-4.736 19.968-32.32 7.552-64.128 12.736-95.168 15.936-2.624-56.128 1.728-113.728 14.336-172.928 18.496 36.224 38.656 72 62.208 106.304 7.488 10.816 15.616 20.48 23.36 30.72zM340.8 147.392c3.2 5.76 8.64 9.536 13.376 13.888-27.904 44.224-54.208 91.456-76.416 142.912-18.432-66.688-27.968-132.864-27.328-195.328 27.392-0.96 55.232 0.064 83.392 2.624-1.088 12.544 0.832 24.896 6.976 35.904zM569.216 699.392c-6.976 8.704-12.608 17.28-18.88 25.856-1.28 0.256-2.432 0.832-3.648 1.152-18.048-14.592-35.776-30.272-52.864-47.232 23.872-8.96 47.744-18.368 71.296-29.376 115.52-54.016 209.856-125.632 279.936-208.768 7.68 4.288 16 6.976 24.768 6.976 11.776 0 22.656-4.736 32.32-12.352 7.936 11.52 15.232 23.168 22.336 35.008-122.624 16.512-261.184 111.488-355.264 228.736zM806.528 387.072c-64.96 81.536-155.712 151.936-268.48 204.672-19.072 8.96-38.336 16.384-57.6 23.872-12.352-14.4-30.016-24-50.368-24-3.392 0-6.4 1.472-9.6 1.92-7.36-9.664-15.040-18.816-22.016-29.056-25.728-37.44-47.296-76.928-66.496-117.12 6.784-10.496 11.712-22.272 11.712-35.712 0-18.688-7.744-35.52-20.096-47.68 25.792-66.496 58.048-128.704 94.144-184.064 16.384-1.472 33.152-5.312 49.344-14.336 10.688-5.952 19.904-13.184 27.904-21.12 42.24 13.44 84.352 29.632 125.568 50.56 68.544 34.816 129.344 78.016 181.824 126.4-1.216 7.68-1.984 15.488-1.984 23.68-0.064 14.976 2.176 29.184 6.144 41.984zM1022.592 476.992c-7.936-2.368-16.064-4.032-24.384-5.44-17.408-33.664-38.4-66.176-62.080-97.408 1.792-9.28 3.136-18.816 3.136-28.992 0-14.912-2.24-29.056-6.144-41.856 13.632-29.696 24.704-60.224 32.832-91.584 36.864 70.72 58.048 150.976 58.048 236.288 0 9.792-0.96 19.328-1.408 28.992zM294.848 729.152c31.040-3.968 62.656-9.472 94.72-17.344 11.456 8.768 25.088 14.848 40.512 14.848 6.272 0 11.904-1.984 17.536-3.584 15.744 15.68 32.064 30.016 48.64 43.904-5.952 13.632-6.528 28.352 0 41.152 0.832 1.6 2.432 2.432 3.392 3.904-23.68 53.952-30.976 104-19.968 146.368-47.488-3.008-93.12-12.352-136.256-27.392-29.376-53.76-50.432-109.504-62.656-167.36 8.768-9.024 14.016-20.992 14.080-34.496zM228.672 364.992c-11.712 12.032-19.136 28.416-19.136 46.656 0 17.216 6.912 32.448 17.472 44.288-16.384 68.288-23.424 135.616-21.568 201.28-3.904 1.536-8.128 2.432-11.52 5.12-2.944 2.24-4.352 5.632-6.528 8.448-57.024-1.536-108.032-11.904-149.888-30.912-24-59.328-37.504-123.968-37.504-191.872 0-120.32 41.728-230.656 111.168-318.080 24.448-6.784 49.408-11.84 75.136-15.36-0.256 80.64 14.080 165.696 42.368 250.432zM193.344 748.48c6.784 8.704 14.976 14.912 23.616 19.84 8.064 41.408 20.608 81.664 36.416 121.024-70.336-41.28-129.856-98.752-173.504-167.552 32.832 7.808 68.416 11.712 105.664 12.8 2.496 4.672 4.352 9.536 7.808 13.888zM560.576 831.424c5.504-1.28 10.944-2.56 16.32-5.12 56.896 35.008 116.928 58.752 178.304 72.32-62.272 33.664-132.352 54.336-206.784 59.52-17.6-34.56-9.6-80.32 12.16-126.72zM869.824 242.24c-14.784 0-28.48 6.976-39.744 18.688-53.248-46.72-113.344-88.768-180.544-122.944-40.832-20.736-82.496-36.8-124.416-50.688 1.6-13.312-0.128-26.432-6.464-38.080 40.192-43.648 79.040-76.8 112.96-98.624 114.624 27.456 214.144 93.312 284.224 183.424-4.48 38.4-14.848 75.584-28.672 111.808-5.632-2.048-11.328-3.584-17.344-3.584zM463.936 15.424c-22.4-2.816-48 1.728-71.872 14.976-9.856 5.44-18.304 12.16-25.92 19.328-31.616-3.968-62.976-5.952-94.016-5.952-5.76 0-11.328 0.704-17.088 0.896 1.92-14.976 4.416-29.504 7.68-43.776 73.856-41.152 158.72-64.896 249.28-64.896 10.304 0 20.416 0.96 30.592 1.536-25.28 21.504-51.84 48.256-78.656 77.888zM612.672 749.12c-0.128-0.192-0.32-0.32-0.448-0.512 2.368-3.008 4.544-6.208 6.912-9.152 90.24-112.512 230.464-205.376 336.832-208 14.656 32.96 25.984 66.624 33.344 100.864-32.512 84.096-86.272 157.568-155.136 213.44-74.816-5.248-148.544-29.248-217.856-70.784 1.024-8.896 0.512-17.792-3.648-25.856z" />
<glyph unicode="&#xe633;" d="M512-64q-139 0-257 68.5t-186.5 186.5-68.5 257 68.5 257 186.5 186.5 257 68.5 257-68.5 186.5-186.5 68.5-257-68.5-257-186.5-186.5-257-68.5zM768 480q0 13-9.5 22.5t-22.5 9.5h-160v160q0 13-9.5 22.5t-22.5 9.5h-64q-13 0-22.5-9.5t-9.5-22.5v-160h-160q-13 0-22.5-9.5t-9.5-22.5v-64q0-13 9.5-22.5t22.5-9.5h160v-160q0-13 9.5-22.5t22.5-9.5h64q13 0 22.5 9.5t9.5 22.5v160h160q13 0 22.5 9.5t9.5 22.5v64z" />
<glyph unicode="&#xe634;" d="M0 544v-192c0-17.672 14.328-32 32-32h960c17.672 0 32 14.328 32 32v192c0 17.672-14.328 32-32 32h-960c-17.672 0-32-14.328-32-32z" />
<glyph unicode="&#xe635;" d="M771.516 640c18.126 12.88 35.512 27.216 51.444 43.148 33.402 33.402 55.746 74.5 62.912 115.722 7.858 45.186-3.672 87.14-31.63 115.1-22.3 22.298-52.51 34.086-87.364 34.086-49.632 0-101.922-23.824-143.46-65.362-66.476-66.476-105.226-158.238-126.076-223.722-15.44 65.802-46.206 154.644-106.018 214.458-32.094 32.092-73.114 48.57-111.846 48.57-31.654 0-61.78-11.004-84.26-33.486-49.986-49.988-43.232-137.786 15.086-196.104 20.792-20.792 45.098-38.062 70.72-52.412h-217.024v-256h64v-448h768v448.002h64v256h-188.484zM674.326 831.782c27.724 27.724 62.322 44.274 92.55 44.274 10.7 0 25.708-2.254 36.45-12.998 26.030-26.028 11.412-86.308-31.28-128.998-43.946-43.946-103.060-74.168-154.432-94.060h-50.672c18.568 57.548 52.058 136.456 107.384 191.782zM233.934 799.11c-0.702 9.12-0.050 26.248 12.196 38.494 10.244 10.244 23.788 12.396 33.348 12.396v0c21.258 0 43.468-10.016 60.932-27.48 33.872-33.872 61.766-87.772 80.668-155.876 0.51-1.84 1.008-3.67 1.496-5.486-1.816 0.486-3.646 0.984-5.486 1.496-68.104 18.904-122.002 46.798-155.874 80.67-15.828 15.826-25.77 36.16-27.28 55.786zM448 0h-256v416h256v-416zM448 448h-320v128h320v-128zM832 0h-256v416h256v-416zM896 448h-320v128h320v-128z" />
<glyph unicode="&#xe636;" d="M0-64v1025h1024v-1025h-1024zM960 897h-896v-769h896v769zM256 833q53 0 90.5-37.5t37.5-90.5-37.5-90.5-90.5-37.5-90.5 37-37.5 90v1q0 53 37.5 90.5t90.5 37.5zM367 431l238-239h-477v93l146 146q18 18 46.5 18t46.5-18zM690 623q18 19 46.5 19t46.5-19l113-113v-318h-204q0 1-1.5 3.5t-2.5 4.5l-211 210z" />
<glyph unicode="&#xe637;" d="M960 0h-338q-17-29-46-46.5t-64-17.5-64 17.5-46 46.5h-338q-27 0-45.5 19t-18.5 45v64q53 0 90.5 75t37.5 181v128q0 142 91.5 248.5t228.5 129.5v6q0 27 19 45.5t45 18.5 45-18.5 19-45.5v-6q137-23 228.5-129.5t91.5-248.5v-128q0-106 37.5-181t90.5-75v-64q0-26-18.5-45t-45.5-19z" />
<glyph unicode="&#xe638;" d="M352-64l-64 64q0 54-46.5 152.5t-113.5 164.5l-22 22q-89 89-103.5 213t47.5 228q-22 13-36 35t-14 49q0 39 28.5 67.5t67.5 28.5q27 0 49.5-14t34.5-37q104 62 228 47t212-103l22-22q66-66 165.5-112.5t152.5-46.5l64-64q0-129-56-253t-147.5-215.5-215.5-147.5-253-56zM913 561q-31 29-104.5 2t-161.5-98q26-15 41.5-40.5t15.5-56.5q0-47-32.5-79.5t-79.5-32.5q-31 0-56.5 15.5t-40.5 41.5q-71-88-98-161.5t2-104.5q37-37 138 12t208 156 156 208 12 138z" />
<glyph unicode="&#xe639;" d="M1024 224q0-70-21.5-126t-57.5-90.5-81.5-53-95.5-18.5h-576q-80 0-136 56t-56 136q0 68 45 111t123 72q-24 27-33 59-19 62 14 118.5t98 74.5l49 18q-22 7-31 33.5t-9 89.5q0 35 26.5 62.5t64 46.5l75 38t64 46.5 26.5 62.5l13.5-13.5t31-33.5 39-47.5 30.5-50 14-47.5q0-38-15-70 65 17 123.5-14.5t76.5-93.5q11-39 2.5-76.5t-33.5-66.5q100-7 165-66.5t65-156.5z" />
<glyph unicode="&#xe63a;" d="M640 576l-256-256-128 128-128-128 256-256 384 384-128 128zM768 832v64c0 64 1.472 64-62.528 64h-64c-64 0-65.472 0-65.472-64v-64h-256v64c0 64 0 64-64 64h-64c-64 0-64 0-64-64v-64h-128v-896h896v896h-128zM640 896h64v-128h-64v128zM256 896v-128h-64v128h64zM832 0h-768v640h768v-640z" horiz-adv-x="896" />
<glyph unicode="&#xe63b;" d="M384 896h640v-128h-640v128zM384 512h640v-128h-640v128zM384 128h640v-128h-640v128zM0 832c0 70.692 57.308 128 128 128s128-57.308 128-128c0-70.692-57.308-128-128-128-70.692 0-128 57.308-128 128zM0 448c0 70.692 57.308 128 128 128s128-57.308 128-128c0-70.692-57.308-128-128-128-70.692 0-128 57.308-128 128zM0 64c0 70.692 57.308 128 128 128s128-57.308 128-128c0-70.692-57.308-128-128-128-70.692 0-128 57.308-128 128z" />
<glyph unicode="&#xe63c;" d="M384 128h640v-128h-640zM384 512h640v-128h-640zM384 896h640v-128h-640zM192 960v-256h-64v192h-64v64zM128 434v-50h128v-64h-192v146l128 60v50h-128v64h192v-146zM256 256v-320h-192v64h128v64h-128v64h128v64h-128v64z" />
<glyph unicode="&#xe63d;" d="M896 0v-32q0-13-9.5-22.5t-22.5-9.5h-64q-13 0-22.5 9.5t-9.5 22.5v32h-512v-32q0-13-9.5-22.5t-22.5-9.5h-64q-13 0-22.5 9.5t-9.5 22.5v32q-53 0-90.5 37.5t-37.5 90.5v64q0 70 36.5 144.5t97 125 122.5 50.5q26 0 45 18.5t19 45.5v64q0 26 18.5 45t45.5 19 45.5-19 18.5-45h128q0 26 18.5 45t45.5 19 45.5-19 18.5-45v-64q0-27 18.5-45.5t45.5-18.5q62 0 122.5-50.5t97-125 36.5-144.5v-64q0-53-37.5-90.5t-90.5-37.5zM512 448q-80 0-136-56.5t-56-136 56-135.5 136-56 136 56 56 136-56 136-136 56zM512 128q-53 0-90.5 37.5t-37.5 90.5 37.5 90.5 90.5 37.5 90.5-37.5 37.5-90.5-37.5-90.5-90.5-37.5zM896 576h-32.5t-28.5 1-27.5 3-20 5.5-15 9-4.5 13.5v103q-25 22-100 39.5t-156 17.5-156-17.5-100-39.5v-103q0-8-4.5-13.5t-15-9-20-5.5-27.5-3-28.5-1h-67.5t-29 1-27 3-19 5.5-14 9-4 13.5v87q0 62 69.5 108.5t184.5 69.5 258 23 258-23 184.5-69.5 69.5-108.5v-87q0-8-4-13.5t-14-9-19-5.5-27-3-29-1h-35z" />
<glyph unicode="&#xe63e;" d="M512-64q-139 0-257 68.5t-186.5 186.5-68.5 257 68.5 257 186.5 186.5 257 68.5 257-68.5 186.5-186.5 68.5-257-68.5-257-186.5-186.5-257-68.5zM512 832q-104 0-192.5-51.5t-140-140-51.5-192.5 51.5-192.5 140-140 192.5-51.5 192.5 51.5 140 140 51.5 192.5-51.5 192.5-140 140-192.5 51.5zM734 528q-6-21-23-34.5t-39-13.5q-8 0-16 3t-13 6-11.5 10-9 10-7 10.5-5.5 8.5q-39 48-98 48-53 0-90.5-37.5t-37.5-90.5 37.5-90.5 90.5-37.5q59 0 98 48 2 2 9.5 13.5t12.5 17 16 11.5 24 6q22 0 39-13.5t23-34.5q1-4 2-11t-3.5-23.5-18.5-29.5q-37-50-90-81t-112-31q-106 0-181 75t-75 181 75 181 181 75q61 0 114.5-31.5t90.5-83.5q12-11 16-26.5t2-25.5z" />
<glyph unicode="&#xe63f;" d="M512-64q-139 0-257 68.5t-186.5 186.5-68.5 257 68.5 257 186.5 186.5 257 68.5 257-68.5 186.5-186.5 68.5-257-68.5-257-186.5-186.5-257-68.5zM512 128q27 0 45.5 18.5t18.5 45-19 45.5-45 19-45-19-19-45.5 18.5-45 45.5-18.5zM512 768q-53 0-90.5-37.5t-37.5-90.5l64-256q0-27 19-45.5t45-18.5 45 18.5 19 45.5l64 256q0 53-37.5 90.5t-90.5 37.5z" />
<glyph unicode="&#xe640;" d="M128-64v896h896v-896h-896zM960 768h-768v-640h768v640zM384 704q53 0 90.5-37.5t37.5-90.5-37.5-90.5-90.5-37.5-90 37.5-38 90.5v1q1 53 38 90t90 37zM431 367l174-175h-349v93l82 82q18 18 46.5 18t46.5-18zM690 495q18 18 46.5 18t46.5-18l113-113v-190h-201l-153 153zM64 64h-64v896h896v-64h-832v-832z" />
<glyph unicode="&#xe641;" d="M512-64q-139 0-257 68.5t-186.5 186.5-68.5 257 68.5 257 186.5 186.5 257 68.5 257-68.5 186.5-186.5 68.5-257-68.5-257-186.5-186.5-257-68.5zM384 19q63-19 128-19t128 19v208q-59-35-127.5-35t-128.5 35v-208zM291 576h-208q-19-63-19-128t19-128h208q-35 60-35 128t35 128zM640 877q-63 19-128 19t-128-19v-208q60 35 128 35t128-35v208zM512 640q-80 0-136-56t-56-136 56-136 136-56 136 56 56 136-56 136-136 56zM733 576q35-60 35-128t-35-128h208q19 63 19 128t-19 128h-208z" />
<glyph unicode="&#xe642;" d="M512-64q-104 0-199 40.5t-163.5 109-109 163.5-40.5 199 40.5 199 109 163.5 163.5 109 199 40.5 199-40.5 163.5-109 109-163.5 40.5-199-40.5-199-109-163.5-163.5-109-199-40.5zM512 832q-104 0-192.5-51.5t-140-140-51.5-192.5 51.5-192.5 140-140 192.5-51.5 192.5 51.5 140 140 51.5 192.5-51.5 192.5-140 140-192.5 51.5zM624 209q-17-17-41-17t-41 17l-177 177q-18 5-28 15-19 19-16 47-3 29 16 48 10 10 27 14l178 178q17 17 41 17t41-17 17-41-17-41l-157-158 157-157q17-17 17-41t-17-41z" />
<glyph unicode="&#xe643;" d="M512-64q-104 0-199 40.5t-163.5 109-109 163.5-40.5 199 40.5 199 109 163.5 163.5 109 199 40.5 199-40.5 163.5-109 109-163.5 40.5-199-40.5-199-109-163.5-163.5-109-199-40.5zM512 832q-104 0-192.5-51.5t-140-140-51.5-192.5 51.5-192.5 140-140 192.5-51.5 192.5 51.5 140 140 51.5 192.5-51.5 192.5-140 140-192.5 51.5zM574 300q-4-17-14-27-19-19-48-16-28-3-47 16-10 10-15 28l-177 177q-17 17-17 41t17 41 41 17 41-17l157-158 158 158q17 17 41 17t41-17 17-41-17-41z" />
<glyph unicode="&#xe644;" d="M512-64q-104 0-199 40.5t-163.5 109-109 163.5-40.5 199 40.5 199 109 163.5 163.5 109 199 40.5 199-40.5 163.5-109 109-163.5 40.5-199-40.5-199-109-163.5-163.5-109-199-40.5zM512 832q-104 0-192.5-51.5t-140-140-51.5-192.5 51.5-192.5 140-140 192.5-51.5 192.5 51.5 140 140 51.5 192.5-51.5 192.5-140 140-192.5 51.5zM670 336l-158 157-157-157q-17-17-41-17t-41 17-17 41 17 41l177 177q5 18 15 28 19 19 47 16 29 3 48-16 10-10 14-27l178-178q17-17 17-41t-17-41-41-17-41 17z" />
<glyph unicode="&#xe645;" d="M512-64q-104 0-199 40.5t-163.5 109-109 163.5-40.5 199 40.5 199 109 163.5 163.5 109 199 40.5 199-40.5 163.5-109 109-163.5 40.5-199-40.5-199-109-163.5-163.5-109-199-40.5zM512 832q-104 0-192.5-51.5t-140-140-51.5-192.5 51.5-192.5 140-140 192.5-51.5 192.5 51.5 140 140 51.5 192.5-51.5 192.5-140 140-192.5 51.5zM687 401q-10-10-28-15l-177-177q-17-17-41-17t-41 17-17 41 17 41l158 157-158 158q-17 17-17 41t17 41 41 17 41-17l178-178q17-4 27-14 19-19 16-48 3-28-16-47z" />
<glyph unicode="&#xe646;" d="M992-64h-960q-13 0-22.5 9.5t-9.5 22.5 9.5 22.5 22.5 9.5h32v384q0 53 37.5 90.5t90.5 37.5h640q53 0 90.5-37.5t37.5-90.5v-384h32q13 0 22.5-9.5t9.5-22.5-9.5-22.5-22.5-9.5zM800 768q13 0 22.5-9.5t9.5-22.5v-160h-128v160q0 13 9.5 22.5t22.5 9.5h64zM779 800q21 19 21 40 0 7-7.5 19.5t-14.5 21.5l-7 9q-7-37-30-50-7-6-4.5-17.5t10.5-22.5q-9 0-30 18-13 12-13 27 0 22 22 40 10 9 13 27.5t0 33.5l-3 14q52-20 77-54 20-28 19-56-1-31-5-35-7-6-22.5-10.5t-25.5-4.5zM544 768q13 0 22.5-9.5t9.5-22.5v-160h-128v160q0 13 9.5 22.5t22.5 9.5h64zM523 800q21 19 21 40 0 7-7.5 19.5t-14.5 21.5l-7 9q-7-37-30-50-7-6-4.5-17.5t10.5-22.5q-9 0-30 18-13 12-13 27 0 22 22 40 10 9 13 27.5t0 33.5l-3 14q52-20 77-54 20-28 19-56-1-31-5-35-7-6-22.5-10.5t-25.5-4.5zM288 768q13 0 22.5-9.5t9.5-22.5v-160h-128v160q0 13 9.5 22.5t22.5 9.5h64zM267 800q21 19 21 40 0 7-7.5 19.5t-14.5 21.5l-7 9q-7-37-30-50-7-6-4.5-17.5t10.5-22.5q-9 0-30 18-13 12-13 27 0 22 22 40 10 9 12.5 27.5t0.5 33.5l-3 14q52-20 77-54 20-28 19-56-1-31-5-35-7-6-22.5-10.5t-25.5-4.5z" />
<glyph unicode="&#xe647;" d="M512-64q-139 0-257 68.5t-186.5 186.5-68.5 257 68.5 257 186.5 186.5 257 68.5 257-68.5 186.5-186.5 68.5-257-68.5-257-186.5-186.5-257-68.5zM768 512h-357l82 82q19 19 19 46t-19 46-46 19-46-19l-191-191q-8-8-13-22 0-1-2-6l-0.5-1.5t-0.5-2.5q0-2-1-5v-4q-4-32 17-53l191-191q19-19 46-19t46 19 19 46-19 46l-82 82h357q26 0 45 19t19 45-18.5 45-45.5 19z" />
<glyph unicode="&#xe648;" d="M512-64q-139 0-257 68.5t-186.5 186.5-68.5 257 68.5 257 186.5 186.5 257 68.5 257-68.5 186.5-186.5 68.5-257-68.5-257-186.5-186.5-257-68.5zM831 454v4q0 3-1 5 0 1-0.5 2.5t-1 2-1 2.5-0.5 3q-5 14-13 22l-191 191q-19 19-46 19t-46-19-19-46 19-46l82-82h-357q-26 0-45-19t-19-45 19-45 45-19h357l-82-82q-19-19-19-46t19-46 46-19 46 19l191 191q21 21 17 53z" />
<glyph unicode="&#xe649;" d="M512-64q-139 0-257 68.5t-186.5 186.5-68.5 257 68.5 257 186.5 186.5 257 68.5 257-68.5 186.5-186.5 68.5-257-68.5-257-186.5-186.5-257-68.5zM749 559l-190 190q-22 21-54 17h-3q-3 0-6-1l-1.5-0.5t-2.5-0.5l-2-1t-3-1q-15-5-23-13l-190-190q-19-19-19-46t19-46 46-19 46 19l82 81v-356q0-27 18.5-45.5t45-18.5 45 18.5 18.5 45.5v356l82-81q19-19 46-19t46 19 19 46-19 46z" />
<glyph unicode="&#xe64a;" d="M512-64q-139 0-257 68.5t-186.5 186.5-68.5 257 68.5 257 186.5 186.5 257 68.5 257-68.5 186.5-186.5 68.5-257-68.5-257-186.5-186.5-257-68.5zM749 429q-19 19-46 19t-46-19l-82-81v356q0 27-18.5 45.5t-45 18.5-45-18.5-18.5-45.5v-356l-82 81q-19 19-46 19t-46-19-19-46 19-46l190-190q8-8 23-13 1 0 3-1 2 0 2.5-0.5t2-1l1.5-0.5q3-1 6-1h3q32-4 54 17l190 190q19 19 19 46t-19 46z" />
<glyph unicode="&#xe64b;" d="M1024 224q0-70-21.5-126t-57.5-90.5-81.5-53-95.5-18.5h-576q-80 0-136 56t-56 136q0 68 45 111t123 72q-24 27-33 59-19 62 14 118.5t98 74.5l49 18q-22 7-31 33.5t-9 89.5q0 35 26.5 62.5t64 46.5l75 38t64 46.5 26.5 62.5l13.5-13.5t31-33.5 39-47.5 30.5-50 14-47.5q0-38-15-70 65 17 123.5-14.5t76.5-93.5q11-39 2.5-76.5t-33.5-66.5q100-7 165-66.5t65-156.5zM736 384q-13 0-74 1.5t-80 0.5q58 16 122 67.5t64 90.5q0 29-16.5 50.5t-42 31.5-55 13.5-56.5-4.5l-86-34q23 21 37 45t19 48.5 6.5 38.5 1.5 35-16 45-32 37l-16 14q0-27-20-50.5t-48-40.5-56-33-48-33.5-20-34.5q0-28 46-62t82-34h1l-161-64q-27-9-40-14.5t-28.5-16-21.5-26.5-6-39q0-34 26-53.5t62-21.5 75 1q-53-21-119.5-59.5t-119-83-52.5-71.5q0-49 50-88.5t118-39.5h504q60 0 109.5 23.5t82 73.5 32.5 119q0 77-64 122.5t-160 45.5z" />
<glyph unicode="&#xe64c;" d="M544 960l-96-96 96-96-224-256h-224l176-176-272-360.616v-39.384h39.384l360.616 272 176-176v224l256 224 96-96 96 96-480 480zM448 416l-64 64 224 224 64-64-224-224z" />
<glyph unicode="&#xe64d;" d="M0 896h1024v-128h-1024zM0 704h640v-128h-640zM0 320h640v-128h-640zM0 512h1024v-128h-1024zM0 128h1024v-128h-1024z" />
<glyph unicode="&#xe64e;" d="M0 896h1024v-128h-1024zM192 704h640v-128h-640zM192 320h640v-128h-640zM0 512h1024v-128h-1024zM0 128h1024v-128h-1024z" />
<glyph unicode="&#xe64f;" d="M0 896h1024v-128h-1024zM384 704h640v-128h-640zM384 320h640v-128h-640zM0 512h1024v-128h-1024zM0 128h1024v-128h-1024z" />
<glyph unicode="&#xe650;" d="M701 448l303-304q20-20 20-47.5t-20-46.5l-94-94q-19-20-47-20t-47 20l-304 303-304-303q-19-20-47-20t-47 20l-94 94q-20 19-20 46.5t20 47.5l303 304-303 303q-20 20-20 47.5t20 47.5l94 94q19 19 47 19t47-19l304-304 304 304q19 19 47 19t47-19l94-94q20-20 20-47.5t-20-47.5z" />
<glyph unicode="&#xe651;" d="M960 320h-320v-320q0-27-18.5-45.5t-45.5-18.5h-128q-27 0-45.5 19t-18.5 45v320h-320q-27 0-45.5 19t-18.5 45v128q0 27 18.5 45.5t45.5 18.5h320v320q0 27 18.5 45.5t45.5 18.5h128q27 0 45.5-18.5t18.5-45.5v-320h320q27 0 45.5-18.5t18.5-45.5v-128q0-26-18.5-45t-45.5-19z" />
<glyph unicode="&#xe652;" d="M707.88 475.348c37.498 44.542 60.12 102.008 60.12 164.652 0 141.16-114.842 256-256 256h-320v-896h384c141.158 0 256 114.842 256 256 0 92.956-49.798 174.496-124.12 219.348zM384 768h101.5c55.968 0 101.5-57.42 101.5-128s-45.532-128-101.5-128h-101.5v256zM543 128h-159v256h159c58.45 0 106-57.42 106-128s-47.55-128-106-128z" />
<glyph unicode="&#xe653;" d="M512-64q-139 0-257 68.5t-186.5 186.5-68.5 257 68.5 257 186.5 186.5 257 68.5 257-68.5 186.5-186.5 68.5-257-68.5-257-186.5-186.5-257-68.5zM768 480q0 13-9.5 22.5t-22.5 9.5h-448q-13 0-22.5-9.5t-9.5-22.5v-64q0-13 9.5-22.5t22.5-9.5h448q13 0 22.5 9.5t9.5 22.5v64z" />
<glyph unicode="&#xe654;" d="M512-64q-104 0-199 40.5t-163.5 109-109 163.5-40.5 199 40.5 199 109 163.5 163.5 109 199 40.5 199-40.5 163.5-109 109-163.5 40.5-199-40.5-199-109-163.5-163.5-109-199-40.5zM759 606q9 10 9 23t-9 22l-44 44q-10 9-22.5 9t-22.5-9l-158-159-159 159q-9 9-22 9t-22-9l-44-44q-9-9-9-22t9-23l158-158-158-158q-9-10-9-23t9-22l44-44q9-9 22-9t22 9l159 159 158-159q10-9 22.5-9t22.5 9l44 44q9 9 9 22t-9 23l-159 158z" />
<glyph unicode="&#xe655;" d="M512-64q-139 0-257 68.5t-186.5 186.5-68.5 257 68.5 257 186.5 186.5 257 68.5 257-68.5 186.5-186.5 68.5-257-68.5-257-186.5-186.5-257-68.5zM823 619l-44 44q-10 9-22.5 9t-22.5-9l-302-302-143 142q-9 9-22 9t-22-9l-44-44q-9-9-9-22t9-23l152-151q1-11 8-18l44-44q11-11 27-8 16-3 27 8l44 44q6 7 8 18l312 312q9 9 9 22t-9 22z" />
<glyph unicode="&#xe656;" d="M960 0h-64v256h64q27 0 45.5-18.5t18.5-45.5v-128q0-27-18.5-45.5t-45.5-18.5zM960 320h-64v256h64q27 0 45.5-18.5t18.5-45.5v-128q0-27-18.5-45.5t-45.5-18.5zM960 640h-64v256h64q27 0 45.5-18.5t18.5-45.5v-128q0-27-18.5-45.5t-45.5-18.5zM832 0q0-26-18.5-45t-45.5-19h-704q-26 0-45 19t-19 45v896q0 27 19 45.5t45 18.5h704q27 0 45.5-18.5t18.5-45.5v-896zM480 346v18q96 39 96 212 0 63-44.5 95.5t-115 32.5-115.5-32.5-45-95.5q0-168 96-211v-19q-69-12-114-45t-46-75q0-12 21.5-19.5t63-10.5 68.5-3.5 71-0.5 71 0.5 68.5 3.5 63 10.5 21.5 19.5q-1 42-46 75t-114 45z" />
<glyph unicode="&#xe657;" d="M1010.432 121.248l-383.968 768c-21.664 43.36-65.952 70.752-114.464 70.752s-92.8-27.392-114.464-70.752l-383.968-768c-19.84-39.68-17.728-86.816 5.6-124.576 23.328-37.696 64.512-60.672 108.864-60.672h767.904c44.384 0 85.568 22.976 108.864 60.672 23.328 37.76 25.44 84.896 5.632 124.576zM575.936 96c0-17.696-14.304-32-32-32h-64c-17.696 0-32 14.304-32 32v64c0 17.696 14.304 32 32 32h64c17.696 0 32-14.304 32-32v-64zM575.936 352c0-17.696-14.304-32-32-32h-64c-17.696 0-32 14.304-32 32v320c0 17.664 14.304 32 32 32h64c17.696 0 32-14.336 32-32v-320z" />
<glyph unicode="&#xe658;" d="M1024 256c0-35.328-28.672-64-64-64v-69.888c37.184-13.248 64-48.384 64-90.112 0-52.992-43.008-96-96-96-41.76 0-76.896 26.816-90.112 64h-69.888c0-35.328-28.672-64-64-64s-64 28.672-64 64h-64c0-35.328-28.672-64-64-64s-64 28.672-64 64h-64c0-35.328-28.672-64-64-64s-64 28.672-64 64h-69.888c-13.216-37.184-48.384-64-90.112-64-53.024 0-96 43.008-96 96 0 41.76 26.784 76.864 64 90.112v69.888c-35.328 0-64 28.672-64 64s28.672 64 64 64v64c-35.328 0-64 28.672-64 64s28.672 64 64 64v64c-35.328 0-64 28.672-64 64s28.672 64 64 64v69.888c-37.216 13.216-64 48.384-64 90.112 0 53.024 42.976 96 96 96 41.728 0 76.896-26.784 90.112-64h69.888c0 35.328 28.672 64 64 64s64-28.672 64-64h64c0 35.328 28.672 64 64 64s64-28.672 64-64h64c0 35.328 28.672 64 64 64s64-28.672 64-64h69.888c13.216 37.216 48.352 64 90.112 64 52.992 0 96-42.976 96-96 0-41.728-26.816-76.896-64-90.112v-69.888c35.328 0 64-28.672 64-64s-28.672-64-64-64v-64c35.328 0 64-28.672 64-64s-28.672-64-64-64v-64c35.328 0 64-28.672 64-64zM832 736c0 17.664-14.304 32-32 32h-576c-17.664 0-32-14.336-32-32v-576c0-17.696 14.336-32 32-32h576c17.696 0 32 14.304 32 32v576z" />
<glyph unicode="&#xe659;" d="M704 960h-384c-70.688 0-128-57.312-128-128v-768c0-70.688 57.312-128 128-128h384c70.688 0 128 57.312 128 128v768c0 70.688-57.312 128-128 128zM528 864h96c8.8 0 16-7.168 16-16s-7.2-16-16-16h-96c-8.832 0-16 7.168-16 16s7.168 16 16 16zM416 896c17.664 0 32-14.336 32-32s-14.336-32-32-32-32 14.336-32 32 14.336 32 32 32zM576 32c0-17.696-14.304-32-32-32h-64c-17.664 0-32 14.304-32 32v64c0 17.696 14.336 32 32 32h64c17.696 0 32-14.304 32-32v-64zM768 224c0-17.696-14.304-32-32-32h-448c-17.664 0-32 14.304-32 32v512c0 17.664 14.336 32 32 32h448c17.696 0 32-14.336 32-32v-512z" />
<glyph unicode="&#xe65a;" d="M960 192c0 0-264 0-320 0s64-192 64-192c0-35.328-28.672-64-64-64h-256c-35.328 0-64 28.672-64 64 0 0 121.984 192 64 192s-320 0-320 0c-35.328 0-64 28.672-64 64v640c0 35.328 28.672 64 64 64h896c35.328 0 64-28.672 64-64v-640c0-35.328-28.672-64-64-64zM512 224c35.328 0 64 28.672 64 64s-28.672 64-64 64-64-28.672-64-64 28.672-64 64-64zM960 832c0 35.328-28.672 64-64 64h-768c-35.328 0-64-28.672-64-64v-384c0-35.328 28.672-64 64-64h768c35.328 0 64 28.672 64 64v384z" />
<glyph unicode="&#xe65b;" d="M874.016 85.984c-199.936-199.968-524.128-199.968-724.064 0-199.968 199.936-199.968 524.128 0 724.064 199.936 199.968 524.128 199.968 724.064 0 199.968-199.968 199.968-524.128 0-724.064zM240.48 176.48c134.496-134.496 343.776-147.968 493.728-41.184l-534.912 534.912c-106.784-149.952-93.312-359.2 41.184-493.728zM783.52 719.52c-134.496 134.496-343.776 147.968-493.696 41.184l534.912-534.88c106.752 149.92 93.28 359.2-41.216 493.696z" />
<glyph unicode="&#xe65c;" d="M928 639.84h-832c-17.696 0-32-14.304-32-32v-288c0-17.696 14.304-32 32-32h32v-320c0-17.696 14.304-32 32-32h704c17.696 0 32 14.304 32 32v320h32c17.696 0 32 14.304 32 32v288c0 17.696-14.304 32-32 32zM448 31.84c0-17.696-14.304-32-32-32h-192c-17.696 0-32 14.304-32 32v256c0 17.696 14.304 32 32 32h192c17.696 0 32-14.304 32-32v-256zM448 415.84c0-17.696-14.304-32-32-32h-256c-17.696 0-32 14.304-32 32v128c0 17.696 14.304 32 32 32h256c17.696 0 32-14.304 32-32v-128zM832 31.84c0-17.696-14.304-32-32-32h-192c-17.696 0-32 14.304-32 32v256c0 17.696 14.304 32 32 32h192c17.696 0 32-14.304 32-32v-256zM896 415.84c0-17.696-14.304-32-32-32h-256c-17.696 0-32 14.304-32 32v128c0 17.696 14.304 32 32 32h256c17.696 0 32-14.304 32-32v-128zM369.888 639.872h294.4c50.464 36.192 98.176 83.296 103.84 134.624 2.752 25.056-2.624 61.76-44 94.432-22.944 18.144-46.24 27.328-69.152 27.328-73.024 0-114.336-89.536-136.672-169.536-26.688 101.984-78.208 233.12-166.688 233.12-25.824 0-51.52-11.168-76.512-33.216-49.28-43.584-54.112-88.896-49.504-119.232 10.336-67.808 78.56-126.080 144.288-167.52zM654.976 819.456c7.072 0 16.192-4.224 26.336-12.288 16.512-12.992 15.584-21.056 15.328-23.712-3.072-28-55.584-72-116.832-108.32 18.016 77.472 47.456 144.32 75.168 144.32zM321.088 867.52c8.032 7.104 19.872 15.552 30.528 15.552 39.616 0 80.352-104 104.096-205.12-74.816 39.872-152.16 96.416-159.072 141.792-0.928 6.272-3.488 23.072 24.448 47.776z" />
<glyph unicode="&#xe65d;" d="M768 544.064v64c0 17.696-14.304 32-32 32h-704c-17.696 0-32-14.304-32-32v-448.032c0-5.76 1.952-10.848 4.576-15.52 22.304-118.656 126.304-208.512 251.424-208.512h256c80.672 0 152.192 37.664 199.072 96h56.928c141.376 0 256 114.656 256 256.032 0 141.408-114.624 256.032-256 256.032zM768 160.032v256.032c70.688 0 128-57.312 128-128.032 0-70.688-57.312-128-128-128zM166.336 687.872c-4.768-8.64-4.224-15.776 4.864-15.776 9.024 0 21.408 7.168 24.512 15.712 31.776 82.848-135.104 150.208-34.272 252.384 10.336 10.592 14.528 19.744 5.376 19.808-9.184 0.096-28.032-8.64-37.952-18.944-97.152-99.808 82.656-169.952 37.472-253.184zM287.2 687.488c-1.184-8.256 3.872-15.392 12.864-15.392 8.928 0 17.6 7.136 18.496 15.328 7.072 59.328-40.352 113.76-11.872 165.088 0.448 9.28-10.464 18.496-24.608 19.744-14.112 1.28-26.688-5.728-27.168-14.944-3.424-66.944 40.64-109.664 32.288-169.824zM428.864 672.096c8.928 0 16 7.136 17.696 15.040 16.224 76.672 148.736 100.288 48.832 237.216-10.688 14.144-29.664 27.136-38.848 27.264-9.216 0.16-10.016-12.48-3.904-26.464 99.424-93.824 3.968-161.152-38.304-238.016-1.408-7.904 5.632-15.040 14.528-15.040zM557.728 672.096c8.96 0 14.976 7.2 17.568 15.616 24.32 81.376 298.848 133.984 68 245.984-24.064 11.392-55.296 20.928-62.112 20.544-6.944-0.48 9.408-12.288 29.952-25.184 188.704-123.68 12.864-86.368-67.808-241.6-2.624-8.16 5.472-15.36 14.4-15.36z" />
<glyph unicode="&#xe65e;" d="M64 960h384v-64h-384zM576 960h384v-64h-384zM952 640h-56v256h-256v-256h-256v256h-256v-256h-56c-39.6 0-72-32.4-72-72v-560c0-39.6 32.4-72 72-72h304c39.6 0 72 32.4 72 72v376h128v-376c0-39.6 32.4-72 72-72h304c39.6 0 72 32.4 72 72v560c0 39.6-32.4 72-72 72zM348 0h-248c-19.8 0-36 14.4-36 32s16.2 32 36 32h248c19.8 0 36-14.4 36-32s-16.2-32-36-32zM544 448h-64c-17.6 0-32 14.4-32 32s14.4 32 32 32h64c17.6 0 32-14.4 32-32s-14.4-32-32-32zM924 0h-248c-19.8 0-36 14.4-36 32s16.2 32 36 32h248c19.8 0 36-14.4 36-32s-16.2-32-36-32z" />
<glyph unicode="&#xe65f;" d="M874.040 810.038c96.702-96.704 149.96-225.28 149.96-362.040s-53.258-265.334-149.96-362.038c-96.706-96.702-225.28-149.96-362.040-149.96-136.76 0-265.334 53.258-362.040 149.96-96.702 96.704-149.96 225.278-149.96 362.038 0 136.76 53.254 265.336 149.96 362.040 96.706 96.704 225.28 149.962 362.040 149.962 136.76 0 265.334-53.258 362.040-149.962zM828.784 131.214c63.058 63.060 104.986 141.608 122.272 227.062-13.474-19.836-26.362-27.194-34.344 17.206-8.22 72.39-74.708 26.148-116.516 51.86-44.004-29.658-142.906 57.662-126.098-40.824 25.934-44.422 140.008 59.45 83.148-34.542-36.274-65.616-132.642-210.932-120.106-286.258 1.582-109.744-112.134-22.884-151.314 13.52-26.356 72.92-8.982 200.374-77.898 236.086-74.802 3.248-139.004 10.046-167.994 93.67-17.446 59.828 18.564 148.894 82.678 162.644 93.85 58.966 127.374-69.054 215.39-71.434 27.328 28.594 101.816 37.686 107.992 69.75-57.75 10.19 73.268 48.558-5.528 70.382-43.47-5.112-71.478-45.074-48.368-78.958-84.238-19.642-86.936 121.904-167.91 77.258-2.058-70.59-132.222-22.886-45.036-8.572 29.956 13.088-48.86 51.016-6.28 44.124 20.916 1.136 91.332 25.812 72.276 42.402 39.21 24.34 72.16-58.29 110.538 1.882 27.708 46.266-11.62 54.808-46.35 31.356-19.58 21.924 34.57 69.276 82.332 89.738 15.918 6.82 31.122 10.536 42.746 9.484 24.058-27.792 68.55-32.606 70.878 3.342-59.582 28.534-125.276 43.608-193.292 43.608-97.622 0-190.47-31.024-267.308-88.39 20.65-9.46 32.372-21.238 12.478-36.296-15.456-46.054-78.17-107.876-133.224-99.124-28.586-49.296-47.412-103.606-55.46-160.528 46.112-15.256 56.744-45.45 46.836-55.55-23.496-20.488-37.936-49.53-45.376-81.322 15.010-91.836 58.172-176.476 125.27-243.576 84.616-84.614 197.118-131.214 316.784-131.214 119.664 0 232.168 46.6 316.784 131.214z" />
<glyph unicode="&#xe660;" d="M896 704v128h-896v-704c0-35.346 28.654-64 64-64h864c53.022 0 96 42.978 96 96v544h-128zM832 128h-768v640h768v-640zM128 640h640v-64h-640zM512 512h256v-64h-256zM512 384h256v-64h-256zM512 256h192v-64h-192zM128 512h320v-320h-320z" />
<glyph unicode="&#xe661;" d="M892.118 771.882l-120.234 120.236c-37.338 37.336-111.084 67.882-163.884 67.882h-448c-52.8 0-96-43.2-96-96v-832c0-52.8 43.2-96 96-96h704c52.8 0 96 43.2 96 96v576c0 52.8-30.546 126.546-67.882 163.882zM640 824.438c2.196-0.804 4.452-1.68 6.758-2.636 18.060-7.482 30.598-16.176 34.616-20.194l120.236-120.238c4.018-4.018 12.712-16.554 20.194-34.614 0.956-2.306 1.832-4.562 2.636-6.756h-184.44v184.438zM832 64h-640v768h384v-256h256v-512zM256 448h512v-64h-512zM256 320h512v-64h-512zM256 192h512v-64h-512z" />
<glyph unicode="&#xe662;" d="M832 704h-192v64l-192 192h-448v-768h384v-256h640v576l-192 192zM832 613.49l101.49-101.49h-101.49v101.49zM448 869.49l101.49-101.49h-101.49v101.49zM64 896h320v-192h192v-448h-512v640zM960 0h-512v192h192v448h128v-192h192v-448z" />
<glyph unicode="&#xe663;" d="M68.032 921.984c40.896 40.992 164.512 47.84 165.44 26.144 0.928-21.664 111.328-262.112 112.288-283.808 0.96-21.664-72.768-95.584-94.336-117.216-21.376-21.408 144.256-209.056 147.392-212.608 3.52-3.168 190.72-169.184 212.096-147.744 21.568 21.632 95.328 95.52 116.896 94.56 21.632-0.928 261.536-111.584 283.168-112.576 21.632-0.928 14.816-124.8-26.080-165.824-34.976-35.040-216.064-162.272-530.944 64.928-34.528 19.904-89.216 65.568-172.16 148.672-0.032 0.032-0.096 0.096-0.16 0.128-0.064 0.096-0.128 0.128-0.192 0.192s-0.128 0.128-0.192 0.192c-0.032 0.064-0.096 0.128-0.128 0.16-82.88 83.136-128.448 137.984-148.32 172.576-226.656 315.648-99.712 497.184-64.768 532.224z" />
<glyph unicode="&#xe664;" d="M512 960c-176.732 0-320-143.268-320-320 0-320 320-704 320-704s320 384 320 704c0 176.732-143.27 320-320 320zM512 448c-106.040 0-192 85.96-192 192s85.96 192 192 192 192-85.96 192-192-85.96-192-192-192z" />
<glyph unicode="&#xe665;" d="M896-64h-768q-53 0-90.5 37.5t-37.5 90.5v512q0 53 37.5 90.5t90.5 37.5h93l42 94q11 42 55 70t98 28h192q54 0 98-28t54-70l43-94h93q53 0 90.5-37.5t37.5-90.5v-512q0-53-37.5-90.5t-90.5-37.5zM512 640q-87 0-160.5-43t-116.5-116.5-43-160.5 43-160.5 116.5-116.5 160.5-43 160.5 43 116.5 116.5 43 160.5-43 160.5-116.5 116.5-160.5 43zM512 64q-106 0-181 75t-75 181 75 181 181 75 181-75 75-181-75-181-181-75zM512 512q-80 0-136-56t-56-136 56-136 136-56 136 56 56 136-56 136-136 56z" />
<glyph unicode="&#xe666;" d="M704 896h128v-416c0-159.058-143.268-288-320-288-176.73 0-320 128.942-320 288v416h128v-416c0-40.166 18.238-78.704 51.354-108.506 36.896-33.204 86.846-51.494 140.646-51.494 53.8 0 103.75 18.29 140.646 51.494 33.116 29.802 51.354 68.34 51.354 108.506v416zM192 128h640v-128h-640z" />
<glyph unicode="&#xe667;" d="M512-64q-104 0-199 40.5t-163.5 109-109 163.5-40.5 199 40.5 199 109 163.5 163.5 109 199 40.5 199-40.5 163.5-109 109-163.5 40.5-199-40.5-199-109-163.5-163.5-109-199-40.5zM512 64q26 0 45 18.5t19 45-19 45.5-45 19-45-19-19-45.5 19-45 45-18.5zM782 515q-12-6-25 0t-18.5 19.5 0 27.5 18.5 19l95 43q-56 109-164 165l-43-96q-5-13-19-18.5t-27.5 0-19.5 18.5 0 26l43 97q-54 16-110 16t-110-16l43-97q6-13 0-26t-19.5-18.5-27.5 0-19 18.5l-43 96q-107-55-164-165l95-42q12-6 17.5-19.5t0-27.5-18-19.5-25.5 0.5l-97 42q-16-54-16-110t16-110l97 42q13 6 25.5 0.5t18-19.5 0-27.5-17.5-19.5l-96-42q22-43 56-80 96 54 240 62l194 317q9 2 17 5 7 1 13.5-2.5t7.5-10.5l5-16-111-296q121-13 204-59 34 37 56 80l-96 43q-13 5-18.5 19t0 27.5 18.5 19.5 26 0l97-43q16 54 16 110t-16 110z" />
<glyph unicode="&#xe668;" d="M874.176 810.112c-200 199.872-524.224 199.872-724.224 0-199.936-199.872-199.936-524.224 0-724.16 200-200 524.352-199.872 724.224 0 199.936 199.808 199.936 524.288 0 724.16zM496.704 74.56c-55.616 0-101.056 44.928-101.056 100.096 0 56.64 44.352 101.056 101.056 101.056 55.104 0 100.032-45.312 100.032-101.056 0-54.336-45.824-100.096-100.032-100.096zM540.736 425.536v-55.488c0-27.008 15.68-45.184-11.392-45.184h-72.32c-27.072 0-49.856 18.176-49.856 45.184v124.032c0 31.296 38.336 40.704 66.56 48.96 6.976 2.112 17.28 4.16 24.128 6.528 36.736 13.12 60.864 29.632 60.864 70.592 0 13.312 0.896 53.632-64.832 53.632-40.512 0-76.864-15.552-98.816-24.768-12.416-5.248-18.24-7.808-24.512-7.808-12.736 0-24.768 10.176-26.496 20.608l-25.216 65.92c-3.584 7.488-3.52 13.568-3.52 18.368 0 48.576 151.232 75.328 201.344 75.328 126.144 0 197.952-81.344 197.952-202.304 0-130.944-107.008-171.904-173.888-193.6z" />
<glyph unicode="&#xe669;" d="M896 896v-64h-128l-320-768h128v-64h-448v64h128l320 768h-128v64z" />
</font>
</defs>
</svg>
