<?xml version="1.0" standalone="no"?>
<!DOCTYPE svg PUBLIC "-//W3C//DTD SVG 1.1//EN" "http://www.w3.org/Graphics/SVG/1.1/DTD/svg11.dtd" >
<svg xmlns="http://www.w3.org/2000/svg">
<metadata></metadata>
<defs>
<font id="align_today25_ultra_light" horiz-adv-x="1034" >
<font-face units-per-em="2048" ascent="1462" descent="-586" />
<missing-glyph horiz-adv-x="574" />
<glyph />
<glyph />
<glyph unicode="&#xd;" horiz-adv-x="0" />
<glyph unicode=" "  horiz-adv-x="574" />
<glyph unicode="&#x09;" horiz-adv-x="574" />
<glyph unicode="&#xa0;" horiz-adv-x="574" />
<glyph unicode="!" horiz-adv-x="381" d="M172 0v203h41v-203h-41zM172 377v1100h41v-1100h-41z" />
<glyph unicode="&#x22;" horiz-adv-x="574" d="M152 1011v466h40v-466h-40zM383 1011v466h41v-466h-41z" />
<glyph unicode="#" horiz-adv-x="1149" d="M73 474v41h268l50 366h-261v41h271l65 485h41l-65 -485h354l65 485h41l-65 -485h241v-41h-251l-49 -366h242v-41h-250l-65 -474h-41l64 474h-355l-65 -474h-41l64 474h-258zM383 515h353l50 366h-354z" />
<glyph unicode="$" horiz-adv-x="1149" d="M12 490h42q0 -128 36 -217t101.5 -146.5t156 -86t200.5 -32.5v736q-88 21 -176 44t-159 63.5t-114 106.5t-43 173t44 181t115 118.5t159 63t174 18.5v89h42v-91q103 -2 191 -28t153 -79t103.5 -136.5t44.5 -202.5h-42q-4 107 -39 183.5t-95 125t-140.5 71.5t-175.5 25 v-691l16 -4q103 -26 195.5 -50.5t160.5 -66t108.5 -110.5t40.5 -185q0 -105 -45.5 -180t-120 -123.5t-167.5 -71t-188 -22.5v-182h-42v184q-118 4 -217.5 36t-170.5 96.5t-110.5 160.5t-37.5 230zM97 1131q0 -93 37.5 -151t100.5 -94t145 -57.5t168 -40.5v683 q-78 0 -158 -17t-145 -56t-106.5 -104t-41.5 -163zM590 6q87 0 172.5 19.5t154 63t111 111t42.5 164.5q0 105 -44.5 169.5t-114 103t-154 59t-167.5 38.5v-728z" />
<glyph unicode="%" horiz-adv-x="1416" d="M43 1074q0 76 21 142.5t61.5 114t99.5 74t133 26.5q157 0 239 -100t82 -255q0 -73 -21 -136t-62.5 -111.5t-101.5 -76.5t-136 -28q-81 0 -140.5 29t-98 77.5t-57.5 111.5t-19 132zM85 1074q0 -62 16.5 -119t50.5 -98.5t86 -66t120 -24.5t120.5 24.5t88 67t53 98 t17.5 118.5q0 142 -68 229t-211 87t-208 -90t-65 -226zM182 -71l985 1548h47l-985 -1548h-47zM738 325q0 77 21 142.5t61.5 113.5t99.5 75t132 27q158 0 240 -100.5t82 -255.5q0 -72 -21 -135.5t-62.5 -112t-101.5 -76.5t-137 -28q-80 0 -140 29t-98 77.5t-57 112t-19 131.5 zM780 325q0 -61 16.5 -119t50.5 -98.5t86 -66t119 -25.5q69 0 121.5 25.5t88 68t53 98t17.5 117.5q0 143 -68 229.5t-212 86.5q-142 0 -207 -89.5t-65 -226.5z" />
<glyph unicode="&#x26;" horiz-adv-x="1186" d="M91 331q0 91 37.5 162.5t95.5 129.5t128 104.5t136 87.5q-31 43 -68 89.5t-71.5 95t-57 99.5t-22.5 103q0 71 26.5 123.5t69 85.5t96.5 49.5t110 16.5q61 0 116 -19t96.5 -53.5t65.5 -86.5t24 -116q0 -75 -32 -131.5t-79.5 -103.5t-105.5 -86t-108 -76l389 -493 q20 46 37 112t13 149h41q2 -93 -14.5 -160.5t-47.5 -137.5l217 -275h-54l-184 233q-61 -114 -167.5 -191t-264.5 -77q-79 0 -154 24.5t-134 72.5t-96.5 116t-37.5 153zM132 331q0 -79 33.5 -140t86 -102.5t120.5 -62t141 -20.5q149 0 248.5 75t156.5 192l-405 509 q-62 -40 -129.5 -83.5t-123 -96t-92 -118.5t-36.5 -153zM310 1206q0 -35 12.5 -70t38.5 -77.5t66.5 -96.5t95.5 -127q44 32 98 69t100.5 81.5t78 98t31.5 118.5q0 53 -21.5 96.5t-56.5 74t-82 46.5t-98 16q-54 0 -101.5 -15t-84 -45.5t-57 -73t-20.5 -95.5z" />
<glyph unicode="'" horiz-adv-x="345" d="M154 1011v466h41v-466h-41z" />
<glyph unicode="(" horiz-adv-x="458" d="M140 584q0 244 61.5 479.5t179.5 448.5h41q-118 -213 -179 -449t-61 -479q0 -251 61 -490.5t181 -459.5h-41q-60 119 -106 231t-75.5 227t-45.5 235.5t-16 256.5z" />
<glyph unicode=")" horiz-adv-x="458" d="M35 1512h42q59 -118 104.5 -230.5t76 -227.5t45.5 -236t15 -255q0 -245 -60.5 -481t-178.5 -448h-42q119 213 179.5 448.5t60.5 480.5q0 250 -60.5 490t-181.5 459z" />
<glyph unicode="*" horiz-adv-x="727" d="M67 1237l12 40l260 -89v289h42v-289l272 89l9 -40l-269 -89l172 -226l-34 -24l-171 223l-174 -215l-32 27l181 215z" />
<glyph unicode="+" horiz-adv-x="1240" d="M99 503v41h501v502h41v-502h500v-41h-500v-503h-41v503h-501z" />
<glyph unicode="," horiz-adv-x="574" d="M217 -205q27 27 38.5 72.5t11.5 132.5v203h41v-203q0 -93 -19.5 -152t-71.5 -94v41z" />
<glyph unicode="-" horiz-adv-x="687" d="M164 533v42h361v-42h-361z" />
<glyph unicode="." horiz-adv-x="574" d="M267 0v203h41v-203h-41z" />
<glyph unicode="/" horiz-adv-x="687" d="M-14 -35l676 1547h41l-676 -1547h-41z" />
<glyph unicode="0" horiz-adv-x="1149" d="M43 703q0 132 26 262.5t88 234t163.5 167.5t254.5 64q151 0 253.5 -64t164 -167.5t88 -234t26.5 -262.5t-26.5 -262.5t-88 -234t-164 -167.5t-253.5 -64q-154 0 -255 64t-163 167.5t-88 234t-26 262.5zM85 703q0 -118 22.5 -240t78.5 -221.5t150 -162.5t239 -63 q144 0 238.5 63t150.5 162.5t79 221.5t23 240t-23 240.5t-79 221.5t-150 162t-239 63t-239 -63t-150 -162t-78.5 -221.5t-22.5 -240.5z" />
<glyph unicode="1" horiz-adv-x="1149" d="M238 1105v41q64 21 113.5 45.5t93 56t84 70t83.5 89.5h46v-1407h-42v1352h-4q-64 -88 -166.5 -153.5t-207.5 -93.5z" />
<glyph unicode="2" horiz-adv-x="1149" d="M114 0q-2 89 37 161t103 136.5t144 120.5t159 111q80 56 156.5 114t136.5 121t96.5 135t36.5 153q0 83 -30.5 146t-82 105.5t-123.5 64.5t-155 22q-110 0 -188.5 -33t-128.5 -92t-72.5 -141t-22.5 -179h-42q2 232 115 359t339 127q89 0 168 -23.5t137 -71t92.5 -118 t34.5 -166.5q0 -118 -62 -212t-156 -176.5t-204 -156t-206 -146.5t-164 -151t-76 -169h906v-41h-948z" />
<glyph unicode="3" horiz-adv-x="1149" d="M83 476h41q-8 -112 23 -198t93 -143.5t153 -88t201 -30.5q85 0 163 24t138 72t96.5 117t36.5 160t-30 156t-85 107.5t-128 63t-161 20.5h-101v42h101q69 0 137 15.5t122 51.5t87 95t31 146q0 85 -35 143t-91 94t-127 51.5t-146 15.5q-203 0 -322.5 -104.5t-115.5 -314.5 h-42q-4 229 127.5 344.5t352.5 115.5q83 0 162.5 -18.5t141.5 -60t99 -107.5t37 -159q0 -149 -85.5 -231.5t-216.5 -94.5v-5q62 -6 121 -30t106 -68.5t75 -110.5t28 -157q0 -97 -38.5 -175t-103.5 -130.5t-152 -80.5t-182 -28q-120 0 -217.5 33t-166 97.5t-102 157.5 t-25.5 213z" />
<glyph unicode="4" horiz-adv-x="1149" d="M71 366v50l703 991h51v-1000h255v-41h-255v-366h-41v366h-713zM112 407h672v941h-4z" />
<glyph unicode="5" horiz-adv-x="1149" d="M77 450h41q-4 -103 27 -183.5t90 -136t143 -85t187 -29.5q101 0 183.5 32.5t140.5 91.5t89 141.5t31 186.5q0 97 -32 178.5t-90 140.5t-140.5 92t-181.5 33q-125 0 -230.5 -54.5t-162.5 -160.5h-52l151 710h722v-41h-689l-128 -602h4q59 99 159.5 144t225.5 45 q107 0 197 -36t154.5 -100.5t99 -154t34.5 -194.5q0 -112 -34.5 -203t-99 -155.5t-154 -99.5t-197.5 -35q-111 0 -201.5 32t-156 93.5t-100 150t-30.5 199.5z" />
<glyph unicode="6" horiz-adv-x="1149" d="M81 664q0 130 24.5 267t85.5 248.5t163 181.5t256 70q91 0 166.5 -27.5t131.5 -75t91 -113t45 -139.5h-41q-20 95 -64.5 156t-100.5 96.5t-117 48.5t-113 13q-105 0 -183 -36t-132.5 -98t-88.5 -143t-54 -170t-26 -178.5t-4 -170.5h4q14 75 56.5 138.5t103.5 112.5 t138 75.5t162 26.5q91 0 178.5 -35t156 -99.5t110 -154t41.5 -196.5q0 -105 -39.5 -194.5t-107 -155t-155 -101.5t-184.5 -36q-73 0 -136 19.5t-114.5 51t-92 71t-67.5 80.5q-60 93 -76.5 211.5t-16.5 255.5zM138 462q0 -93 35.5 -174t95.5 -141t140.5 -95.5t174.5 -35.5 q93 0 173 35.5t140 95.5t95.5 141t35.5 174q0 92 -35.5 173t-95.5 140.5t-140 95t-173 35.5t-174 -35.5t-141 -95t-95.5 -140.5t-35.5 -173z" />
<glyph unicode="7" horiz-adv-x="1149" d="M126 1366v41h898v-57q-142 -142 -260.5 -293t-201 -315.5t-128 -347.5t-45.5 -394h-42q-2 207 42.5 393t128.5 354.5t200.5 321.5t260.5 297h-853z" />
<glyph unicode="8" horiz-adv-x="1149" d="M64 393q0 161 96.5 261.5t263.5 117.5v4q-59 8 -112 33.5t-92.5 64t-62.5 90.5t-23 112q0 95 34.5 162t94 110.5t140.5 63t172 19.5t171.5 -19.5t140.5 -63t94.5 -110.5t34.5 -162q0 -60 -22.5 -112t-62 -90.5t-92.5 -64t-113 -33.5v-4q168 -17 264 -117.5t96 -261.5 q0 -110 -41.5 -188.5t-110.5 -130t-162 -75.5t-197 -24q-103 0 -196 24t-163 75.5t-111 130.5t-41 188zM105 393q0 -101 38.5 -173t103.5 -117t150 -66t178 -21t177.5 21t150 66t103.5 117t38 173t-39 169.5t-104.5 110t-150 58.5t-175.5 17t-176 -17t-150 -58.5 t-104.5 -110t-39.5 -169.5zM176 1076q0 -75 36 -129.5t93 -89t128.5 -51t141.5 -16.5t140.5 16.5t128.5 51t94.5 89t36.5 129.5q0 89 -34.5 150t-90.5 97t-127.5 51.5t-147.5 15.5q-77 0 -148 -15.5t-127 -51.5t-90 -97t-34 -150z" />
<glyph unicode="9" horiz-adv-x="1149" d="M81 945q0 105 39.5 194.5t106.5 154.5t155 101t185 36q72 0 135.5 -19.5t115 -50.5t91.5 -70.5t68 -80.5q61 -93 78 -212t17 -256q0 -130 -25 -266.5t-86 -248t-163.5 -182t-257.5 -70.5q-91 0 -166.5 28t-131.5 75.5t-91 113t-46 139.5h41q21 -95 66 -156t101 -96.5 t115.5 -49t113.5 -13.5q158 0 255 79t149.5 199t69 258.5t14.5 260.5h-4q-16 -75 -57.5 -139t-102.5 -112.5t-138 -75t-161 -26.5q-91 0 -179 34.5t-156 99t-109.5 153t-41.5 198.5zM122 945q0 -93 35 -173.5t95 -140.5t141 -95t174 -35t173.5 35t140.5 95t95 140.5 t35 173.5t-35 174t-95 141t-140.5 95t-173.5 35t-174 -35t-141 -95t-95 -141t-35 -174z" />
<glyph unicode=":" horiz-adv-x="574" d="M267 0v203h41v-203h-41zM267 861v203h41v-203h-41z" />
<glyph unicode=";" horiz-adv-x="574" d="M217 -205q27 27 38.5 72.5t11.5 132.5v203h41v-203q0 -93 -19.5 -152t-71.5 -94v41zM267 861v203h41v-203h-41z" />
<glyph unicode="&#x3c;" horiz-adv-x="1240" d="M95 499v49l1051 516v-44l-1014 -497l1014 -496v-43z" />
<glyph unicode="=" horiz-adv-x="1240" d="M99 302v41h1042v-41h-1042zM99 703v41h1042v-41h-1042z" />
<glyph unicode="&#x3e;" horiz-adv-x="1240" d="M95 -16v43l1014 496l-1014 497v44l1051 -516v-49z" />
<glyph unicode="?" d="M73 1020q-4 107 24.5 198t86.5 156t143 101.5t194 36.5q85 0 159.5 -22.5t129.5 -66t87 -108t32 -146.5q0 -79 -23 -137.5t-54 -102t-66.5 -75t-59.5 -55.5q-55 -54 -94.5 -97.5t-64.5 -91t-35.5 -104t-10.5 -129.5h-41q0 70 10.5 126t33 106.5t61.5 100.5t98 105 q12 12 45.5 39t69 70.5t63 104.5t27.5 140q0 72 -28.5 128.5t-77 95t-115.5 58.5t-146 20q-103 0 -180.5 -33t-129 -92t-76.5 -143t-21 -183h-41zM480 0v203h41v-203h-41z" />
<glyph unicode="@" horiz-adv-x="1654" d="M118 730q0 162 58.5 297.5t161 234.5t239.5 155t290 56q138 0 260 -43.5t213 -124.5t144 -196.5t53 -258.5q0 -120 -41.5 -224.5t-106.5 -183t-144.5 -124t-154.5 -45.5q-60 0 -96.5 36t-25.5 94h-4q-58 -79 -133.5 -104.5t-147.5 -25.5q-60 0 -112 23.5t-89.5 64 t-59 95.5t-21.5 117q0 95 35.5 200.5t99.5 194.5t155 146t201 57q99 0 177.5 -46.5t105.5 -129.5h4l50 136h44l-231 -596q-18 -45 -27.5 -85t-6.5 -70.5t23.5 -48t62.5 -17.5q63 0 134 41.5t130 113t98.5 169.5t39.5 212q0 129 -48 236.5t-131.5 183.5t-199.5 118.5 t-250 42.5q-152 0 -280.5 -54.5t-224 -150t-149 -223.5t-53.5 -273q0 -176 56.5 -309t154 -223.5t225.5 -136t271 -45.5q95 0 181.5 25.5t164.5 70t142 104t112 127.5h47q-50 -82 -122 -150.5t-157 -116t-179 -74.5t-189 -27q-139 0 -273 44.5t-240 136.5t-171 234.5 t-65 339.5zM442 573q0 -56 19 -102.5t52 -81.5t78.5 -55t99.5 -20q41 0 85.5 10.5t86 38.5t80 76.5t66.5 123.5l147 380q-14 52 -43 88.5t-67.5 58t-81 30.5t-81.5 9q-97 0 -179 -54.5t-139.5 -137.5t-90 -180t-32.5 -184z" />
<glyph unicode="A" horiz-adv-x="1188" d="M-25 0l600 1477h54l583 -1477h-45l-194 486h-754l-196 -486h-48zM235 527h720l-351 908h-4z" />
<glyph unicode="B" horiz-adv-x="1263" d="M97 0v1477h635q87 0 163 -23t132.5 -69.5t88.5 -114.5t32 -161q0 -67 -23.5 -127t-65 -105.5t-98.5 -73t-126 -31.5v-4q73 -2 138 -28t113.5 -73t78 -114t29.5 -152q0 -99 -36.5 -174t-100.5 -125t-154 -76t-196 -26h-610zM138 41h588q89 0 168 22t135.5 66.5t89.5 111.5 t33 158q0 95 -36 162.5t-95 109t-134.5 59.5t-154.5 18h-594v-707zM138 790h594q75 0 142 19.5t118.5 60t83 100.5t31.5 139q0 83 -29.5 145t-80 102t-118.5 59.5t-147 19.5h-594v-645z" />
<glyph unicode="C" horiz-adv-x="1416" d="M52 726q0 135 38 274t121 253.5t215.5 186.5t319.5 72q147 0 257 -48.5t183 -122t110.5 -156t39.5 -151.5h-41q-6 81 -47.5 158.5t-112.5 139.5t-169.5 100.5t-219.5 38.5q-122 0 -217 -34t-167 -91t-124 -133t-84 -158t-46.5 -167t-14.5 -162q0 -140 41.5 -270.5 t122 -230t197.5 -159.5t266 -60q132 0 238 43.5t182 120t123.5 182.5t64.5 227h42q-19 -135 -71 -247.5t-133.5 -194t-194.5 -127t-251 -45.5q-146 0 -269.5 57t-213 158.5t-137.5 241t-48 304.5z" />
<glyph unicode="D" horiz-adv-x="1340" d="M112 0v1477h517q110 0 222.5 -34t202.5 -118t146.5 -227t56.5 -360q0 -199 -58 -339t-155 -228t-222 -129.5t-257 -41.5h-453zM154 41h421q130 0 247 42.5t205 128.5t138.5 217.5t50.5 308.5q0 207 -51.5 341.5t-136.5 214.5t-191.5 110.5t-218.5 30.5h-464v-1394z" />
<glyph unicode="E" horiz-adv-x="1109" d="M112 0v1477h980v-42h-938v-645h882v-42h-882v-707h947v-41h-989z" />
<glyph unicode="F" horiz-adv-x="994" d="M112 0v1477h910v-42h-868v-645h785v-42h-785v-748h-42z" />
<glyph unicode="G" horiz-adv-x="1492" d="M67 738q0 162 47.5 303.5t136 246t217 164.5t292.5 60q124 0 228 -35.5t183.5 -100.5t130 -156t70.5 -204h-42q-18 103 -67 187t-122 144t-170.5 92t-210.5 32q-156 0 -277 -58.5t-204.5 -157.5t-127.5 -232t-44 -285q0 -151 41.5 -284.5t124.5 -232.5t206 -157t287 -58 q122 0 229.5 42.5t186.5 118t124.5 179.5t45.5 227v76h-572v42h614v-693h-42v368h-4q-57 -188 -213 -294.5t-375 -106.5q-172 0 -301.5 61t-216 166.5t-131 246t-44.5 299.5z" />
<glyph unicode="H" horiz-adv-x="1340" d="M112 0v1477h42v-687h1034v687h41v-1477h-41v748h-1034v-748h-42z" />
<glyph unicode="I" horiz-adv-x="264" d="M112 0v1477h42v-1477h-42z" />
<glyph unicode="J" horiz-adv-x="957" d="M37 369v89h42v-89q0 -182 89 -272.5t262 -90.5q89 0 156 20.5t113.5 68t70.5 126.5t24 195v1061h41v-1092q0 -93 -21.5 -170t-69 -132.5t-125 -86.5t-189.5 -31q-105 0 -179.5 31t-122 84.5t-69.5 127.5t-22 161z" />
<glyph unicode="K" horiz-adv-x="1226" d="M112 0v1477h42v-898l1023 898h62l-714 -629l756 -848h-57l-732 823l-338 -300v-523h-42z" />
<glyph unicode="L" horiz-adv-x="994" d="M112 0v1477h42v-1436h862v-41h-904z" />
<glyph unicode="M" horiz-adv-x="1612" d="M112 0v1477h68l625 -1423h4l624 1423h69v-1477h-42v1425h-4l-627 -1425h-45l-626 1425h-4v-1425h-42z" />
<glyph unicode="N" horiz-adv-x="1340" d="M112 0v1477h62l1009 -1425h5v1425h41v-1477h-62l-1009 1425h-4v-1425h-42z" />
<glyph unicode="O" horiz-adv-x="1490" d="M67 738q0 158 44.5 298.5t130 246t212.5 167.5t292 62q166 0 293.5 -62t213 -167.5t130 -246t44.5 -298.5q0 -157 -44.5 -297.5t-130 -246t-213 -167.5t-293.5 -62q-165 0 -292 62t-212.5 167.5t-130 246t-44.5 297.5zM107 738q0 -159 44 -293.5t126.5 -231.5t201.5 -152 t267 -55q149 0 268 55t201 152t126.5 231.5t44.5 293.5q0 160 -44.5 294.5t-126.5 231.5t-200.5 152t-268.5 55q-148 0 -267 -55t-201.5 -152t-126.5 -231.5t-44 -294.5z" />
<glyph unicode="P" horiz-adv-x="1186" d="M112 0v1477h597q213 0 331 -101t118 -302q0 -97 -35 -173t-97 -126.5t-149 -76t-188 -25.5h-535v-673h-42zM154 714h555q87 0 161.5 24t129 70t86 112.5t31.5 153.5q0 175 -100.5 268t-307.5 93h-555v-721z" />
<glyph unicode="Q" horiz-adv-x="1490" d="M67 738q0 158 44.5 298.5t130 246t212.5 167.5t292 62q166 0 293.5 -62t213 -167.5t130 -246t44.5 -298.5q0 -175 -53.5 -329t-165.5 -263l238 -162l-21 -29l-244 165q-83 -73 -190.5 -114t-244.5 -41q-165 0 -292 62t-212.5 167.5t-130 246t-44.5 297.5zM107 738 q0 -159 44 -293.5t126.5 -231.5t201.5 -152t267 -55q121 0 220.5 36.5t177.5 101.5l-261 178l23 34l267 -184q101 99 158 242q55 138 55 312v12q0 160 -44.5 294.5t-127.5 231.5t-200.5 152t-267.5 55q-148 0 -267 -55t-201.5 -152t-126.5 -231.5t-44 -294.5z" />
<glyph unicode="R" horiz-adv-x="1263" d="M112 0v1477h604q231 0 339 -92t112 -287v-14q0 -140 -79 -234q-83 -98 -238 -132v-4q93 -12 151 -44.5t89 -84.5t41 -122t10 -159q0 -31 2.5 -77.5t6.5 -92t10.5 -83t16.5 -51.5h-46q-10 23 -16 61t-9 81.5t-4 88t-1 79.5q0 91 -13.5 162.5t-55 120t-119.5 74.5t-204 26 h-555v-693h-42zM154 734h551q83 0 158.5 21t134.5 66.5t93 114.5t34 167q0 157 -94 244.5t-305 87.5h-572v-701z" />
<glyph unicode="S" horiz-adv-x="1263" d="M71 490h41q0 -132 39 -224t110.5 -150t169.5 -84t216 -26q87 0 173 19.5t154 63t110.5 111t42.5 164.5q0 112 -48.5 177t-124 103.5t-167.5 58t-177 39.5q-91 21 -179 44t-159 63.5t-114.5 106.5t-43.5 175q0 110 45.5 183.5t117.5 117t162 62t179 18.5q107 0 200.5 -24 t162.5 -76.5t110.5 -138t47.5 -209.5h-41q-4 114 -42 191t-101 124.5t-150 69.5t-187 22q-79 0 -160 -16t-148.5 -55t-110.5 -104t-43 -165q0 -99 44 -159t115.5 -96.5t162.5 -56.5t186 -45q103 -26 195 -50.5t160.5 -66t109 -110.5t40.5 -185q0 -105 -45.5 -180 t-120 -123.5t-168 -71t-188.5 -22.5q-126 0 -232.5 30t-183.5 93.5t-119 161.5q-41 94 -41 227v13z" />
<glyph unicode="T" d="M-35 1435v42h1105v-42h-533v-1435h-40v1435h-532z" />
<glyph unicode="U" horiz-adv-x="1306" d="M112 550v927h42v-927q0 -266 121.5 -405t377.5 -139q257 0 379 139t122 405v927h42v-927q0 -298 -139 -441.5t-404 -143.5q-264 0 -402.5 143.5t-138.5 441.5z" />
<glyph unicode="V" horiz-adv-x="1112" d="M-37 1477h41l559 -1423h4l542 1423h41l-562 -1477h-46z" />
<glyph unicode="W" horiz-adv-x="1798" d="M-20 1477h43l417 -1425h4l427 1425h60l433 -1425h4l411 1425h41l-428 -1477h-56l-434 1425h-4l-426 -1425h-56z" />
<glyph unicode="X" horiz-adv-x="1074" d="M-56 0l569 760l-538 717h54l511 -685l514 685h53l-538 -717l562 -760h-51l-540 726l-544 -726h-52z" />
<glyph unicode="Y" horiz-adv-x="1112" d="M-62 1477h52l567 -811l568 811h50l-598 -855v-622h-42v622z" />
<glyph unicode="Z" d="M-39 0v56l1032 1379h-975v42h1016v-56l-1032 -1380h1048v-41h-1089z" />
<glyph unicode="[" horiz-adv-x="458" d="M199 -366v1878h233v-41h-192v-1796h192v-41h-233z" />
<glyph unicode="\" horiz-adv-x="687" d="M-14 1512h41l676 -1547h-41z" />
<glyph unicode="]" horiz-adv-x="458" d="M27 -325h192v1796h-192v41h234v-1878h-234v41z" />
<glyph unicode="^" horiz-adv-x="1240" d="M122 470l478 937h41l478 -937h-41l-458 896l-456 -896h-42z" />
<glyph unicode="_" d="M0 -156h1034v-103h-1034v103z" />
<glyph unicode="`" horiz-adv-x="268" d="M-79 1514h61l258 -298h-31z" />
<glyph unicode="a" horiz-adv-x="994" d="M45 263q0 99 32.5 159t84 94t117.5 47.5t133 17.5q110 6 188.5 11.5t129 21t74 47.5t23.5 91q0 48 -8 100t-40.5 95.5t-94.5 71t-167 27.5q-168 0 -260.5 -81.5t-102.5 -230.5h-42q4 75 31 140t77.5 112.5t124 74.5t172.5 27q71 0 135 -14.5t111.5 -50.5t76.5 -94 t29 -145v-677q0 -31 12.5 -45.5t33 -19.5t43.5 -4t45 3v-41q-16 -2 -31 -2h-31q-45 0 -79.5 22.5t-34.5 82.5v139h-4q-16 -51 -53.5 -99t-91.5 -85.5t-124 -60t-153 -22.5q-162 0 -259 72.5t-97 215.5zM87 263q0 -46 15.5 -90.5t52.5 -78.5t96 -56t146 -22q103 0 184 35.5 t136 92.5t82.5 131t27.5 153v196h-4q-20 -29 -63.5 -44t-99.5 -23.5t-121 -10.5t-127 -6t-121.5 -15.5t-105 -41.5t-72 -83t-26.5 -137z" />
<glyph unicode="b" horiz-adv-x="1109" d="M114 0v1477h42v-711h4q37 144 146.5 233t279.5 89q110 0 194.5 -45.5t141.5 -122t86.5 -178t29.5 -213.5q0 -120 -30.5 -221t-90 -175.5t-143 -116t-188.5 -41.5q-81 0 -150.5 24t-124 67.5t-93 102t-58.5 129.5h-4v-298h-42zM156 529q0 -103 28.5 -196t83 -163.5 t134.5 -112t184 -41.5q103 0 180.5 41.5t128 113t76.5 163.5t26 195q0 93 -24 185.5t-73.5 165.5t-128 119.5t-185.5 46.5q-195 0 -312.5 -133t-117.5 -384z" />
<glyph unicode="c" d="M64 509q0 114 30 219t91 185t154 127.5t222 47.5q74 0 142.5 -23t122 -66.5t89.5 -108.5t47 -150h-42q-12 77 -45 135t-81 96t-107.5 56.5t-125.5 18.5q-129 0 -215.5 -48.5t-139 -126t-77 -173.5t-24.5 -189q0 -97 28.5 -186.5t82 -157.5t134 -108.5t185.5 -40.5 q77 0 146 24t122 70t86 109t40 143h42q-8 -89 -43.5 -160.5t-92.5 -122t-134 -77.5t-166 -27q-114 0 -201.5 42.5t-147.5 116t-91 169.5t-31 206z" />
<glyph unicode="d" horiz-adv-x="1109" d="M58 529q0 112 29 213.5t86.5 178t142.5 122t195 45.5q170 0 279.5 -89t146.5 -233h4v711h42v-1477h-42v298h-4q-20 -71 -60 -129.5t-93.5 -102t-122.5 -67.5t-150 -24q-105 0 -189 41.5t-143 116t-90 176t-31 220.5zM99 529q0 -103 26.5 -195t76.5 -163.5t127.5 -113 t181.5 -41.5q101 0 182 41.5t135.5 112t83.5 163.5t29 196q0 251 -118 384t-312 133q-110 0 -187.5 -46.5t-127.5 -119.5t-73.5 -165.5t-23.5 -185.5z" />
<glyph unicode="e" d="M52 531q0 133 39 236.5t103.5 175t148 108.5t174.5 37q124 0 214 -47.5t147 -126.5t83 -181q23 -88 23 -181q0 -14 -1 -29h-890q2 -107 25.5 -199.5t73.5 -160.5t128.5 -107.5t192.5 -39.5q168 0 278.5 88t137.5 265h42q-10 -91 -49 -164t-98.5 -123.5t-138.5 -78.5 t-168 -28h-11q-117 1 -201 41q-88 42 -144 117.5t-82.5 178t-26.5 219.5zM93 565h848q0 97 -26.5 184.5t-79.5 154.5t-132 104.5t-182 37.5q-87 0 -162 -32.5t-132 -96t-92.5 -152t-41.5 -200.5z" />
<glyph unicode="f" horiz-adv-x="421" d="M-2 1022v42h182v235q0 63 19.5 98.5t51 53.5t67.5 22t71 4q29 0 51 -3t38 -5v-42q-30 4 -52.5 6t-44.5 2q-99 0 -129.5 -35.5t-30.5 -114.5v-221h229v-42h-229v-1022h-41v1022h-182z" />
<glyph unicode="g" horiz-adv-x="1072" d="M58 567q0 107 29 201.5t86.5 165.5t143.5 112.5t198 41.5q77 0 143 -24t118.5 -65.5t89 -98t52.5 -120.5h4v284h42v-1029q0 -219 -116 -322.5t-327 -103.5q-81 0 -153 18.5t-128 59t-89 104t-35 153.5h42q2 -78 31.5 -134t79 -91t113.5 -51.5t137 -16.5q195 0 299 91.5 t104 292.5v321h-4q-16 -73 -58.5 -127.5t-99.5 -93t-124 -58t-135 -19.5q-112 0 -195 41t-137.5 110.5t-82.5 162t-28 195.5zM99 567q0 -99 26.5 -184t76.5 -148t124.5 -99.5t172.5 -36.5q101 0 181 37.5t132.5 100.5t80 148t27.5 182q0 91 -25.5 177.5t-76 154 t-127.5 107.5t-176 40q-103 0 -180.5 -37.5t-130 -104.5t-79 -153.5t-26.5 -183.5z" />
<glyph unicode="h" d="M114 0v1477h42v-676h4q14 62 46 113.5t80.5 90.5t113 61t142.5 22q83 0 152.5 -25t120 -73.5t78 -119.5t27.5 -165v-705h-41v699q0 93 -27 158t-73.5 107.5t-107.5 62t-129 19.5q-95 0 -167.5 -35.5t-121 -97t-73 -142t-24.5 -169.5v-602h-42z" />
<glyph unicode="i" horiz-adv-x="268" d="M114 0v1064h42v-1064h-42zM114 1268v209h42v-209h-42z" />
<glyph unicode="j" horiz-adv-x="268" d="M-101 -325q60 0 101 4.5t66 21.5t36.5 54.5t11.5 104.5v1204h42v-1220q0 -72 -18 -114t-50 -64t-79.5 -27t-109.5 -5v41zM114 1268v209h42v-209h-42z" />
<glyph unicode="k" horiz-adv-x="918" d="M114 0v1477h42v-1024l734 611h59l-487 -406l523 -658h-56l-499 629l-274 -228v-401h-42z" />
<glyph unicode="l" horiz-adv-x="268" d="M114 0v1477h42v-1477h-42z" />
<glyph unicode="m" horiz-adv-x="1608" d="M114 0v1064h42v-263h4q29 124 122 204.5t217 82.5h14q115 0 193 -64q84 -68 111 -185h4q31 112 122 180.5t215 68.5q95 0 160.5 -29t104.5 -79.5t56 -122t17 -158.5v-699h-42v699q0 79 -13.5 143t-47.5 109.5t-91 70t-144 24.5q-78 0 -139.5 -29.5t-104.5 -81.5 t-66 -119.5t-23 -140.5v-675h-41v683q0 75 -11 141t-42.5 115.5t-87 78t-144.5 28.5q-79 0 -143 -35.5t-108.5 -97t-68 -142t-23.5 -169.5v-602h-42z" />
<glyph unicode="n" d="M114 0v1064h42v-263h4q14 62 46 113.5t80.5 90.5t113 61t142.5 22q83 0 152.5 -25t120 -73.5t78 -119.5t27.5 -165v-705h-41v699q0 93 -27 158t-73.5 107.5t-107.5 62t-129 19.5q-95 0 -167.5 -35.5t-121 -97t-73 -142t-24.5 -169.5v-602h-42z" />
<glyph unicode="o" horiz-adv-x="1072" d="M58 531q0 107 31 209t92 178.5t150 123t206 46.5q116 0 205 -46.5t150 -123t92.5 -178t31.5 -209.5q0 -110 -31.5 -210t-92.5 -177t-150 -123t-207 -46q-116 0 -205.5 46t-149.5 123t-91 177t-31 210zM99 531q0 -101 28.5 -194t84 -164.5t137 -114t188.5 -42.5 q105 0 187.5 42.5t138 114t84 164.5t28.5 194q0 99 -28.5 192.5t-84 165t-137.5 114.5t-188 43q-107 0 -188.5 -43t-137 -114.5t-84 -165t-28.5 -192.5z" />
<glyph unicode="p" horiz-adv-x="1109" d="M114 -366v1430h42v-298h4q20 70 58.5 128.5t93 102t124 67.5t150.5 24q105 0 188.5 -41.5t143 -116t90 -176t30.5 -221.5q0 -112 -29.5 -213t-86.5 -177t-142 -122t-194 -46q-170 0 -279.5 89.5t-146.5 233.5h-4v-664h-42zM156 533q0 -250 117.5 -383.5t312.5 -133.5 q107 0 185.5 47t128 120.5t73.5 165t24 184.5q0 101 -26 194.5t-76.5 165t-128 112.5t-180.5 41t-183.5 -41t-135 -111.5t-83 -163.5t-28.5 -197z" />
<glyph unicode="q" horiz-adv-x="1109" d="M58 533q0 120 31 221.5t90 176t142.5 116t189.5 41.5q81 0 150 -24t122.5 -67.5t93 -102.5t60.5 -128h4v298h42v-1430h-42v664h-4q-37 -144 -146.5 -233.5t-279.5 -89.5q-110 0 -195 46t-142.5 122t-86.5 177.5t-29 212.5zM99 533q0 -93 23.5 -184.5t73.5 -165 t127.5 -120.5t187.5 -47q195 0 312.5 133.5t117.5 383.5q0 103 -29 196.5t-83.5 164t-135.5 111.5t-182 41q-103 0 -181 -41t-128 -112.5t-76.5 -164.5t-26.5 -195z" />
<glyph unicode="r" horiz-adv-x="535" d="M114 0v1064h42v-263h4q14 57 44.5 111t82.5 93q51 39 123 62q66 21 152 21h15v-42q-16 1 -31 1q-90 -1 -158 -31q-80 -36 -131.5 -99t-76 -145.5t-24.5 -169.5v-602h-42z" />
<glyph unicode="s" horiz-adv-x="957" d="M62 364h41q0 -180 100.5 -264t288.5 -84q57 0 119 13.5t111.5 43.5t81 78t31.5 116q0 70 -31.5 113.5t-82 71.5t-117.5 44.5t-134 32.5q-77 18 -135 35t-104 38q-66 29 -97 80.5t-31 138.5q0 44 18.5 91.5t62 86.5t112 64t168.5 25q177 0 280.5 -80.5t103.5 -259.5h-41 q0 81 -24.5 137t-70.5 92.5t-109 52.5t-139 16q-113 0 -177 -29.5t-94.5 -69t-39.5 -76t-9 -50.5q0 -79 32.5 -121t86.5 -65q55 -23 120 -39.5t152 -38.5q62 -17 123.5 -34.5t110 -49t78.5 -79t30 -123.5q0 -81 -34 -136.5t-89 -91t-124 -52t-138 -16.5q-213 0 -321.5 94.5 t-108.5 294.5z" />
<glyph unicode="t" horiz-adv-x="497" d="M-10 1022v42h196v334h41v-334h241v-42h-241v-815q0 -60 14 -93t34.5 -50t45 -20t50.5 -3q31 0 55 1t36 5v-41q-19 -2 -37 -4t-65 -2q-73 0 -123.5 42.5t-50.5 156.5v823h-196z" />
<glyph unicode="u" d="M114 358v706h42v-700q0 -93 26.5 -158.5t73 -107.5t107.5 -62t129 -20q95 0 167.5 36.5t121 97.5t73.5 142t25 170v602h41v-1064h-41v263h-4q-14 -62 -46.5 -114t-81 -91.5t-112.5 -61t-143 -21.5q-83 0 -152 25t-119.5 73.5t-78.5 120t-28 164.5z" />
<glyph unicode="v" horiz-adv-x="841" d="M-25 1064h50l411 -1023h4l381 1023h46l-401 -1064h-52z" />
<glyph unicode="w" horiz-adv-x="1416" d="M-16 1064h41l316 -1023h4l330 1023h63l328 -1023h4l322 1023h41l-339 -1064h-54l-331 1022h-4l-332 -1022h-59z" />
<glyph unicode="x" horiz-adv-x="841" d="M-31 0l426 550l-387 514h54l358 -483l366 483h49l-389 -514l427 -550h-52l-401 519l-400 -519h-51z" />
<glyph unicode="y" horiz-adv-x="841" d="M-25 1064h45l422 -1008l381 1008h44l-490 -1281q-20 -54 -49.5 -84t-65 -44.5t-78 -17.5t-89.5 -3v41q51 0 90.5 3.5t68 16.5t50 41.5t39.5 75.5l77 198z" />
<glyph unicode="z" horiz-adv-x="841" d="M10 0v52l745 970h-688v42h732v-53l-745 -970h777v-41h-821z" />
<glyph unicode="{" horiz-adv-x="687" d="M176 559v41q33 6 61 37.5t47.5 79t30 107t10.5 121.5v342q0 118 32 171.5t119 53.5h103v-41h-99q-62 0 -88 -46.5t-26 -175.5v-339q0 -45 -8.5 -96.5t-27 -99.5t-46 -85t-67.5 -54q69 -34 109 -127.5t40 -212.5v-334q0 -69 6.5 -113.5t20.5 -69t35.5 -34t51.5 -9.5h99 v-41h-103q-87 0 -119 55.5t-32 174.5v337q0 126 -29 212t-120 146z" />
<glyph unicode="|" horiz-adv-x="458" d="M209 -442v2068h41v-2068h-41z" />
<glyph unicode="}" horiz-adv-x="687" d="M110 -325h99q62 0 87.5 47t25.5 175v338q0 46 8.5 98t27.5 99.5t46.5 84.5t67.5 54q-69 33 -109.5 127t-40.5 212v335q0 69 -7 113.5t-20 69t-35 34t-51 9.5h-99v41h103q87 0 119 -56t32 -173v-338q0 -126 29 -213t120 -144v-42q-35 -6 -62 -37t-46.5 -78.5t-30 -107.5 t-10.5 -122v-341q0 -119 -32 -172.5t-119 -53.5h-103v41z" />
<glyph unicode="~" horiz-adv-x="1240" d="M160 436q39 73 97.5 124.5t145.5 55.5q56 2 119.5 -19.5t122.5 -50.5q62 -29 117 -50.5t96 -21.5q32 0 57.5 13.5t47.5 34t40.5 47.5t36.5 53l42 -12q-20 -33 -43 -65t-50 -56.5t-60 -40.5t-73 -16q-51 0 -99 22t-102 45q-53 25 -112 50.5t-140 25.5q-71 0 -118 -42.5 t-84 -108.5z" />
<glyph unicode="&#xa1;" horiz-adv-x="381" d="M172 -366v1110h41v-1110h-41zM172 918v203h41v-203h-41z" />
<glyph unicode="&#xa2;" horiz-adv-x="1149" d="M122 533q0 101 28 199.5t83 175.5t137.5 125.5t192.5 52.5v182h41v-182q81 -2 152 -25t126 -66.5t90 -107.5t46 -147h-41q-12 75 -44.5 132t-81 94t-111.5 56.5t-136 21.5v-1028h10q77 0 141 26.5t112.5 73t80 109.5t39.5 137h41q-23 -182 -137.5 -283.5t-286.5 -103.5 v-225h-41v225q-113 4 -195 52t-137 125t-82 176.5t-27 204.5zM164 533q0 -95 23.5 -185.5t73 -163t124.5 -118.5t178 -50v1028q-103 -4 -178 -49.5t-124.5 -116.5t-73 -161t-23.5 -184z" />
<glyph unicode="&#xa3;" horiz-adv-x="1149" d="M81 6q101 87 172.5 194.5t71.5 231.5q0 79 -17.5 153.5t-48.5 128.5h-158v41h137q-20 40 -45 85.5t-47 93t-37.5 97t-15.5 96.5q0 99 39.5 172t104.5 120.5t149 70t175 22.5q118 0 212 -36.5t157 -103.5t90.5 -163t15.5 -216h-41q10 116 -18 205t-86 150t-142.5 92 t-187.5 31q-81 0 -157.5 -20t-136.5 -61.5t-96.5 -106.5t-36.5 -156q0 -47 16 -95.5t39.5 -96t49.5 -93.5t47 -87h326v-41h-308q35 -64 48.5 -136.5t13.5 -145.5q0 -118 -54.5 -216t-149.5 -179l4 -4q39 30 92.5 53.5t118.5 23.5q51 0 102.5 -15.5t101.5 -34.5 q51 -19 101 -36.5t98 -17.5q49 0 90.5 12.5t79 36.5t72.5 54.5t74 68.5l27 -30q-91 -103 -169.5 -143t-173.5 -40q-52 0 -104 16.5t-103 34.5q-52 18 -100.5 35.5t-95.5 17.5q-73 0 -136 -28.5t-123 -75.5z" />
<glyph unicode="&#xa4;" horiz-adv-x="1149" d="M62 703q2 95 36 185.5t101 161.5l-118 119l29 29l117 -118q75 68 165 102t183 34q95 0 185 -34t162 -102l118 118l30 -29l-119 -119q69 -72 103 -161.5t34 -185.5q0 -93 -34 -183t-103 -164l119 -118l-30 -29l-118 118q-73 -66 -162 -100.5t-185 -36.5q-93 0 -183 34.5 t-165 102.5l-117 -118l-29 29l118 118q-69 74 -103 164t-34 183zM103 703q0 -97 37.5 -183t101.5 -150t150 -101.5t183 -37.5t183 37.5t150.5 101.5t101 150t36.5 183t-36.5 183.5t-101 150.5t-150 101t-183.5 37q-97 0 -183 -37t-150 -101t-101.5 -150t-37.5 -184z" />
<glyph unicode="&#xa5;" horiz-adv-x="1149" d="M43 1477h46l484 -792h4l485 792h45l-491 -804h282v-42h-304v-211h304v-41h-304v-379h-42v379h-304v41h304v211h-304v42h285z" />
<glyph unicode="&#xa6;" horiz-adv-x="458" d="M209 -184v517h41v-517h-41zM209 850v518h41v-518h-41z" />
<glyph unicode="&#xa7;" horiz-adv-x="1149" d="M118 724q0 50 20 95.5t50.5 82.5t71 65t83.5 44q-41 35 -75.5 87t-34.5 139t35.5 140.5t87 84t107.5 40.5t98 10q80 0 146.5 -28t112 -78t70 -120t24.5 -157h-41q-4 162 -82.5 252t-233.5 90q-40 0 -90.5 -11.5t-94 -38.5t-72.5 -72.5t-25 -115.5q4 -79 37 -124t81 -81 q37 -27 69 -46.5t65.5 -37t67.5 -37t78 -46.5q112 -71 180.5 -125.5t109 -103t55 -98.5t14.5 -112q0 -55 -25.5 -103t-63 -84t-80 -61.5t-73.5 -33.5q81 -66 103.5 -129t18.5 -125q-6 -73 -36 -124.5t-75.5 -85.5t-103.5 -50.5t-122 -16.5q-176 0 -271 103.5t-91 297.5h42 q0 -81 16.5 -146t55.5 -112.5t100 -74t148 -26.5q80 0 136.5 23.5t91 59t51.5 77t17 75.5q0 41 -5 73.5t-23 62.5t-49.5 61t-88.5 71q-71 49 -171 110t-193 123q-74 49 -117.5 91.5t-67.5 83t-31 80t-7 82.5zM160 707q0 -23 5 -54t25.5 -67t62 -78t113.5 -88q45 -29 98 -62 t104.5 -67t99.5 -65t82 -56q32 6 73.5 25.5t78.5 53t63 78t26 97.5q0 52 -13.5 95.5t-51.5 88.5t-104.5 97.5t-172.5 119.5q-25 16 -63 39.5t-76 45t-73.5 41.5t-55.5 32q-23 -6 -60 -26t-73.5 -53t-62 -82.5t-25.5 -114.5z" />
<glyph unicode="&#xa8;" horiz-adv-x="268" d="M-47 1270v167h41v-167h-41zM275 1270v167h41v-167h-41z" />
<glyph unicode="&#xa9;" horiz-adv-x="1654" d="M54 738q0 162 61 302.5t165.5 245t245 165.5t301.5 61q162 0 302.5 -61t245 -165.5t165.5 -245t61 -302.5q0 -161 -61 -301.5t-165.5 -245t-245 -165.5t-302.5 -61q-161 0 -301.5 61t-245 165.5t-165.5 245t-61 301.5zM95 738q0 -153 57 -286.5t156 -232.5t233 -156 t286 -57t285 57t232.5 156t157 233t57.5 286t-57.5 285t-157 232t-232.5 157.5t-285 58.5q-153 0 -286.5 -58.5t-232.5 -157.5t-156 -232t-57 -285zM395 726q0 101 31.5 188t88 150t140 98.5t189.5 35.5q73 0 137.5 -21t116.5 -60t85 -98t43 -133h-40q-10 68 -41.5 118 t-78 84.5t-103.5 51t-119 16.5q-97 0 -172.5 -33t-128.5 -89.5t-80 -135.5t-27 -170t28 -170.5t82 -139.5t130 -94t174 -34q115 0 208.5 72t127.5 209h40q-33 -143 -133 -233t-243 -90q-103 0 -188 37t-143.5 101t-91 151t-32.5 189z" />
<glyph unicode="&#xaa;" horiz-adv-x="620" d="M0 933q0 62 21.5 100.5t58 58t82 26.5t93.5 11q47 2 92.5 3t82 9.5t58 26.5t21.5 54q0 93 -47.5 130.5t-153.5 37.5q-105 0 -159 -46.5t-64 -127.5h-42q11 101 76 158t189 57q101 0 171.5 -40.5t70.5 -143.5v-393q0 -35 22 -39t48 0v-41h-39q-30 0 -51 14.5t-21 48.5v85 h-4v-14q-23 -69 -92.5 -108.5t-181.5 -39.5q-45 0 -86.5 9t-73.5 30.5t-51.5 54t-19.5 79.5zM41 933q0 -37 17 -62t43.5 -40.5t61 -22.5t68.5 -7q137 0 207.5 70t70.5 171v99h-4q-14 -27 -53.5 -35t-91.5 -11t-107.5 -6t-102.5 -17.5t-78 -46.5t-31 -92z" />
<glyph unicode="&#xab;" horiz-adv-x="727" d="M136 537v34l213 287v-72l-171 -232l171 -232v-72zM329 537v34l213 287v-72l-171 -232l171 -232v-72z" />
<glyph unicode="&#xac;" horiz-adv-x="1240" d="M99 703v41h1042v-552h-40v511h-1002z" />
<glyph unicode="&#xad;" horiz-adv-x="687" d="M164 533v42h361v-42h-361z" />
<glyph unicode="&#xae;" horiz-adv-x="1654" d="M54 738q0 162 61 302.5t165.5 245t245 165.5t301.5 61q162 0 302.5 -61t245 -165.5t165.5 -245t61 -302.5q0 -161 -61 -301.5t-165.5 -245t-245 -165.5t-302.5 -61q-161 0 -301.5 61t-245 165.5t-165.5 245t-61 301.5zM95 738q0 -153 57 -286.5t156 -232.5t233 -156 t286 -57t285 57t232.5 156t157 233t57.5 286t-57.5 285t-157 232t-232.5 157.5t-285 58.5q-153 0 -286.5 -58.5t-232.5 -157.5t-156 -232t-57 -285zM567 279v890h291q152 0 223 -63.5t71 -176.5q0 -55 -18.5 -98t-51 -71t-74.5 -43.5t-88 -19.5l274 -418h-53l-266 414 q-8 -2 -16.5 -2h-16.5h-31h-203v-412h-41zM608 732h215q46 0 97 5t92.5 26t70 60.5t28.5 105.5q0 62 -21.5 100.5t-57 60t-82 29.5t-96.5 8h-246v-395z" />
<glyph unicode="&#xaf;" horiz-adv-x="268" d="M-105 1324v42h480v-42h-480z" />
<glyph unicode="&#xb0;" horiz-adv-x="827" d="M118 1135q0 60 23 114t63 94.5t93.5 64t116.5 23.5q62 0 116 -23.5t94 -64t62.5 -94.5t22.5 -114q0 -61 -22.5 -116t-61.5 -95.5t-94 -64.5t-117 -24t-116 23t-94 63.5t-63 95.5t-23 118zM160 1135q0 -55 20.5 -102.5t55.5 -82t80.5 -54t97.5 -19.5q54 0 100.5 19.5 t80.5 55t54 83t20 100.5q0 52 -19 98t-53 80.5t-80.5 55.5t-102.5 21q-51 0 -97 -21t-81 -56.5t-55.5 -81t-20.5 -96.5z" />
<glyph unicode="&#xb1;" horiz-adv-x="1240" d="M99 0v41h1042v-41h-1042zM99 596v41h501v409h41v-409h500v-41h-500v-410h-41v410h-501z" />
<glyph unicode="&#xb2;" horiz-adv-x="687" d="M37 573q0 59 26 105t66.5 84.5t92 70.5t103.5 67q52 33 99.5 68t83.5 73.5t58 81t22 93.5q0 89 -67.5 131.5t-173.5 42.5q-136 0 -195 -66.5t-57 -184.5h-41q4 141 69 216.5t224 75.5q58 0 110 -12t90.5 -38.5t60 -67t21.5 -97.5q0 -43 -10.5 -81.5t-40.5 -77.5 t-84 -83.5t-138 -100.5q-52 -34 -99.5 -66.5t-85 -65t-61 -64.5t-25.5 -63h568v-41h-616z" />
<glyph unicode="&#xb3;" horiz-adv-x="687" d="M23 858h41q-10 -130 72.5 -194t219.5 -64q51 0 100 13.5t86 39.5t59.5 64t22.5 90q0 58 -22.5 96t-59.5 61t-86 32t-98 9h-50v43h54q45 0 90 10t80 29.5t55.5 53.5t20.5 83q0 52 -21.5 84t-55.5 51t-80 25t-91 6q-131 0 -200 -54.5t-69 -179.5h-42q-2 69 21 119.5 t65.5 85.5t100.5 52.5t126 17.5q51 0 102 -9t92.5 -32.5t67 -63t25.5 -102.5q0 -87 -59 -141.5t-152 -54.5v-4q46 -4 87.5 -17.5t72.5 -40.5t49.5 -66t18.5 -93q0 -60 -25 -106t-67.5 -77.5t-98 -48t-117.5 -16.5q-160 0 -252 77.5t-83 221.5z" />
<glyph unicode="&#xb4;" horiz-adv-x="268" d="M20 1216l274 298h60l-302 -298h-32z" />
<glyph unicode="&#xb5;" horiz-adv-x="1149" d="M172 -366v1430h39v-700q0 -93 27 -158.5t73.5 -107.5t107.5 -62t129 -20q95 0 167.5 36.5t121.5 97.5t73.5 142t24.5 170v602h42v-1064h-42v263h-4q-14 -62 -46.5 -114t-81 -91.5t-112.5 -61t-143 -21.5q-105 0 -194 43.5t-137 149.5h-4v-534h-41z" />
<glyph unicode="&#xb6;" horiz-adv-x="1240" d="M136 1072q0 199 121.5 302t340.5 103h418v-1767h-41v1725h-338v-1725h-41v969q-103 0 -187 30.5t-145 84.5t-94.5 125.5t-33.5 152.5z" />
<glyph unicode="&#xb7;" horiz-adv-x="574" d="M221 703q0 29 19 48t48 19t47.5 -19t18.5 -48t-19 -47.5t-47 -18.5q-29 0 -48 18.5t-19 47.5z" />
<glyph unicode="&#xb8;" horiz-adv-x="268" d="M-35 -351l19 39q35 -16 70 -25.5t76 -9.5q67 0 106 32.5t39 81.5q0 53 -37 71t-72 18q-67 0 -112 -28l-31 20l117 152h42l-85 -116q27 12 69 13q68 0 112 -30.5t44 -93.5q2 -73 -53.5 -117.5t-138.5 -44.5q-49 0 -92.5 11.5t-72.5 26.5z" />
<glyph unicode="&#xb9;" horiz-adv-x="687" d="M128 1220v39q83 26 134.5 61.5t108.5 96.5h45v-844h-41v797h-4q-38 -54 -107 -92.5t-136 -57.5z" />
<glyph unicode="&#xba;" horiz-adv-x="620" d="M0 1098q0 64 20.5 125.5t60 107t97 73t134.5 27.5t135 -27.5t97.5 -73t58.5 -106.5t19 -126q0 -67 -19 -127.5t-58.5 -108t-98.5 -75t-136 -27.5q-75 0 -132.5 27.5t-97 75t-60 108t-20.5 127.5zM41 1098q0 -56 19 -109.5t52.5 -95t84.5 -67t115 -25.5t114 25.5t84 67 t52.5 95t18.5 109.5q0 53 -18.5 106t-52.5 94.5t-83.5 66.5t-114.5 25q-64 0 -115 -25t-84.5 -66.5t-52.5 -94.5t-19 -106z" />
<glyph unicode="&#xbb;" horiz-adv-x="727" d="M186 250v72l172 232l-172 232v72l213 -287v-34zM379 250v72l171 232l-171 232v72l213 -287v-34z" />
<glyph unicode="&#xbc;" horiz-adv-x="1725" d="M211 1220v39q83 26 134.5 61.5t107.5 96.5h46v-844h-41v797h-5q-37 -54 -106.5 -92.5t-135.5 -57.5zM298 -71l985 1548h47l-985 -1548h-47zM856 211v52l447 581h51v-592h158v-41h-158v-211h-41v211h-457zM900 252h413v536l-4 -4z" />
<glyph unicode="&#xbd;" horiz-adv-x="1725" d="M134 1220v39q83 26 134.5 61.5t108.5 96.5h45v-844h-41v797h-4q-38 -54 -107 -92.5t-136 -57.5zM201 -71l985 1548h47l-985 -1548h-47zM977 0q0 60 25.5 106t66 83.5t92 70t103.5 67.5q51 34 99 68.5t84 73t57.5 81t21.5 93.5q0 89 -67 131.5t-172 42.5q-137 0 -196 -66 t-57 -184h-41q4 140 69 215.5t225 75.5q57 0 109 -12.5t90 -38t60 -67t22 -97.5q0 -43 -10.5 -81.5t-40 -78t-83.5 -83.5t-139 -100q-52 -33 -99.5 -66t-84.5 -65.5t-61 -64t-26 -63.5h569v-41h-616z" />
<glyph unicode="&#xbe;" horiz-adv-x="1725" d="M114 858h42q-11 -130 71.5 -194t218.5 -64q52 0 101 13.5t86.5 39.5t60 64t22.5 90q0 58 -22.5 96t-60 61t-86 33t-99.5 10h-24q-16 0 -25 -2v43h54q46 0 90.5 10t79.5 29.5t55.5 53.5t20.5 83q0 52 -22 84t-55.5 51t-79 25t-92.5 6q-130 0 -199 -54.5t-69 -179.5h-42 q-2 69 21 119.5t65.5 85.5t100.5 52.5t126 17.5q52 0 102.5 -9t92 -32.5t67 -63t25.5 -102.5q0 -87 -59 -141.5t-152 -54.5v-4q46 -4 87.5 -17.5t72.5 -40.5t50 -66t19 -93q0 -60 -25.5 -106t-68 -77.5t-98 -48t-118.5 -16.5q-159 0 -251 77.5t-83 221.5zM410 -71l984 1548 h47l-983 -1548h-48zM955 211v52l448 581h51v-592h157v-41h-157v-211h-41v211h-458zM999 252h414v536l-4 -4z" />
<glyph unicode="&#xbf;" d="M105 -47q0 78 21.5 136.5t54 102t67 75t58.5 55.5q56 52 95 97t64 92.5t35.5 103.5t10.5 129h41q0 -70 -10.5 -125.5t-33 -106t-62 -100.5t-97.5 -106q-12 -12 -45 -39t-68 -70t-62.5 -104.5t-27.5 -139.5q0 -73 28.5 -129.5t77 -95t115.5 -58t146 -19.5q101 0 180 32.5 t130.5 91.5t76 143t20.5 183h42q4 -110 -25 -199.5t-87 -154.5t-144 -101.5t-193 -36.5q-85 0 -159.5 23t-129 66t-87 107.5t-32.5 147.5zM513 918v203h41v-203h-41z" />
<glyph unicode="&#xc0;" horiz-adv-x="1188" d="M-25 0l600 1477h54l583 -1477h-45l-194 486h-754l-196 -486h-48zM235 527h720l-351 908h-4zM310 1907h61l258 -298h-31z" />
<glyph unicode="&#xc1;" horiz-adv-x="1188" d="M-25 0l600 1477h54l583 -1477h-45l-194 486h-754l-196 -486h-48zM235 527h720l-351 908h-4zM575 1609l273 298h60l-302 -298h-31z" />
<glyph unicode="&#xc2;" horiz-adv-x="1188" d="M-25 0l600 1477h54l583 -1477h-45l-194 486h-754l-196 -486h-48zM235 527h720l-351 908h-4zM351 1615l235 288h30l236 -288h-41l-213 255l-205 -255h-42z" />
<glyph unicode="&#xc3;" horiz-adv-x="1188" d="M-25 0l600 1477h54l583 -1477h-45l-194 486h-754l-196 -486h-48zM235 527h720l-351 908h-4zM329 1665q2 32 13.5 60.5t29 51.5t42 37t56.5 14q35 0 69 -18t67 -41t64 -41.5t62 -18.5q40 0 65.5 25.5t35.5 87.5h42q-24 -156 -143 -154q-39 0 -72 18.5t-64 41t-62 41 t-64 18.5q-48 0 -71.5 -40t-27.5 -82h-42z" />
<glyph unicode="&#xc4;" horiz-adv-x="1188" d="M-25 0l600 1477h54l583 -1477h-45l-194 486h-754l-196 -486h-48zM235 527h720l-351 908h-4zM420 1663v167h42v-167h-42zM742 1663v167h42v-167h-42z" />
<glyph unicode="&#xc5;" horiz-adv-x="1188" d="M-25 0l600 1477h54l583 -1477h-45l-194 486h-754l-196 -486h-48zM235 527h720l-351 908h-4zM420 1758q0 38 14 70.5t39.5 57.5t58.5 39.5t70 14.5t70 -14.5t58 -39.5t39.5 -57.5t14.5 -70.5q0 -37 -14.5 -70.5t-39.5 -58t-58 -38.5t-70 -14t-70 14t-58.5 38.5t-39.5 58 t-14 70.5zM462 1758q0 -57 41 -98.5t99 -41.5t99 41.5t41 98.5q0 58 -41 99.5t-99 41.5t-99 -41.5t-41 -99.5z" />
<glyph unicode="&#xc6;" horiz-adv-x="1761" d="M-25 0l783 1477h969v-42h-811v-645h745v-42h-745v-707h811v-41h-852v567h-555l-300 -567h-45zM341 608h534v831h-97z" />
<glyph unicode="&#xc7;" horiz-adv-x="1416" d="M52 726q0 135 38 274t121 253.5t215.5 186.5t319.5 72q147 0 257 -48.5t183 -122t110.5 -156t39.5 -151.5h-41q-6 81 -47.5 158.5t-112.5 139.5t-169.5 100.5t-219.5 38.5q-122 0 -217 -34t-167 -91t-124 -133t-84 -158t-46.5 -167t-14.5 -162q0 -140 41.5 -270.5 t122 -230t197.5 -159.5t266 -60q132 0 238 43.5t182 120t123.5 182.5t64.5 227h42q-30 -203 -130.5 -352.5t-268.5 -216.5q-105 -41 -245 -45l-66 -81q27 12 68 13q69 0 113.5 -30.5t44.5 -93.5q2 -73 -54 -117.5t-139 -44.5q-50 0 -93 11.5t-73 26.5l19 39 q36 -16 70.5 -25.5t76.5 -9.5q67 0 105.5 32.5t38.5 81.5q0 53 -36.5 71t-72.5 18q-66 0 -112 -28l-30 20l99 117q-62 4 -121 16.5t-116 38.5q-90 44 -163.5 112.5t-125.5 158.5t-79.5 200.5t-27.5 234.5z" />
<glyph unicode="&#xc8;" horiz-adv-x="1109" d="M112 0v1477h980v-42h-938v-645h882v-42h-882v-707h947v-41h-989zM335 1907h60l258 -298h-31z" />
<glyph unicode="&#xc9;" horiz-adv-x="1109" d="M112 0v1477h980v-42h-938v-645h882v-42h-882v-707h947v-41h-989zM577 1609l273 298h60l-302 -298h-31z" />
<glyph unicode="&#xca;" horiz-adv-x="1109" d="M112 0v1477h980v-42h-938v-645h882v-42h-882v-707h947v-41h-989zM347 1615l234 288h31l236 -288h-41l-213 255l-205 -255h-42z" />
<glyph unicode="&#xcb;" horiz-adv-x="1109" d="M112 0v1477h980v-42h-938v-645h882v-42h-882v-707h947v-41h-989zM420 1663v167h42v-167h-42zM742 1663v167h42v-167h-42z" />
<glyph unicode="&#xcc;" horiz-adv-x="264" d="M-164 1907h61l259 -298h-32zM112 0v1477h42v-1477h-42z" />
<glyph unicode="&#xcd;" horiz-adv-x="264" d="M112 0v1477h42v-1477h-42zM112 1609l273 298h59l-302 -298h-30z" />
<glyph unicode="&#xce;" horiz-adv-x="264" d="M-118 1615l234 288h30l237 -288h-42l-213 255l-205 -255h-41zM112 0v1477h42v-1477h-42z" />
<glyph unicode="&#xcf;" horiz-adv-x="264" d="M-49 1663v167h41v-167h-41zM112 0v1477h42v-1477h-42zM273 1663v167h41v-167h-41z" />
<glyph unicode="&#xd0;" horiz-adv-x="1340" d="M-20 748v42h132v687h517q110 0 222.5 -34t202.5 -118t146.5 -227t56.5 -360q0 -199 -58 -339t-155 -228t-222 -129.5t-257 -41.5h-453v748h-132zM154 41h421q130 0 247 42.5t205 128.5t138.5 217.5t50.5 308.5q0 207 -51.5 341.5t-136.5 214.5t-191.5 110.5t-218.5 30.5 h-464v-645h614v-42h-614v-707z" />
<glyph unicode="&#xd1;" horiz-adv-x="1340" d="M112 0v1477h62l1009 -1425h5v1425h41v-1477h-62l-1009 1425h-4v-1425h-42zM407 1665q2 32 13.5 60.5t29.5 51.5t42.5 37t55.5 14q36 0 69.5 -18t67 -41t64.5 -41.5t62 -18.5q39 0 65 25.5t36 87.5h41q-23 -156 -142 -154q-39 0 -72.5 18.5t-64.5 41t-62 41t-64 18.5 q-47 0 -71 -40t-29 -82h-41z" />
<glyph unicode="&#xd2;" horiz-adv-x="1490" d="M67 738q0 158 44.5 298.5t130 246t212.5 167.5t292 62q166 0 293.5 -62t213 -167.5t130 -246t44.5 -298.5q0 -157 -44.5 -297.5t-130 -246t-213 -167.5t-293.5 -62q-165 0 -292 62t-212.5 167.5t-130 246t-44.5 297.5zM107 738q0 -159 44 -293.5t126.5 -231.5t201.5 -152 t267 -55q149 0 268 55t201 152t126.5 231.5t44.5 293.5q0 160 -44.5 294.5t-126.5 231.5t-200.5 152t-268.5 55q-148 0 -267 -55t-201.5 -152t-126.5 -231.5t-44 -294.5zM448 1907h61l259 -298h-32z" />
<glyph unicode="&#xd3;" horiz-adv-x="1490" d="M67 738q0 158 44.5 298.5t130 246t212.5 167.5t292 62q166 0 293.5 -62t213 -167.5t130 -246t44.5 -298.5q0 -157 -44.5 -297.5t-130 -246t-213 -167.5t-293.5 -62q-165 0 -292 62t-212.5 167.5t-130 246t-44.5 297.5zM107 738q0 -159 44 -293.5t126.5 -231.5t201.5 -152 t267 -55q149 0 268 55t201 152t126.5 231.5t44.5 293.5q0 160 -44.5 294.5t-126.5 231.5t-200.5 152t-268.5 55q-148 0 -267 -55t-201.5 -152t-126.5 -231.5t-44 -294.5zM730 1609l273 298h61l-302 -298h-32z" />
<glyph unicode="&#xd4;" horiz-adv-x="1490" d="M67 738q0 158 44.5 298.5t130 246t212.5 167.5t292 62q166 0 293.5 -62t213 -167.5t130 -246t44.5 -298.5q0 -157 -44.5 -297.5t-130 -246t-213 -167.5t-293.5 -62q-165 0 -292 62t-212.5 167.5t-130 246t-44.5 297.5zM107 738q0 -159 44 -293.5t126.5 -231.5t201.5 -152 t267 -55q149 0 268 55t201 152t126.5 231.5t44.5 293.5q0 160 -44.5 294.5t-126.5 231.5t-200.5 152t-268.5 55q-148 0 -267 -55t-201.5 -152t-126.5 -231.5t-44 -294.5zM505 1615l233 288h32l235 -288h-41l-214 255l-204 -255h-41z" />
<glyph unicode="&#xd5;" horiz-adv-x="1490" d="M67 738q0 158 44.5 298.5t130 246t212.5 167.5t292 62q166 0 293.5 -62t213 -167.5t130 -246t44.5 -298.5q0 -157 -44.5 -297.5t-130 -246t-213 -167.5t-293.5 -62q-165 0 -292 62t-212.5 167.5t-130 246t-44.5 297.5zM107 738q0 -159 44 -293.5t126.5 -231.5t201.5 -152 t267 -55q149 0 268 55t201 152t126.5 231.5t44.5 293.5q0 160 -44.5 294.5t-126.5 231.5t-200.5 152t-268.5 55q-148 0 -267 -55t-201.5 -152t-126.5 -231.5t-44 -294.5zM482 1665q2 32 13.5 60.5t29 51.5t42.5 37t55 14q36 0 70 -18t67 -41t64 -41.5t63 -18.5q39 0 65 25.5 t36 87.5h41q-23 -156 -142 -154q-40 0 -73 18.5t-64 41t-62.5 41t-64.5 18.5q-47 0 -71 -40t-28 -82h-41z" />
<glyph unicode="&#xd6;" horiz-adv-x="1490" d="M67 738q0 158 44.5 298.5t130 246t212.5 167.5t292 62q166 0 293.5 -62t213 -167.5t130 -246t44.5 -298.5q0 -157 -44.5 -297.5t-130 -246t-213 -167.5t-293.5 -62q-165 0 -292 62t-212.5 167.5t-130 246t-44.5 297.5zM107 738q0 -159 44 -293.5t126.5 -231.5t201.5 -152 t267 -55q149 0 268 55t201 152t126.5 231.5t44.5 293.5q0 160 -44.5 294.5t-126.5 231.5t-200.5 152t-268.5 55q-148 0 -267 -55t-201.5 -152t-126.5 -231.5t-44 -294.5zM569 1663v167h41v-167h-41zM892 1663v167h41v-167h-41z" />
<glyph unicode="&#xd7;" horiz-adv-x="1240" d="M199 130l393 393l-393 393l28 27l391 -395l396 395l28 -27l-395 -393l395 -393l-28 -29l-396 396l-391 -396z" />
<glyph unicode="&#xd8;" horiz-adv-x="1490" d="M67 738q0 158 44.5 298.5t130 246t212.5 167.5t292 62q156 0 277 -54.5t208 -150.5l121 134l32 -24l-127 -140q87 -105 128.5 -243t41.5 -296q0 -157 -44.5 -297.5t-130 -246t-213 -167.5t-293.5 -62q-157 0 -278 55t-207 154l-147 -164l-31 25l150 168 q-83 105 -124.5 243t-41.5 292zM107 738q-2 -155 39.5 -281t116.5 -222l939 1042q-83 93 -196.5 143.5t-259.5 50.5q-148 0 -267 -55t-200.5 -152t-126.5 -231.5t-45 -294.5zM290 205q81 -95 194.5 -147t261.5 -52q149 0 267 55t201 152t127.5 231.5t44.5 293.5 q2 156 -39.5 283t-117.5 222z" />
<glyph unicode="&#xd9;" horiz-adv-x="1306" d="M112 550v927h42v-927q0 -266 121.5 -405t377.5 -139q257 0 379 139t122 405v927h42v-927q0 -298 -139 -441.5t-404 -143.5q-264 0 -402.5 143.5t-138.5 441.5zM354 1907h60l259 -298h-32z" />
<glyph unicode="&#xda;" horiz-adv-x="1306" d="M112 550v927h42v-927q0 -266 121.5 -405t377.5 -139q257 0 379 139t122 405v927h42v-927q0 -298 -139 -441.5t-404 -143.5q-264 0 -402.5 143.5t-138.5 441.5zM635 1609l273 298h60l-302 -298h-31z" />
<glyph unicode="&#xdb;" horiz-adv-x="1306" d="M112 550v927h42v-927q0 -266 121.5 -405t377.5 -139q257 0 379 139t122 405v927h42v-927q0 -298 -139 -441.5t-404 -143.5q-264 0 -402.5 143.5t-138.5 441.5zM407 1615l234 288h32l235 -288h-41l-214 255l-205 -255h-41z" />
<glyph unicode="&#xdc;" horiz-adv-x="1306" d="M112 550v927h42v-927q0 -266 121.5 -405t377.5 -139q257 0 379 139t122 405v927h42v-927q0 -298 -139 -441.5t-404 -143.5q-264 0 -402.5 143.5t-138.5 441.5zM470 1663v167h41v-167h-41zM792 1663v167h41v-167h-41z" />
<glyph unicode="&#xdd;" horiz-adv-x="1112" d="M-62 1477h52l567 -811l568 811h50l-598 -855v-622h-42v622zM531 1609l274 298h60l-302 -298h-32z" />
<glyph unicode="&#xde;" horiz-adv-x="1186" d="M112 0v1477h42v-257h555q213 0 331 -101t118 -302q0 -97 -35 -172.5t-97 -126t-149 -76.5t-188 -26h-535v-416h-42zM154 458h555q87 0 161.5 23.5t129 70t86 112.5t31.5 153q0 176 -100.5 269t-307.5 93h-555v-721z" />
<glyph unicode="&#xdf;" horiz-adv-x="994" d="M114 0v1150q0 99 32 166.5t84 109t117 59t131 17.5q74 0 142.5 -23t121 -67t84.5 -107.5t32 -144.5q0 -130 -65 -220t-197 -113v-4q180 -16 259.5 -120.5t79.5 -268.5q0 -99 -26 -181.5t-85.5 -140.5t-159 -88t-246.5 -24v41q105 -6 192 11t150 62.5t98.5 123.5t35.5 196 q0 114 -35.5 185.5t-98.5 112t-151 55t-191 14.5v41q79 -2 151 13.5t126.5 52.5t88 99.5t33.5 152.5q0 71 -26.5 126.5t-72 94t-108 59t-132.5 20.5q-42 0 -96.5 -9.5t-105.5 -42t-85.5 -95t-34.5 -169.5v-1144h-42z" />
<glyph unicode="&#xe0;" horiz-adv-x="994" d="M45 263q0 99 32.5 159t84 94t117.5 47.5t133 17.5q110 6 188.5 11.5t129 21t74 47.5t23.5 91q0 48 -8 100t-40.5 95.5t-94.5 71t-167 27.5q-168 0 -260.5 -81.5t-102.5 -230.5h-42q4 75 31 140t77.5 112.5t124 74.5t172.5 27q71 0 135 -14.5t111.5 -50.5t76.5 -94 t29 -145v-677q0 -31 12.5 -45.5t33 -19.5t43.5 -4t45 3v-41q-16 -2 -31 -2h-31q-45 0 -79.5 22.5t-34.5 82.5v139h-4q-16 -51 -53.5 -99t-91.5 -85.5t-124 -60t-153 -22.5q-162 0 -259 72.5t-97 215.5zM87 263q0 -46 15.5 -90.5t52.5 -78.5t96 -56t146 -22q103 0 184 35.5 t136 92.5t82.5 131t27.5 153v196h-4q-20 -29 -63.5 -44t-99.5 -23.5t-121 -10.5t-127 -6t-121.5 -15.5t-105 -41.5t-72 -83t-26.5 -137zM215 1514h60l258 -298h-30z" />
<glyph unicode="&#xe1;" horiz-adv-x="994" d="M45 263q0 99 32.5 159t84 94t117.5 47.5t133 17.5q110 6 188.5 11.5t129 21t74 47.5t23.5 91q0 48 -8 100t-40.5 95.5t-94.5 71t-167 27.5q-168 0 -260.5 -81.5t-102.5 -230.5h-42q4 75 31 140t77.5 112.5t124 74.5t172.5 27q71 0 135 -14.5t111.5 -50.5t76.5 -94 t29 -145v-677q0 -31 12.5 -45.5t33 -19.5t43.5 -4t45 3v-41q-16 -2 -31 -2h-31q-45 0 -79.5 22.5t-34.5 82.5v139h-4q-16 -51 -53.5 -99t-91.5 -85.5t-124 -60t-153 -22.5q-162 0 -259 72.5t-97 215.5zM87 263q0 -46 15.5 -90.5t52.5 -78.5t96 -56t146 -22q103 0 184 35.5 t136 92.5t82.5 131t27.5 153v196h-4q-20 -29 -63.5 -44t-99.5 -23.5t-121 -10.5t-127 -6t-121.5 -15.5t-105 -41.5t-72 -83t-26.5 -137zM456 1216l272 298h60l-302 -298h-30z" />
<glyph unicode="&#xe2;" horiz-adv-x="994" d="M45 263q0 99 32.5 159t84 94t117.5 47.5t133 17.5q110 6 188.5 11.5t129 21t74 47.5t23.5 91q0 48 -8 100t-40.5 95.5t-94.5 71t-167 27.5q-168 0 -260.5 -81.5t-102.5 -230.5h-42q4 75 31 140t77.5 112.5t124 74.5t172.5 27q71 0 135 -14.5t111.5 -50.5t76.5 -94 t29 -145v-677q0 -31 12.5 -45.5t33 -19.5t43.5 -4t45 3v-41q-16 -2 -31 -2h-31q-45 0 -79.5 22.5t-34.5 82.5v139h-4q-16 -51 -53.5 -99t-91.5 -85.5t-124 -60t-153 -22.5q-162 0 -259 72.5t-97 215.5zM87 263q0 -46 15.5 -90.5t52.5 -78.5t96 -56t146 -22q103 0 184 35.5 t136 92.5t82.5 131t27.5 153v196h-4q-20 -29 -63.5 -44t-99.5 -23.5t-121 -10.5t-127 -6t-121.5 -15.5t-105 -41.5t-72 -83t-26.5 -137zM257 1222l233 288h31l237 -288h-42l-213 255l-205 -255h-41z" />
<glyph unicode="&#xe3;" horiz-adv-x="994" d="M45 263q0 99 32.5 159t84 94t117.5 47.5t133 17.5q110 6 188.5 11.5t129 21t74 47.5t23.5 91q0 48 -8 100t-40.5 95.5t-94.5 71t-167 27.5q-168 0 -260.5 -81.5t-102.5 -230.5h-42q4 75 31 140t77.5 112.5t124 74.5t172.5 27q71 0 135 -14.5t111.5 -50.5t76.5 -94 t29 -145v-677q0 -31 12.5 -45.5t33 -19.5t43.5 -4t45 3v-41q-16 -2 -31 -2h-31q-45 0 -79.5 22.5t-34.5 82.5v139h-4q-16 -51 -53.5 -99t-91.5 -85.5t-124 -60t-153 -22.5q-162 0 -259 72.5t-97 215.5zM87 263q0 -46 15.5 -90.5t52.5 -78.5t96 -56t146 -22q103 0 184 35.5 t136 92.5t82.5 131t27.5 153v196h-4q-20 -29 -63.5 -44t-99.5 -23.5t-121 -10.5t-127 -6t-121.5 -15.5t-105 -41.5t-72 -83t-26.5 -137zM221 1273q2 31 13.5 59.5t29.5 51.5t42.5 37t55.5 14q35 0 69.5 -18.5t67 -41.5t64 -41t61.5 -18q40 0 66 26t36 87h42 q-24 -155 -144 -154q-39 0 -72 18t-63.5 40.5t-62 41.5t-64.5 19q-48 0 -71.5 -40.5t-27.5 -80.5h-42z" />
<glyph unicode="&#xe4;" horiz-adv-x="994" d="M45 263q0 99 32.5 159t84 94t117.5 47.5t133 17.5q110 6 188.5 11.5t129 21t74 47.5t23.5 91q0 48 -8 100t-40.5 95.5t-94.5 71t-167 27.5q-168 0 -260.5 -81.5t-102.5 -230.5h-42q4 75 31 140t77.5 112.5t124 74.5t172.5 27q71 0 135 -14.5t111.5 -50.5t76.5 -94 t29 -145v-677q0 -31 12.5 -45.5t33 -19.5t43.5 -4t45 3v-41q-16 -2 -31 -2h-31q-45 0 -79.5 22.5t-34.5 82.5v139h-4q-16 -51 -53.5 -99t-91.5 -85.5t-124 -60t-153 -22.5q-162 0 -259 72.5t-97 215.5zM87 263q0 -46 15.5 -90.5t52.5 -78.5t96 -56t146 -22q103 0 184 35.5 t136 92.5t82.5 131t27.5 153v196h-4q-20 -29 -63.5 -44t-99.5 -23.5t-121 -10.5t-127 -6t-121.5 -15.5t-105 -41.5t-72 -83t-26.5 -137zM327 1270v167h42v-167h-42zM649 1270v167h42v-167h-42z" />
<glyph unicode="&#xe5;" horiz-adv-x="994" d="M45 263q0 99 32.5 159t84 94t117.5 47.5t133 17.5q110 6 188.5 11.5t129 21t74 47.5t23.5 91q0 48 -8 100t-40.5 95.5t-94.5 71t-167 27.5q-168 0 -260.5 -81.5t-102.5 -230.5h-42q4 75 31 140t77.5 112.5t124 74.5t172.5 27q71 0 135 -14.5t111.5 -50.5t76.5 -94 t29 -145v-677q0 -31 12.5 -45.5t33 -19.5t43.5 -4t45 3v-41q-16 -2 -31 -2h-31q-45 0 -79.5 22.5t-34.5 82.5v139h-4q-16 -51 -53.5 -99t-91.5 -85.5t-124 -60t-153 -22.5q-162 0 -259 72.5t-97 215.5zM87 263q0 -46 15.5 -90.5t52.5 -78.5t96 -56t146 -22q103 0 184 35.5 t136 92.5t82.5 131t27.5 153v196h-4q-20 -29 -63.5 -44t-99.5 -23.5t-121 -10.5t-127 -6t-121.5 -15.5t-105 -41.5t-72 -83t-26.5 -137zM312 1386q0 37 14.5 70.5t39.5 58t58.5 39t69.5 14.5q37 0 70.5 -14.5t58 -39t39.5 -58t15 -70.5q0 -38 -15 -70.5t-39.5 -57.5 t-58 -39.5t-70.5 -14.5t-70 14.5t-58 39.5t-39.5 57.5t-14.5 70.5zM354 1386q0 -58 41 -99.5t99 -41.5q57 0 99 41.5t42 99.5q0 57 -41.5 98.5t-99.5 41.5t-99 -41t-41 -99z" />
<glyph unicode="&#xe6;" horiz-adv-x="1838" d="M67 263q0 99 31.5 159t83 94t118 47.5t132.5 17.5q110 6 188.5 11.5t129.5 21t74.5 47.5t23.5 91q0 48 -8.5 100t-40 95.5t-94 71t-168.5 27.5q-167 0 -260 -81.5t-103 -230.5h-42q4 75 31 140t78 112.5t124 74.5t172 27q71 0 134 -15.5t110.5 -50.5t77 -95t31.5 -149h4 q20 66 57.5 122.5t91 98t122 65.5t153.5 24q120 0 207.5 -46.5t143.5 -124.5t82 -180t22 -214h-883q4 -105 27.5 -197.5t73 -161.5t129.5 -108.5t193 -39.5q79 0 149.5 23t125 68t91 110t46.5 152h41q-8 -87 -45 -160t-96 -124.5t-138.5 -80.5t-173.5 -29 q-174 0 -285.5 89.5t-152.5 255.5h-4q-17 -81 -58 -144.5t-100.5 -108t-133.5 -68.5t-157 -24q-161 0 -258 72.5t-97 215.5zM107 263q0 -46 15.5 -90.5t53 -78.5t96.5 -56t146 -22q103 0 184 35.5t135.5 92.5t82.5 131t28 153v196h-4q-20 -29 -64 -44t-100 -23.5t-121 -10.5 t-127 -6q-61 -4 -120.5 -15.5t-104.5 -41.5t-72.5 -83t-27.5 -137zM890 565h841q0 99 -25.5 186.5t-76 153.5t-128.5 103.5t-183 37.5q-97 0 -173.5 -33.5t-130.5 -97t-85 -152t-39 -198.5z" />
<glyph unicode="&#xe7;" d="M64 509q0 114 30 219t91 185t154 127.5t222 47.5q74 0 142.5 -23t122 -66.5t89.5 -108.5t47 -150h-42q-12 77 -45 135t-81 96t-107.5 56.5t-125.5 18.5q-129 0 -215.5 -48.5t-139 -126t-77 -173.5t-24.5 -189q0 -97 28.5 -186.5t82 -157.5t134 -108.5t185.5 -40.5 q77 0 146 24t122 70t86 109t40 143h42q-13 -135 -84.5 -227t-185.5 -133q-33 -10 -68 -17.5t-74 -9.5l-75 -91q27 12 68 13q69 0 113 -30.5t44 -93.5q2 -73 -53.5 -117.5t-138.5 -44.5q-49 0 -92.5 11.5t-73.5 26.5l20 39q35 -16 70 -25.5t76 -9.5q67 0 106 32.5t39 81.5 q0 53 -37 71t-73 18q-66 0 -112 -28l-30 20l105 127q-105 4 -182 41q-130 64 -199.5 195.5t-69.5 297.5z" />
<glyph unicode="&#xe8;" d="M52 531q0 133 39 236.5t103.5 175t148 108.5t174.5 37q124 0 214 -47.5t147 -126.5t83 -181t22 -210h-890q2 -107 25.5 -199.5t73.5 -160.5t128.5 -107.5t192.5 -39.5q168 0 278.5 88t137.5 265h42q-10 -91 -49 -164t-98.5 -123.5t-138.5 -78.5t-168 -28 q-124 -2 -212 40.5t-144 118t-82.5 178t-26.5 219.5zM93 565h848q0 97 -26.5 184.5t-79.5 154.5t-132 104.5t-182 37.5q-87 0 -162 -32.5t-132 -96t-92.5 -152t-41.5 -200.5zM225 1514h61l258 -298h-31z" />
<glyph unicode="&#xe9;" d="M52 531q0 133 39 236.5t103.5 175t148 108.5t174.5 37q124 0 214 -47.5t147 -126.5t83 -181t22 -210h-890q2 -107 25.5 -199.5t73.5 -160.5t128.5 -107.5t192.5 -39.5q168 0 278.5 88t137.5 265h42q-10 -91 -49 -164t-98.5 -123.5t-138.5 -78.5t-168 -28 q-124 -2 -212 40.5t-144 118t-82.5 178t-26.5 219.5zM93 565h848q0 97 -26.5 184.5t-79.5 154.5t-132 104.5t-182 37.5q-87 0 -162 -32.5t-132 -96t-92.5 -152t-41.5 -200.5zM497 1216l273 298h59l-302 -298h-30z" />
<glyph unicode="&#xea;" d="M52 531q0 133 39 236.5t103.5 175t148 108.5t174.5 37q124 0 214 -47.5t147 -126.5t83 -181t22 -210h-890q2 -107 25.5 -199.5t73.5 -160.5t128.5 -107.5t192.5 -39.5q168 0 278.5 88t137.5 265h42q-10 -91 -49 -164t-98.5 -123.5t-138.5 -78.5t-168 -28 q-124 -2 -212 40.5t-144 118t-82.5 178t-26.5 219.5zM93 565h848q0 97 -26.5 184.5t-79.5 154.5t-132 104.5t-182 37.5q-87 0 -162 -32.5t-132 -96t-92.5 -152t-41.5 -200.5zM279 1222l234 288h31l236 -288h-42l-213 255l-205 -255h-41z" />
<glyph unicode="&#xeb;" d="M52 531q0 133 39 236.5t103.5 175t148 108.5t174.5 37q124 0 214 -47.5t147 -126.5t83 -181t22 -210h-890q2 -107 25.5 -199.5t73.5 -160.5t128.5 -107.5t192.5 -39.5q168 0 278.5 88t137.5 265h42q-10 -91 -49 -164t-98.5 -123.5t-138.5 -78.5t-168 -28 q-124 -2 -212 40.5t-144 118t-82.5 178t-26.5 219.5zM93 565h848q0 97 -26.5 184.5t-79.5 154.5t-132 104.5t-182 37.5q-87 0 -162 -32.5t-132 -96t-92.5 -152t-41.5 -200.5zM343 1270v167h42v-167h-42zM666 1270v167h41v-167h-41z" />
<glyph unicode="&#xec;" horiz-adv-x="268" d="M-164 1514h61l259 -298h-32zM114 0v1064h42v-1064h-42z" />
<glyph unicode="&#xed;" horiz-adv-x="268" d="M112 1216l273 298h59l-302 -298h-30zM114 0v1064h42v-1064h-42z" />
<glyph unicode="&#xee;" horiz-adv-x="268" d="M-116 1222l234 288h30l237 -288h-42l-213 255l-205 -255h-41zM114 0v1064h42v-1064h-42z" />
<glyph unicode="&#xef;" horiz-adv-x="268" d="M-47 1270v167h41v-167h-41zM114 0v1064h42v-1064h-42zM275 1270v167h41v-167h-41z" />
<glyph unicode="&#xf0;" horiz-adv-x="1072" d="M58 513q0 105 31 201.5t92 171t150 118.5t206 44q95 0 185.5 -34.5t150.5 -113.5h8q-32 62 -73.5 122t-87 115t-90 99.5t-82.5 74.5l-252 -140l-31 31l250 138q-37 30 -84.5 61.5t-108.5 62.5l34 30q59 -32 110 -67t88 -66l255 141l30 -33l-247 -139 q219 -203 321.5 -397.5t102.5 -419.5q0 -105 -31.5 -202.5t-92.5 -170.5t-150 -118t-207 -45q-116 0 -205.5 45t-149.5 118t-91 170t-31 203zM99 513q0 -97 28.5 -186t84 -157.5t137 -110t188.5 -41.5q105 0 187.5 41.5t138 110t84 157.5t28.5 186q0 95 -28.5 184t-84 158 t-137.5 110.5t-188 41.5q-107 0 -188.5 -41.5t-137 -110.5t-84 -158t-28.5 -184z" />
<glyph unicode="&#xf1;" d="M114 0v1064h42v-263h4q14 62 46 113.5t80.5 90.5t113 61t142.5 22q83 0 152.5 -25t120 -73.5t78 -119.5t27.5 -165v-705h-41v699q0 93 -27 158t-73.5 107.5t-107.5 62t-129 19.5q-95 0 -167.5 -35.5t-121 -97t-73 -142t-24.5 -169.5v-602h-42zM235 1273q2 31 14 59.5 t29.5 51.5t42 37t56.5 14q35 0 69 -18.5t67 -41.5t64 -41t62 -18q40 0 65.5 26t35.5 87h42q-23 -155 -143 -154q-39 0 -72.5 18t-64 40.5t-61.5 41.5t-64 19q-48 0 -71.5 -40.5t-28.5 -80.5h-42z" />
<glyph unicode="&#xf2;" horiz-adv-x="1072" d="M58 531q0 107 31 209t92 178.5t150 123t206 46.5q116 0 205 -46.5t150 -123t92.5 -178t31.5 -209.5q0 -110 -31.5 -210t-92.5 -177t-150 -123t-207 -46q-116 0 -205.5 46t-149.5 123t-91 177t-31 210zM99 531q0 -101 28.5 -194t84 -164.5t137 -114t188.5 -42.5 q105 0 187.5 42.5t138 114t84 164.5t28.5 194q0 99 -28.5 192.5t-84 165t-137.5 114.5t-188 43q-107 0 -188.5 -43t-137 -114.5t-84 -165t-28.5 -192.5zM238 1514h60l259 -298h-32z" />
<glyph unicode="&#xf3;" horiz-adv-x="1072" d="M58 531q0 107 31 209t92 178.5t150 123t206 46.5q116 0 205 -46.5t150 -123t92.5 -178t31.5 -209.5q0 -110 -31.5 -210t-92.5 -177t-150 -123t-207 -46q-116 0 -205.5 46t-149.5 123t-91 177t-31 210zM99 531q0 -101 28.5 -194t84 -164.5t137 -114t188.5 -42.5 q105 0 187.5 42.5t138 114t84 164.5t28.5 194q0 99 -28.5 192.5t-84 165t-137.5 114.5t-188 43q-107 0 -188.5 -43t-137 -114.5t-84 -165t-28.5 -192.5zM515 1216l273 298h60l-302 -298h-31z" />
<glyph unicode="&#xf4;" horiz-adv-x="1072" d="M58 531q0 107 31 209t92 178.5t150 123t206 46.5q116 0 205 -46.5t150 -123t92.5 -178t31.5 -209.5q0 -110 -31.5 -210t-92.5 -177t-150 -123t-207 -46q-116 0 -205.5 46t-149.5 123t-91 177t-31 210zM99 531q0 -101 28.5 -194t84 -164.5t137 -114t188.5 -42.5 q105 0 187.5 42.5t138 114t84 164.5t28.5 194q0 99 -28.5 192.5t-84 165t-137.5 114.5t-188 43q-107 0 -188.5 -43t-137 -114.5t-84 -165t-28.5 -192.5zM288 1222l233 288h31l236 -288h-42l-213 255l-204 -255h-41z" />
<glyph unicode="&#xf5;" horiz-adv-x="1072" d="M58 531q0 107 31 209t92 178.5t150 123t206 46.5q116 0 205 -46.5t150 -123t92.5 -178t31.5 -209.5q0 -110 -31.5 -210t-92.5 -177t-150 -123t-207 -46q-116 0 -205.5 46t-149.5 123t-91 177t-31 210zM99 531q0 -101 28.5 -194t84 -164.5t137 -114t188.5 -42.5 q105 0 187.5 42.5t138 114t84 164.5t28.5 194q0 99 -28.5 192.5t-84 165t-137.5 114.5t-188 43q-107 0 -188.5 -43t-137 -114.5t-84 -165t-28.5 -192.5zM265 1273q2 31 13.5 59.5t29 51.5t42.5 37t55 14q35 0 69.5 -18.5t67.5 -41.5t64 -41t63 -18q39 0 65 26t36 87h41 q-23 -155 -142 -154q-40 0 -73 18t-64 40.5t-62.5 41.5t-64.5 19q-47 0 -71 -40.5t-28 -80.5h-41z" />
<glyph unicode="&#xf6;" horiz-adv-x="1072" d="M58 531q0 107 31 209t92 178.5t150 123t206 46.5q116 0 205 -46.5t150 -123t92.5 -178t31.5 -209.5q0 -110 -31.5 -210t-92.5 -177t-150 -123t-207 -46q-116 0 -205.5 46t-149.5 123t-91 177t-31 210zM99 531q0 -101 28.5 -194t84 -164.5t137 -114t188.5 -42.5 q105 0 187.5 42.5t138 114t84 164.5t28.5 194q0 99 -28.5 192.5t-84 165t-137.5 114.5t-188 43q-107 0 -188.5 -43t-137 -114.5t-84 -165t-28.5 -192.5zM356 1270v167h41v-167h-41zM679 1270v167h41v-167h-41z" />
<glyph unicode="&#xf7;" horiz-adv-x="1240" d="M99 503v41h1042v-41h-1042zM535 85q0 37 25.5 61t59.5 24q35 0 60 -25t25 -60q0 -36 -18.5 -60.5t-66.5 -24.5q-45 0 -65 24.5t-20 60.5zM535 962q0 37 25.5 60.5t59.5 23.5q35 0 60 -24.5t25 -59.5q0 -36 -18.5 -60.5t-66.5 -24.5q-45 0 -65 25t-20 60z" />
<glyph unicode="&#xf8;" horiz-adv-x="1072" d="M37 45l125 129q-52 72 -78 165t-26 192q0 107 31 209t92 178.5t150 123t206 46.5q112 0 199 -42.5t147 -116.5l94 97l28 -29l-97 -101q54 -73 81 -166t27 -199q0 -110 -31.5 -210t-92.5 -177t-150 -123t-207 -46t-204.5 44.5t-146.5 118.5l-117 -122zM99 531 q0 -188 91 -326l662 693q-53 69 -131 108.5t-184 39.5q-107 0 -188.5 -43t-137 -114.5t-84 -164.5t-28.5 -193zM215 172q54 -73 134.5 -114.5t187.5 -41.5q105 0 187.5 42.5t138 114t84 164.5t28.5 194q0 93 -25.5 178t-72.5 156z" />
<glyph unicode="&#xf9;" d="M114 358v706h42v-700q0 -93 26.5 -158.5t73 -107.5t107.5 -62t129 -20q95 0 167.5 36.5t121 97.5t73.5 142t25 170v602h41v-1064h-41v263h-4q-14 -62 -46.5 -114t-81 -91.5t-112.5 -61t-143 -21.5q-83 0 -152 25t-119.5 73.5t-78.5 120t-28 164.5zM213 1514h60l258 -298 h-30z" />
<glyph unicode="&#xfa;" d="M114 358v706h42v-700q0 -93 26.5 -158.5t73 -107.5t107.5 -62t129 -20q95 0 167.5 36.5t121 97.5t73.5 142t25 170v602h41v-1064h-41v263h-4q-14 -62 -46.5 -114t-81 -91.5t-112.5 -61t-143 -21.5q-83 0 -152 25t-119.5 73.5t-78.5 120t-28 164.5zM492 1216l274 298h59 l-302 -298h-31z" />
<glyph unicode="&#xfb;" d="M114 358v706h42v-700q0 -93 26.5 -158.5t73 -107.5t107.5 -62t129 -20q95 0 167.5 36.5t121 97.5t73.5 142t25 170v602h41v-1064h-41v263h-4q-14 -62 -46.5 -114t-81 -91.5t-112.5 -61t-143 -21.5q-83 0 -152 25t-119.5 73.5t-78.5 120t-28 164.5zM263 1222l234 288h30 l237 -288h-42l-213 255l-205 -255h-41z" />
<glyph unicode="&#xfc;" d="M114 358v706h42v-700q0 -93 26.5 -158.5t73 -107.5t107.5 -62t129 -20q95 0 167.5 36.5t121 97.5t73.5 142t25 170v602h41v-1064h-41v263h-4q-14 -62 -46.5 -114t-81 -91.5t-112.5 -61t-143 -21.5q-83 0 -152 25t-119.5 73.5t-78.5 120t-28 164.5zM331 1270v167h42v-167 h-42zM653 1270v167h42v-167h-42z" />
<glyph unicode="&#xfd;" horiz-adv-x="841" d="M-25 1064h45l422 -1008l381 1008h44l-490 -1281q-20 -54 -49.5 -84t-65 -44.5t-78 -17.5t-89.5 -3v41q51 0 90.5 3.5t68 16.5t50 41.5t39.5 75.5l77 198zM424 1216l273 298h61l-302 -298h-32z" />
<glyph unicode="&#xfe;" horiz-adv-x="1109" d="M114 -366v1843h42v-711h4q41 140 145.5 231t280.5 91q112 0 196.5 -41.5t141.5 -116t85.5 -176t28.5 -221.5q0 -112 -25.5 -213t-81.5 -177t-142 -122t-203 -46q-164 0 -276.5 89.5t-149.5 233.5h-4v-664h-42zM156 533q0 -124 31.5 -220t88.5 -162t136.5 -100.5 t173.5 -34.5q118 0 196.5 47t126.5 120.5t68 165t20 184.5q0 101 -24 194.5t-73.5 165t-128 112.5t-185.5 41q-110 0 -191 -41t-133.5 -111.5t-79 -163.5t-26.5 -197z" />
<glyph unicode="&#xff;" horiz-adv-x="841" d="M-25 1064h45l422 -1008l381 1008h44l-490 -1281q-20 -54 -49.5 -84t-65 -44.5t-78 -17.5t-89.5 -3v41q51 0 90.5 3.5t68 16.5t50 41.5t39.5 75.5l77 198zM261 1270v167h41v-167h-41zM584 1270v167h40v-167h-40z" />
<glyph unicode="&#x152;" horiz-adv-x="2106" d="M67 730q0 156 43.5 297.5t127.5 249t212.5 171.5t297.5 64q125 0 225.5 -38.5t180.5 -131.5v135h898v-42h-856v-645h756v-42h-756v-707h856v-41h-898v134q-86 -89 -192 -129t-214 -40q-167 0 -294 62t-212.5 166.5t-130 243t-44.5 293.5zM107 730q0 -157 45 -289.5 t127.5 -228.5t201.5 -151t267 -55q97 0 207.5 42.5t198.5 146.5v1094q-47 49 -91.5 83.5t-92.5 56t-101.5 32t-120.5 10.5q-146 0 -264 -52.5t-201.5 -150t-129.5 -234t-46 -304.5z" />
<glyph unicode="&#x153;" horiz-adv-x="1840" d="M67 531q0 101 22.5 201.5t74 179.5t134.5 127.5t205 48.5q174 0 280.5 -101t130.5 -263h4q14 77 45.5 143t82 114.5t122 76.5t168.5 30q114 2 196.5 -41.5t135.5 -118t78 -171.5t25 -203v-31h-832q-2 -248 94 -377.5t303 -129.5q91 0 157 28.5t110.5 75t72 108.5 t39.5 130h41q-29 -176 -133.5 -279.5t-286.5 -103.5q-176 0 -283.5 91.5t-132.5 258.5h-4q-35 -161 -134 -255.5t-279 -94.5q-118 0 -201 48t-135.5 126t-76 177.5t-23.5 204.5zM107 531q0 -97 22.5 -189t68.5 -164.5t121.5 -117t183.5 -44.5q114 0 189.5 42.5t120.5 114 t65 164.5t20 194q0 99 -20 192.5t-66 165t-122 114.5t-187 43q-107 0 -183 -43t-122 -115.5t-68.5 -164.5t-22.5 -192zM939 565h790q-2 97 -24.5 184.5t-69 154.5t-120.5 104.5t-177 37.5q-107 0 -181.5 -36.5t-121 -101t-69.5 -153.5t-27 -190z" />
<glyph unicode="&#x178;" horiz-adv-x="1112" d="M-62 1477h52l567 -811l568 811h50l-598 -855v-622h-42v622zM375 1663v167h41v-167h-41zM697 1663v167h41v-167h-41z" />
<glyph unicode="&#x2c6;" horiz-adv-x="268" d="M-116 1222l234 288h30l237 -288h-42l-213 255l-205 -255h-41z" />
<glyph unicode="&#x2dc;" horiz-adv-x="268" d="M-138 1273q2 31 13 59.5t28.5 51.5t42.5 37t56 14q35 0 69 -18.5t67.5 -41.5t64 -41t62.5 -18q39 0 65 26t36 87h41q-23 -155 -142 -154q-40 0 -72.5 18t-64 40.5t-62.5 41.5t-64 19q-47 0 -71 -40.5t-28 -80.5h-41z" />
<glyph unicode="&#x2000;" horiz-adv-x="970" />
<glyph unicode="&#x2001;" horiz-adv-x="1940" />
<glyph unicode="&#x2002;" horiz-adv-x="970" />
<glyph unicode="&#x2003;" horiz-adv-x="1940" />
<glyph unicode="&#x2004;" horiz-adv-x="646" />
<glyph unicode="&#x2005;" horiz-adv-x="485" />
<glyph unicode="&#x2006;" horiz-adv-x="323" />
<glyph unicode="&#x2007;" horiz-adv-x="323" />
<glyph unicode="&#x2008;" horiz-adv-x="242" />
<glyph unicode="&#x2009;" horiz-adv-x="388" />
<glyph unicode="&#x200a;" horiz-adv-x="107" />
<glyph unicode="&#x2010;" horiz-adv-x="687" d="M164 533v42h361v-42h-361z" />
<glyph unicode="&#x2011;" horiz-adv-x="687" d="M164 533v42h361v-42h-361z" />
<glyph unicode="&#x2012;" horiz-adv-x="687" d="M164 533v42h361v-42h-361z" />
<glyph unicode="&#x2013;" d="M0 533v42h1034v-42h-1034z" />
<glyph unicode="&#x2014;" horiz-adv-x="2068" d="M269 533v42h1531v-42h-1531z" />
<glyph unicode="&#x2018;" horiz-adv-x="345" d="M152 1011v244q0 56 4 91.5t15 60t28.5 40t44.5 30.5v-42q-31 -20 -41.5 -60.5t-10.5 -119.5v-244h-40z" />
<glyph unicode="&#x2019;" horiz-adv-x="345" d="M101 1011v41q31 21 42 61.5t11 119.5v244h41v-244q0 -55 -4.5 -90.5t-15.5 -60.5t-29 -40.5t-45 -30.5z" />
<glyph unicode="&#x201a;" horiz-adv-x="345" d="M99 -205q29 27 41 72.5t12 132.5v203h40v-203q0 -93 -19 -152t-74 -94v41z" />
<glyph unicode="&#x201c;" horiz-adv-x="574" d="M172 1011v244q0 56 4 91.5t15.5 60t29 40t44.5 30.5v-42q-32 -20 -42 -60.5t-10 -119.5v-244h-41zM379 1011v244q0 56 4 91.5t15.5 60t28.5 40t45 30.5v-42q-32 -20 -42 -60.5t-10 -119.5v-244h-41z" />
<glyph unicode="&#x201d;" horiz-adv-x="574" d="M103 1011v41q31 21 42 61.5t11 119.5v244h41v-244q0 -55 -4.5 -90.5t-15.5 -60.5t-29 -40.5t-45 -30.5zM310 1011v41q31 21 41.5 61.5t10.5 119.5v244h41v-244q0 -55 -4 -90.5t-15 -60.5t-29 -40.5t-45 -30.5z" />
<glyph unicode="&#x201e;" horiz-adv-x="574" d="M103 -205q29 27 41 72.5t12 132.5v203h41v-203q0 -93 -19.5 -152t-74.5 -94v41zM310 -205q29 27 40.5 72.5t11.5 132.5v203h41v-203q0 -93 -19.5 -152t-73.5 -94v41z" />
<glyph unicode="&#x2022;" d="M148 738q0 77 29.5 144t79 116.5t116.5 79t144 29.5t144 -29.5t117.5 -79t80 -116.5t29.5 -144q0 -76 -29.5 -143.5t-80 -118t-117.5 -79t-144 -28.5t-144 28.5t-116.5 79t-79 118t-29.5 143.5z" />
<glyph unicode="&#x2026;" horiz-adv-x="2068" d="M325 0v203h41v-203h-41zM1014 0v203h40v-203h-40zM1703 0v203h40v-203h-40z" />
<glyph unicode="&#x202f;" horiz-adv-x="388" />
<glyph unicode="&#x2039;" horiz-adv-x="535" d="M136 537v34l213 287v-72l-171 -232l171 -232v-72z" />
<glyph unicode="&#x203a;" horiz-adv-x="535" d="M186 250v72l172 232l-172 232v72l213 -287v-34z" />
<glyph unicode="&#x205f;" horiz-adv-x="485" />
<glyph unicode="&#x20ac;" horiz-adv-x="1149" d="M0 557l14 35h110q-2 10 -3 21t-1 22v44q0 29 1 60t3 60h-124l14 34h114q16 127 65 237.5t128.5 192t188 128t242.5 46.5q113 0 205.5 -33.5t179.5 -102.5l-18 -33q-87 66 -171.5 99t-197.5 33q-124 0 -225 -44.5t-175.5 -121t-120 -180t-59.5 -221.5h841l-18 -34h-827 q-2 -25 -3 -50t-1 -50q0 -56 6 -107h781l-18 -35h-759q18 -113 65 -213t119 -175.5t169 -119t219 -43.5q259 0 429 201v-55q-180 -182 -435 -183q-130 0 -234.5 46.5t-182 126t-127.5 186t-68 229.5h-126z" />
<glyph unicode="&#x2122;" horiz-adv-x="2047" d="M170 1435v42h661v-42h-310v-811h-41v811h-310zM1026 624v853h70l335 -794l335 794h71v-853h-41v811h-4l-340 -811h-41l-339 811h-4v-811h-42z" />
<glyph unicode="&#xe000;" horiz-adv-x="1064" d="M0 0v1066h1066v-1066h-1066z" />
<glyph unicode="&#xfb01;" horiz-adv-x="687" d="M-2 1022v42h182v235q0 63 19.5 98.5t51 53.5t67.5 22t71 4q29 0 51 -3t38 -5v-42q-30 4 -52.5 6t-44.5 2q-99 0 -129.5 -35.5t-30.5 -114.5v-221h229v-42h-229v-1022h-41v1022h-182zM533 0v1064h42v-1064h-42zM533 1268v209h42v-209h-42z" />
<glyph unicode="&#xfb02;" horiz-adv-x="687" d="M-2 1022v42h182v235q0 63 19.5 98.5t51 53.5t67.5 22t71 4q29 0 51 -3t38 -5v-42q-30 4 -52.5 6t-44.5 2q-99 0 -129.5 -35.5t-30.5 -114.5v-221h229v-42h-229v-1022h-41v1022h-182zM533 0v1477h42v-1477h-42z" />
</font>
</defs>
</svg>
